<svg xmlns="http://www.w3.org/2000/svg" xml:space="preserve" fill-rule="evenodd" stroke-linejoin="round" stroke-miterlimit="2" clip-rule="evenodd" viewBox="0 0 205 205">
  <g fill-rule="nonzero">
    <path fill="#dc1931" d="M101.492,0.002l0.586,-0.002c56.338,0 102.078,45.74 102.078,102.078c-0,56.338 -45.74,102.078 -102.078,102.078l-0.586,-0.002l-0.147,-0.001l-0.582,-0.005l-0.004,-0l-0.585,-0.01l-0.146,-0.002l-0.577,-0.013l-0.007,-0l-0.582,-0.017l-0.147,-0.005l-0.571,-0.02l-0.011,-0l-0.58,-0.024l-0.147,-0.006l-0.564,-0.027l-0.017,-0.001l-0.576,-0.031l-0.147,-0.009l-0.557,-0.033l-0.023,-0.002l-0.573,-0.038l-0.148,-0.01l-0.548,-0.04l-0.029,-0.002l-0.569,-0.045l-0.151,-0.013l-0.537,-0.046l-0.038,-0.003l-0.564,-0.052l-0.154,-0.015l-0.525,-0.052l-0.048,-0.004l-0.557,-0.059l-0.159,-0.017l-0.51,-0.057l-0.06,-0.006l-0.55,-0.065l-0.165,-0.02l-0.493,-0.061l-0.074,-0.01l-0.542,-0.07l-0.172,-0.023l-0.473,-0.065l-0.094,-0.013l-0.529,-0.076l-0.181,-0.026l-0.451,-0.068l-0.105,-0.016l-0.019,-0.003l-0.506,-0.079l-0.192,-0.031l-0.425,-0.069l-0.123,-0.02l-0.039,-0.006l-0.476,-0.081l-0.206,-0.035l-0.396,-0.07l-0.144,-0.025l-0.063,-0.012l-0.441,-0.08l-0.221,-0.041l-0.363,-0.069l-0.167,-0.031l-0.094,-0.019l-0.398,-0.077l-0.239,-0.048l-0.326,-0.066l-0.192,-0.038l-0.132,-0.028l-0.348,-0.072l-0.26,-0.055l-0.285,-0.061l-0.219,-0.048l-0.177,-0.039l-0.289,-0.064l-0.283,-0.063l-0.24,-0.055l-0.25,-0.057l-0.23,-0.054l-0.22,-0.052l-0.31,-0.073l-0.19,-0.046l-0.282,-0.069l-0.295,-0.072l-0.139,-0.035l-0.341,-0.085l-0.134,-0.034l-0.318,-0.082l-0.37,-0.096l-0.046,-0.012l-0.374,-0.099l-0.074,-0.02l-0.357,-0.096c-0.135,-0.037 -0.271,-0.074 -0.406,-0.111l-0.402,-0.112l-0.009,-0.002c-25.763,-7.222 -47.414,-24.309 -60.612,-46.934l-0.104,-0.178c-6.444,-11.038 -10.862,-23.4 -12.756,-36.576l-0.006,-0.044l-0.056,-0.396c-0.019,-0.141 -0.039,-0.281 -0.058,-0.422l-0.047,-0.355l-0.02,-0.155l-0.043,-0.334l-0.032,-0.255l-0.023,-0.183l-0.037,-0.307l-0.029,-0.247l-0.032,-0.28l-0.005,-0.042l-0.047,-0.422l-0.027,-0.257l-0.034,-0.323l-0.023,-0.225l-0.049,-0.494l-0.021,-0.219l-0.035,-0.384l-0.016,-0.176l-0.045,-0.521l-0.016,-0.191l-0.034,-0.433l-0.011,-0.137l-0.039,-0.541l-0.012,-0.171l-0.031,-0.472l-0.007,-0.104l-0.034,-0.557l-0.009,-0.158l-0.027,-0.503l-0.004,-0.077l-0.027,-0.568l-0.006,-0.149l-0.022,-0.528l-0.002,-0.056l-0.021,-0.575l-0.004,-0.146l-0.016,-0.549l-0.001,-0.036l-0.013,-0.58l-0.002,-0.145l-0.009,-0.567l-0.001,-0.019l-0.005,-0.584l-0.001,-0.144l-0.002,-0.587l0.002,-0.587l0.001,-0.143l0.005,-0.582l0.001,-0.032l0.009,-0.556l0.002,-0.142l0.013,-0.578l0.002,-0.058l0.015,-0.531l0.004,-0.143l0.02,-0.572l0.003,-0.082l0.021,-0.506l0.007,-0.146l0.027,-0.564l0.005,-0.106l0.026,-0.481l0.009,-0.152l0.033,-0.552l0.009,-0.134l0.03,-0.451l0.011,-0.164l0.039,-0.536l0.013,-0.165l0.033,-0.414l0.015,-0.184l0.044,-0.515l0.018,-0.201l0.034,-0.367l0.02,-0.213l0.048,-0.488l0.025,-0.244l0.032,-0.307l0.028,-0.256l0.05,-0.452l0.034,-0.297l0.027,-0.228l0.035,-0.293l0.039,-0.314l0.014,-0.116l0.046,-0.359l0.017,-0.129c1.773,-13.555 6.215,-26.276 12.79,-37.609l0.104,-0.179c13.169,-22.722 34.852,-39.894 60.67,-47.155l0.038,-0.01l0.386,-0.108c0.136,-0.037 0.271,-0.074 0.407,-0.111l0.36,-0.097l0.095,-0.026l0.36,-0.096c0.136,-0.035 0.273,-0.071 0.409,-0.106l0.333,-0.086l0.149,-0.037l0.337,-0.085c0.137,-0.034 0.274,-0.068 0.411,-0.102l0.308,-0.075l0.197,-0.047l0.309,-0.074l0.317,-0.075l0.105,-0.024l0.284,-0.065l0.24,-0.055l0.28,-0.063l0.441,-0.098l0.258,-0.056l0.279,-0.06l0.255,-0.054l0.461,-0.095l0.231,-0.047l0.314,-0.064l0.234,-0.046l0.478,-0.094l0.206,-0.039l0.346,-0.065l0.216,-0.04l0.493,-0.09l0.184,-0.033l0.375,-0.066l0.2,-0.034l0.507,-0.086l0.164,-0.027l0.399,-0.065l0.187,-0.03l0.52,-0.081l0.146,-0.022l0.422,-0.063l0.176,-0.026l0.531,-0.076l0.129,-0.018l0.442,-0.061l0.168,-0.022l0.54,-0.071l0.113,-0.014l0.461,-0.057l0.161,-0.02l0.548,-0.064l0.1,-0.011l0.476,-0.053l0.156,-0.017l0.556,-0.058l0.086,-0.009l0.492,-0.049l0.152,-0.014l0.561,-0.052l0.075,-0.006l0.505,-0.044l0.15,-0.012l0.566,-0.045l0.064,-0.005l0.518,-0.038l0.148,-0.01l0.571,-0.038l0.053,-0.003l0.529,-0.032l0.147,-0.009l0.575,-0.031l0.043,-0.002l0.541,-0.025l0.146,-0.007l0.578,-0.024l0.034,-0.001l0.551,-0.019l0.147,-0.005l0.581,-0.017l0.023,-0l0.562,-0.013l0.148,-0.002l0.583,-0.01l0.012,0l0.575,-0.005l0.148,-0.001Z"/>
    <path fill="#fff" d="M23.309,105.012c-0,1.045 -0.112,2.025 -0.336,2.94c-0.224,0.914 -0.588,1.712 -1.092,2.394c-0.504,0.681 -1.153,1.218 -1.946,1.61c-0.793,0.392 -1.759,0.588 -2.898,0.588c-1.139,-0 -2.1,-0.196 -2.884,-0.588c-0.784,-0.392 -1.423,-0.929 -1.918,-1.61c-0.495,-0.682 -0.849,-1.48 -1.064,-2.394c-0.215,-0.915 -0.322,-1.895 -0.322,-2.94l-0,-12.796l3.36,-0l-0,12.488c-0,0.616 0.042,1.208 0.126,1.778c0.084,0.569 0.233,1.068 0.448,1.498c0.215,0.429 0.509,0.77 0.882,1.022c0.373,0.252 0.849,0.378 1.428,0.378c0.579,-0 1.055,-0.126 1.428,-0.378c0.373,-0.252 0.667,-0.593 0.882,-1.022c0.215,-0.43 0.364,-0.929 0.448,-1.498c0.084,-0.57 0.126,-1.162 0.126,-1.778l-0,-12.488l3.332,-0l-0,12.796Z"/>
    <path fill="#fff" d="M35.993,112.04l-5.628,-14l-0.084,-0l0.056,14l-3.024,-0l-0,-19.824l3.836,-0l5.572,14.084l0.084,-0l-0.028,-14.084l2.912,-0l-0,19.824l-3.696,-0Z"/>
    <path fill="#fff" d="M56.741,102.156c-0,3.136 -0.658,5.567 -1.974,7.294c-1.316,1.726 -3.253,2.59 -5.81,2.59l-4.956,-0l-0,-19.824l4.984,-0c2.539,-0 4.466,0.872 5.782,2.618c1.316,1.745 1.974,4.186 1.974,7.322Zm-3.36,-0c-0,-1.176 -0.107,-2.203 -0.322,-3.08c-0.215,-0.878 -0.518,-1.606 -0.91,-2.184c-0.392,-0.579 -0.859,-1.013 -1.4,-1.302c-0.541,-0.29 -1.129,-0.434 -1.764,-0.434l-1.596,-0l-0,13.944l1.596,-0c0.635,-0 1.223,-0.145 1.764,-0.434c0.541,-0.29 1.008,-0.724 1.4,-1.302c0.392,-0.579 0.695,-1.302 0.91,-2.17c0.215,-0.868 0.322,-1.881 0.322,-3.038Z"/>
    <path fill="#fff" d="M60.213,112.04l-0,-19.824l8.876,-0l-0,2.968l-5.656,-0l-0,5.264l5.236,-0l-0,2.744l-5.236,-0l-0,5.852l5.936,-0l-0,2.996l-9.156,-0Z"/>
    <path fill="#fff" d="M80.905,112.04l-3.08,-8.456l-1.876,-0l-0,8.456l-3.248,-0l-0,-19.824l5.656,-0c0.821,-0 1.577,0.107 2.268,0.322c0.691,0.214 1.283,0.555 1.778,1.022c0.495,0.466 0.882,1.054 1.162,1.764c0.28,0.709 0.42,1.558 0.42,2.548c-0,0.765 -0.098,1.442 -0.294,2.03c-0.196,0.588 -0.443,1.087 -0.742,1.498c-0.299,0.41 -0.63,0.742 -0.994,0.994c-0.364,0.252 -0.723,0.424 -1.078,0.518l3.556,9.128l-3.528,-0Zm-0.224,-14c-0,-0.598 -0.084,-1.092 -0.252,-1.484c-0.168,-0.392 -0.387,-0.7 -0.658,-0.924c-0.271,-0.224 -0.574,-0.383 -0.91,-0.476c-0.336,-0.094 -0.672,-0.14 -1.008,-0.14l-1.904,-0l-0,6.104l1.904,-0c0.821,-0 1.498,-0.257 2.03,-0.77c0.532,-0.514 0.798,-1.284 0.798,-2.31Z"/>
    <path fill="#fff" d="M95.129,96.052c-0.728,-0.878 -1.643,-1.316 -2.744,-1.316c-0.317,-0 -0.625,0.051 -0.924,0.154c-0.299,0.102 -0.569,0.266 -0.812,0.49c-0.243,0.224 -0.434,0.513 -0.574,0.868c-0.14,0.354 -0.21,0.774 -0.21,1.26c-0,0.84 0.252,1.488 0.756,1.946c0.504,0.457 1.167,0.891 1.988,1.302c0.485,0.242 0.98,0.522 1.484,0.84c0.504,0.317 0.961,0.7 1.372,1.148c0.411,0.448 0.747,0.98 1.008,1.596c0.261,0.616 0.392,1.344 0.392,2.184c-0,0.97 -0.154,1.829 -0.462,2.576c-0.308,0.746 -0.719,1.376 -1.232,1.89c-0.513,0.513 -1.115,0.9 -1.806,1.162c-0.691,0.261 -1.419,0.392 -2.184,0.392c-1.101,-0 -2.119,-0.215 -3.052,-0.644c-0.933,-0.43 -1.68,-0.971 -2.24,-1.624l1.82,-2.464c0.429,0.522 0.947,0.933 1.554,1.232c0.607,0.298 1.227,0.448 1.862,0.448c0.709,-0 1.297,-0.243 1.764,-0.728c0.467,-0.486 0.7,-1.167 0.7,-2.044c-0,-0.859 -0.28,-1.54 -0.84,-2.044c-0.56,-0.504 -1.269,-0.971 -2.128,-1.4c-0.541,-0.262 -1.05,-0.551 -1.526,-0.868c-0.476,-0.318 -0.896,-0.696 -1.26,-1.134c-0.364,-0.439 -0.653,-0.952 -0.868,-1.54c-0.215,-0.588 -0.322,-1.293 -0.322,-2.114c-0,-1.027 0.163,-1.909 0.49,-2.646c0.327,-0.738 0.756,-1.349 1.288,-1.834c0.532,-0.486 1.134,-0.845 1.806,-1.078c0.672,-0.234 1.353,-0.35 2.044,-0.35c1.008,-0 1.909,0.163 2.702,0.49c0.793,0.326 1.461,0.807 2.002,1.442l-1.848,2.408Z"/>
    <path fill="#fff" d="M105.153,95.072l-0,16.968l-3.304,-0l-0,-16.968l-3.724,-0l-0,-2.856l10.752,-0l-0,2.856l-3.724,-0Z"/>
    <path fill="#fff" d="M119.713,112.04l-0.98,-4.2l-5.208,-0l-1.008,4.2l-3.36,-0l4.928,-19.824l4.284,-0l4.844,19.824l-3.5,-0Zm-3.5,-16.66l-0.112,-0l-2.156,9.828l4.368,-0l-2.1,-9.828Z"/>
    <path fill="#fff" d="M134.245,112.04l-5.628,-14l-0.084,-0l0.056,14l-3.024,-0l-0,-19.824l3.836,-0l5.572,14.084l0.084,-0l-0.028,-14.084l2.912,-0l-0,19.824l-3.696,-0Z"/>
    <path fill="#fff" d="M154.993,102.156c-0,3.136 -0.658,5.567 -1.974,7.294c-1.316,1.726 -3.253,2.59 -5.81,2.59l-4.956,-0l-0,-19.824l4.984,-0c2.539,-0 4.466,0.872 5.782,2.618c1.316,1.745 1.974,4.186 1.974,7.322Zm-3.36,-0c-0,-1.176 -0.107,-2.203 -0.322,-3.08c-0.215,-0.878 -0.518,-1.606 -0.91,-2.184c-0.392,-0.579 -0.859,-1.013 -1.4,-1.302c-0.541,-0.29 -1.129,-0.434 -1.764,-0.434l-1.596,-0l-0,13.944l1.596,-0c0.635,-0 1.223,-0.145 1.764,-0.434c0.541,-0.29 1.008,-0.724 1.4,-1.302c0.392,-0.579 0.695,-1.302 0.91,-2.17c0.215,-0.868 0.322,-1.881 0.322,-3.038Z"/>
    <path fill="#fff" d="M158.465 92.216H161.825V112.04H158.465z"/>
    <path fill="#fff" d="M174.817,112.04l-5.628,-14l-0.084,-0l0.056,14l-3.024,-0l-0,-19.824l3.836,-0l5.572,14.084l0.084,-0l-0.028,-14.084l2.912,-0l-0,19.824l-3.696,-0Z"/>
    <path fill="#fff" d="M194.613,110.836c-0.597,0.485 -1.311,0.877 -2.142,1.176c-0.831,0.298 -1.825,0.448 -2.982,0.448c-1.176,-0 -2.231,-0.248 -3.164,-0.742c-0.933,-0.495 -1.722,-1.2 -2.366,-2.114c-0.644,-0.915 -1.139,-2.007 -1.484,-3.276c-0.345,-1.27 -0.518,-2.679 -0.518,-4.228c-0,-1.512 0.168,-2.903 0.504,-4.172c0.336,-1.27 0.821,-2.366 1.456,-3.29c0.635,-0.924 1.4,-1.643 2.296,-2.156c0.896,-0.514 1.904,-0.77 3.024,-0.77c1.176,-0 2.193,0.21 3.052,0.63c0.859,0.42 1.559,1.012 2.1,1.778l-1.932,2.352c-0.747,-1.083 -1.755,-1.624 -3.024,-1.624c-0.691,-0 -1.293,0.196 -1.806,0.588c-0.513,0.392 -0.938,0.919 -1.274,1.582c-0.336,0.662 -0.588,1.432 -0.756,2.31c-0.168,0.877 -0.252,1.801 -0.252,2.772c-0,1.008 0.084,1.955 0.252,2.842c0.168,0.886 0.42,1.661 0.756,2.324c0.336,0.662 0.761,1.18 1.274,1.554c0.513,0.373 1.125,0.56 1.834,0.56c0.448,-0 0.854,-0.052 1.218,-0.154c0.364,-0.103 0.658,-0.238 0.882,-0.406l-0,-5.124l-2.408,-0l-0,-2.912l5.46,-0l-0,10.052Z"/>
  </g>
</svg>
