<svg xmlns="http://www.w3.org/2000/svg" xml:space="preserve" fill-rule="evenodd" stroke-linejoin="round" stroke-miterlimit="2" clip-rule="evenodd" viewBox="0 0 761 761">
  <path fill="#e6e6e6" d="M760.567,380.284c0,210.025 -170.259,380.284 -380.284,380.284c-210.024,-0 -380.283,-170.259 -380.283,-380.284c0,-210.025 170.259,-380.284 380.283,-380.284c210.025,0 380.284,170.259 380.284,380.284Zm-92.571,0c0,-158.9 -128.813,-287.713 -287.713,-287.713c-158.899,0 -287.712,128.813 -287.712,287.713c0,158.9 128.813,287.713 287.712,287.713c158.9,-0 287.713,-128.813 287.713,-287.713Z"/>
  <path fill="#dc1931" fill-rule="nonzero" d="M62.568,264.07l8.555,3.161l2.676,-7.242l2.926,1.082l-2.675,7.241l12.006,4.437l-1.248,3.377l-26.564,-9.816l4.131,-11.181l3.077,1.136l-2.884,7.805Zm37.152,-23.332l-6.686,-1.396l-3.509,7.411l5.299,4.324l-1.558,3.29l-22.548,-18.555l2.037,-4.302l28.574,5.83l-1.609,3.398Zm-24.938,-5.657l-0.069,0.145l12.45,9.878l3.099,-6.543l-15.48,-3.48Zm38.961,-25.471c0.591,1.193 0.889,2.445 0.896,3.755c0.008,1.311 -0.4,2.652 -1.223,4.024c-0.809,1.349 -1.856,2.369 -3.141,3.06c-1.285,0.691 -2.719,1.06 -4.301,1.106c-1.583,0.046 -3.262,-0.2 -5.039,-0.737c-1.777,-0.537 -3.58,-1.354 -5.41,-2.451c-1.829,-1.097 -3.402,-2.312 -4.717,-3.645c-1.315,-1.333 -2.316,-2.71 -3.002,-4.132c-0.686,-1.422 -1.031,-2.857 -1.033,-4.305c-0.003,-1.447 0.394,-2.834 1.189,-4.161c0.741,-1.234 1.66,-2.223 2.757,-2.964c1.097,-0.741 2.337,-1.148 3.718,-1.222l0.94,3.176c-1.033,0.065 -1.926,0.322 -2.678,0.773c-0.753,0.45 -1.355,1.053 -1.807,1.808c-0.563,0.937 -0.787,1.907 -0.672,2.909c0.114,1.001 0.484,1.992 1.108,2.973c0.625,0.981 1.469,1.946 2.532,2.894c1.064,0.949 2.27,1.828 3.62,2.637c1.349,0.809 2.687,1.456 4.013,1.941c1.327,0.484 2.579,0.769 3.756,0.853c1.178,0.084 2.239,-0.065 3.183,-0.447c0.944,-0.382 1.698,-1.042 2.26,-1.979c0.507,-0.847 0.728,-1.733 0.661,-2.659c-0.066,-0.926 -0.314,-1.782 -0.745,-2.569l3.135,-0.638Zm13.188,-29.95c1.152,0.864 2.141,1.79 2.968,2.777c0.826,0.987 1.418,2.031 1.775,3.132c0.357,1.102 0.43,2.248 0.219,3.44c-0.211,1.192 -0.789,2.417 -1.733,3.676c-0.944,1.258 -1.951,2.145 -3.02,2.659c-1.07,0.514 -2.183,0.754 -3.341,0.719c-1.157,-0.035 -2.321,-0.316 -3.491,-0.845c-1.171,-0.528 -2.332,-1.224 -3.484,-2.088l-14.877,-11.164l2.16,-2.879l14.59,10.947c0.768,0.576 1.553,1.074 2.355,1.493c0.803,0.419 1.59,0.692 2.36,0.82c0.771,0.128 1.51,0.066 2.216,-0.187c0.707,-0.253 1.348,-0.764 1.925,-1.532c0.576,-0.768 0.883,-1.521 0.92,-2.26c0.038,-0.738 -0.113,-1.46 -0.451,-2.164c-0.339,-0.704 -0.821,-1.383 -1.448,-2.036c-0.626,-0.654 -1.324,-1.268 -2.091,-1.845l-14.59,-10.947l2.161,-2.879l14.877,11.163Zm18.895,-7.281l-20.914,-19.095l2.427,-2.659l18.433,16.83l5.394,-5.908l2.482,2.266l-7.822,8.566Zm4.718,-40.763l17.211,18.462l-2.633,2.455l-17.211,-18.462l-3.95,3.682l-2.1,-2.252l10.532,-9.82l2.101,2.253l-3.95,3.682Zm31.08,-8.047l6.97,8.92l-2.837,2.216l-6.97,-8.92l-16.013,-9.062l3.089,-2.413l12.093,7.455l-4.213,-13.612l3.026,-2.364l4.855,17.78Zm68.424,-43.77c-0.373,-0.913 -0.548,-1.836 -0.526,-2.767c0.023,-0.931 0.21,-1.814 0.56,-2.648c0.351,-0.835 0.85,-1.586 1.499,-2.255c0.649,-0.668 1.43,-1.189 2.343,-1.562c0.913,-0.373 1.836,-0.548 2.767,-0.525c0.931,0.022 1.814,0.209 2.648,0.559c0.835,0.351 1.586,0.85 2.255,1.499c0.668,0.649 1.189,1.43 1.562,2.343c0.373,0.914 0.548,1.836 0.525,2.767c-0.022,0.931 -0.209,1.814 -0.559,2.648c-0.351,0.835 -0.85,1.586 -1.499,2.255c-0.649,0.668 -1.43,1.189 -2.343,1.562c-0.914,0.373 -1.836,0.548 -2.767,0.526c-0.931,-0.023 -1.814,-0.21 -2.648,-0.56c-0.835,-0.351 -1.586,-0.85 -2.255,-1.499c-0.668,-0.649 -1.189,-1.43 -1.562,-2.343Zm102.911,-19.285c0.138,1.273 0.063,2.441 -0.224,3.505c-0.287,1.064 -0.731,1.977 -1.333,2.739c-0.601,0.763 -1.345,1.38 -2.233,1.852c-0.888,0.471 -1.862,0.765 -2.922,0.88c-1.432,0.155 -2.823,0.004 -4.173,-0.454c-1.351,-0.457 -2.464,-1.134 -3.339,-2.032l1.828,-2.813c0.696,0.729 1.526,1.27 2.489,1.621c0.963,0.352 1.909,0.477 2.837,0.377c1.193,-0.129 2.131,-0.633 2.814,-1.512c0.682,-0.879 0.942,-2.074 0.778,-3.585c-0.078,-0.716 -0.265,-1.332 -0.563,-1.85c-0.297,-0.517 -0.682,-0.972 -1.153,-1.364c-0.472,-0.391 -0.999,-0.736 -1.581,-1.035c-0.582,-0.299 -1.209,-0.573 -1.879,-0.823c-0.809,-0.288 -1.577,-0.627 -2.303,-1.018c-0.727,-0.39 -1.388,-0.862 -1.984,-1.414c-0.597,-0.552 -1.092,-1.23 -1.488,-2.032c-0.395,-0.802 -0.655,-1.773 -0.778,-2.913c-0.147,-1.352 -0.062,-2.555 0.253,-3.608c0.315,-1.053 0.788,-1.95 1.418,-2.688c0.631,-0.739 1.38,-1.317 2.247,-1.733c0.867,-0.415 1.764,-0.673 2.692,-0.774c1.352,-0.146 2.59,-0.053 3.712,0.282c1.123,0.334 2.091,0.913 2.904,1.737l-1.872,2.778c-1.151,-1.217 -2.574,-1.733 -4.271,-1.549c-0.504,0.055 -0.992,0.195 -1.463,0.42c-0.472,0.226 -0.886,0.552 -1.242,0.979c-0.356,0.428 -0.622,0.946 -0.797,1.555c-0.176,0.61 -0.219,1.325 -0.13,2.147c0.078,0.716 0.257,1.32 0.538,1.812c0.282,0.493 0.637,0.924 1.066,1.293c0.429,0.369 0.913,0.693 1.453,0.969c0.539,0.277 1.117,0.53 1.731,0.758c0.783,0.291 1.557,0.63 2.323,1.016c0.766,0.386 1.476,0.866 2.128,1.439c0.652,0.573 1.204,1.271 1.655,2.094c0.451,0.823 0.739,1.804 0.862,2.944Zm22.114,-18.771l0.52,25.234l-3.599,0.074l-0.521,-25.234l-5.398,0.111l-0.064,-3.079l14.397,-0.297l0.064,3.079l-5.399,0.112Zm37.454,17.01c-0.108,1.436 -0.354,2.768 -0.741,3.996c-0.386,1.228 -0.947,2.289 -1.682,3.183c-0.736,0.894 -1.662,1.574 -2.78,2.038c-1.118,0.465 -2.461,0.638 -4.03,0.521c-1.569,-0.118 -2.858,-0.489 -3.868,-1.112c-1.009,-0.624 -1.811,-1.433 -2.405,-2.427c-0.595,-0.994 -0.984,-2.126 -1.17,-3.397c-0.186,-1.27 -0.225,-2.624 -0.117,-4.06l1.389,-18.548l3.59,0.269l-1.362,18.189c-0.072,0.957 -0.068,1.887 0.012,2.789c0.079,0.902 0.272,1.712 0.58,2.43c0.307,0.718 0.757,1.307 1.352,1.766c0.594,0.459 1.369,0.724 2.327,0.796c0.957,0.071 1.757,-0.076 2.399,-0.442c0.643,-0.367 1.169,-0.882 1.58,-1.547c0.411,-0.664 0.723,-1.436 0.936,-2.316c0.213,-0.88 0.355,-1.799 0.427,-2.756l1.362,-18.189l3.59,0.269l-1.389,18.548Zm35.65,1.125c-0.83,4.511 -2.382,7.784 -4.654,9.82c-2.273,2.035 -5.062,2.749 -8.366,2.141l-6.373,-1.173l5.125,-27.852l6.413,1.18c3.304,0.608 5.648,2.273 7.032,4.995c1.383,2.722 1.658,6.352 0.823,10.889Zm-3.541,-0.652c0.338,-1.836 0.456,-3.468 0.354,-4.896c-0.101,-1.429 -0.377,-2.646 -0.827,-3.65c-0.45,-1.005 -1.058,-1.808 -1.825,-2.41c-0.767,-0.603 -1.633,-0.993 -2.6,-1.17l-2.86,-0.527l-3.982,21.637l2.861,0.526c0.966,0.178 1.915,0.122 2.846,-0.167c0.931,-0.29 1.785,-0.824 2.563,-1.603c0.778,-0.779 1.468,-1.811 2.069,-3.097c0.601,-1.285 1.068,-2.833 1.401,-4.643Zm16.854,18.463l7.823,-27.218l11.456,3.292l-0.884,3.076l-8.112,-2.332l-2.463,8.573l7.573,2.177l-0.829,2.883l-7.573,-2.176l-2.751,9.572l8.496,2.442l-0.895,3.114l-11.841,-3.403Zm38.672,13.138l-0.289,-23.746l-0.112,-0.045l-8.111,20.407l-3.086,-1.226l10.461,-26.317l4.015,1.595l0.162,23.74l0.112,0.044l8.127,-20.444l3.085,1.226l-10.461,26.317l-3.903,-1.551Zm36.556,-10.784l-11.518,22.459l-3.203,-1.643l11.518,-22.459l-4.805,-2.464l1.405,-2.741l12.814,6.571l-1.406,2.741l-4.805,-2.464Zm35.976,43.379c-0.744,1.041 -1.578,1.863 -2.5,2.466c-0.923,0.602 -1.862,0.988 -2.818,1.157c-0.957,0.168 -1.923,0.133 -2.9,-0.106c-0.976,-0.239 -1.898,-0.669 -2.766,-1.289c-1.171,-0.837 -2.109,-1.876 -2.812,-3.116c-0.703,-1.24 -1.083,-2.487 -1.138,-3.739l3.237,-0.882c0.033,1.007 0.293,1.963 0.777,2.866c0.485,0.904 1.107,1.628 1.867,2.17c0.976,0.698 2.011,0.946 3.106,0.745c1.094,-0.201 2.083,-0.92 2.967,-2.156c0.419,-0.586 0.689,-1.171 0.812,-1.755c0.123,-0.585 0.138,-1.18 0.047,-1.786c-0.091,-0.606 -0.255,-1.214 -0.49,-1.825c-0.235,-0.611 -0.52,-1.233 -0.855,-1.865c-0.412,-0.754 -0.759,-1.518 -1.041,-2.293c-0.282,-0.775 -0.461,-1.567 -0.538,-2.376c-0.078,-0.809 0.003,-1.645 0.242,-2.506c0.239,-0.862 0.692,-1.759 1.359,-2.692c0.791,-1.107 1.654,-1.948 2.591,-2.524c0.936,-0.577 1.885,-0.93 2.848,-1.062c0.963,-0.131 1.906,-0.064 2.829,0.203c0.924,0.267 1.766,0.672 2.525,1.215c1.106,0.791 1.967,1.684 2.582,2.681c0.615,0.997 0.952,2.074 1.01,3.23l-3.245,0.827c-0.05,-1.674 -0.768,-3.008 -2.157,-4c-0.412,-0.295 -0.869,-0.515 -1.371,-0.661c-0.502,-0.146 -1.029,-0.178 -1.579,-0.096c-0.55,0.082 -1.093,0.292 -1.63,0.63c-0.536,0.338 -1.045,0.843 -1.526,1.515c-0.418,0.586 -0.687,1.156 -0.805,1.711c-0.117,0.555 -0.139,1.113 -0.065,1.674c0.074,0.561 0.22,1.125 0.439,1.691c0.218,0.565 0.481,1.138 0.787,1.718c0.391,0.738 0.743,1.506 1.057,2.304c0.315,0.799 0.525,1.629 0.63,2.491c0.105,0.861 0.052,1.749 -0.159,2.664c-0.211,0.914 -0.65,1.838 -1.317,2.771Zm27.054,19.661c-0.95,1.082 -1.95,1.996 -2.997,2.744c-1.048,0.748 -2.135,1.257 -3.261,1.528c-1.125,0.271 -2.274,0.255 -3.446,-0.047c-1.172,-0.303 -2.349,-0.973 -3.531,-2.012c-1.182,-1.039 -1.988,-2.111 -2.418,-3.217c-0.43,-1.106 -0.583,-2.234 -0.459,-3.386c0.124,-1.151 0.495,-2.29 1.112,-3.416c0.617,-1.126 1.401,-2.23 2.352,-3.311l12.279,-13.971l2.704,2.377l-12.042,13.7c-0.633,0.721 -1.19,1.465 -1.67,2.233c-0.479,0.768 -0.813,1.531 -1,2.289c-0.187,0.759 -0.182,1.5 0.016,2.224c0.197,0.725 0.657,1.404 1.378,2.037c0.721,0.634 1.448,0.998 2.182,1.093c0.733,0.094 1.464,-0 2.192,-0.283c0.729,-0.283 1.443,-0.712 2.142,-1.286c0.7,-0.574 1.367,-1.222 2.001,-1.943l12.042,-13.7l2.704,2.377l-12.28,13.97Zm30.724,16.289c-0.998,0.925 -2.014,1.594 -3.049,2.007c-1.034,0.414 -2.032,0.602 -2.993,0.566c-0.961,-0.037 -1.863,-0.255 -2.707,-0.655c-0.843,-0.4 -1.591,-0.952 -2.244,-1.656l-2.61,-2.816l-8.889,8.239l-2.447,-2.641l20.77,-19.251l4.881,5.266c0.582,0.627 1.084,1.356 1.507,2.185c0.423,0.829 0.655,1.717 0.696,2.663c0.041,0.947 -0.156,1.941 -0.591,2.982c-0.435,1.041 -1.21,2.078 -2.324,3.111Zm-2.477,-2.613c1.252,-1.16 1.896,-2.299 1.932,-3.418c0.036,-1.118 -0.379,-2.144 -1.244,-3.078l-2.191,-2.364l-7.423,6.879l2.191,2.364c0.866,0.934 1.887,1.398 3.063,1.393c1.177,-0.006 2.401,-0.598 3.672,-1.776Zm22.646,27.86c-1.082,0.824 -2.158,1.392 -3.228,1.704c-1.07,0.311 -2.081,0.402 -3.034,0.273c-0.953,-0.129 -1.83,-0.433 -2.63,-0.913c-0.801,-0.48 -1.492,-1.101 -2.074,-1.865l-2.326,-3.056l-9.644,7.342l-2.18,-2.865l22.534,-17.154l4.348,5.713c0.519,0.681 0.948,1.454 1.289,2.321c0.341,0.866 0.486,1.772 0.436,2.718c-0.051,0.946 -0.343,1.916 -0.877,2.91c-0.533,0.994 -1.404,1.952 -2.614,2.872Zm-2.212,-2.84c1.358,-1.034 2.109,-2.105 2.252,-3.215c0.144,-1.11 -0.169,-2.171 -0.94,-3.184l-1.952,-2.564l-8.053,6.129l1.952,2.565c0.772,1.013 1.743,1.573 2.914,1.682c1.172,0.108 2.448,-0.363 3.827,-1.413Zm16.395,36.163c-1.89,1.153 -3.729,2.017 -5.517,2.593c-1.789,0.575 -3.46,0.845 -5.013,0.808c-1.553,-0.037 -2.945,-0.374 -4.178,-1.012c-1.233,-0.638 -2.245,-1.606 -3.036,-2.904c-0.792,-1.298 -1.193,-2.646 -1.203,-4.046c-0.01,-1.399 0.324,-2.797 1.002,-4.195c0.678,-1.398 1.682,-2.76 3.013,-4.087c1.33,-1.326 2.94,-2.566 4.829,-3.719c1.89,-1.152 3.726,-2.022 5.507,-2.609c1.782,-0.587 3.44,-0.864 4.975,-0.832c1.534,0.032 2.919,0.382 4.154,1.05c1.235,0.668 2.256,1.662 3.061,2.983c0.792,1.297 1.195,2.637 1.209,4.018c0.015,1.381 -0.311,2.767 -0.978,4.157c-0.667,1.391 -1.665,2.749 -2.995,4.076c-1.331,1.327 -2.941,2.567 -4.83,3.719Zm-1.979,-3.244c1.366,-0.833 2.586,-1.726 3.661,-2.678c1.075,-0.952 1.927,-1.91 2.558,-2.872c0.631,-0.963 1.012,-1.914 1.142,-2.852c0.131,-0.939 -0.054,-1.818 -0.554,-2.637c-0.514,-0.843 -1.221,-1.426 -2.122,-1.751c-0.901,-0.325 -1.924,-0.428 -3.069,-0.307c-1.145,0.12 -2.383,0.446 -3.714,0.977c-1.332,0.531 -2.681,1.213 -4.047,2.046c-1.366,0.834 -2.589,1.721 -3.671,2.662c-1.082,0.94 -1.938,1.892 -2.569,2.855c-0.631,0.963 -1.008,1.919 -1.132,2.869c-0.123,0.95 0.072,1.846 0.586,2.688c0.5,0.82 1.197,1.386 2.091,1.7c0.894,0.314 1.914,0.41 3.058,0.29c1.145,-0.121 2.387,-0.441 3.725,-0.96c1.339,-0.52 2.691,-1.197 4.057,-2.03Zm2.455,35.522l9.353,-9.763l-1.409,-2.962l-11.414,5.429l-1.512,-3.179l25.575,-12.163l3.152,6.628c0.448,0.941 0.744,1.889 0.887,2.842c0.143,0.954 0.087,1.876 -0.168,2.767c-0.255,0.891 -0.742,1.73 -1.461,2.516c-0.719,0.786 -1.704,1.477 -2.957,2.072c-1.035,0.493 -2.002,0.788 -2.9,0.887c-0.898,0.098 -1.72,0.063 -2.464,-0.106c-0.745,-0.169 -1.395,-0.434 -1.951,-0.794c-0.555,-0.361 -0.995,-0.759 -1.321,-1.195l-9.744,10.525l-1.666,-3.504Zm18.374,-9.004c0.871,-0.414 1.527,-0.873 1.968,-1.379c0.442,-0.505 0.74,-1.031 0.895,-1.577c0.156,-0.546 0.179,-1.104 0.072,-1.673c-0.108,-0.569 -0.282,-1.106 -0.522,-1.612l-1.392,-2.926l-8.922,4.243l1.426,2.999c0.584,1.228 1.447,2.028 2.587,2.401c1.141,0.373 2.437,0.214 3.888,-0.476Zm14.771,23.465l-23.67,8.763l-1.25,-3.376l23.67,-8.763l-1.875,-5.064l2.889,-1.07l4.999,13.505l-2.889,1.069l-1.874,-5.064Zm7.652,81.744c0.984,-0.081 1.916,0.03 2.797,0.332c0.881,0.302 1.667,0.745 2.357,1.33c0.691,0.586 1.257,1.288 1.699,2.108c0.442,0.82 0.704,1.721 0.785,2.705c0.081,0.983 -0.029,1.915 -0.331,2.796c-0.302,0.881 -0.746,1.667 -1.331,2.358c-0.585,0.69 -1.288,1.256 -2.108,1.698c-0.819,0.443 -1.721,0.704 -2.704,0.785c-0.984,0.081 -1.916,-0.029 -2.797,-0.331c-0.881,-0.302 -1.667,-0.746 -2.357,-1.331c-0.691,-0.585 -1.257,-1.288 -1.699,-2.107c-0.442,-0.82 -0.704,-1.722 -0.785,-2.705c-0.081,-0.983 0.029,-1.916 0.331,-2.797c0.302,-0.881 0.746,-1.667 1.331,-2.357c0.585,-0.69 1.288,-1.257 2.108,-1.699c0.819,-0.442 1.721,-0.704 2.704,-0.785Zm-12.691,103.924c-1.255,-0.253 -2.346,-0.677 -3.273,-1.272c-0.927,-0.595 -1.663,-1.295 -2.209,-2.099c-0.545,-0.803 -0.908,-1.7 -1.089,-2.688c-0.182,-0.989 -0.167,-2.006 0.044,-3.052c0.285,-1.411 0.85,-2.692 1.694,-3.841c0.844,-1.149 1.826,-2.005 2.946,-2.568l2.129,2.593c-0.905,0.443 -1.671,1.07 -2.298,1.882c-0.626,0.813 -1.032,1.676 -1.216,2.591c-0.238,1.176 -0.041,2.223 0.59,3.139c0.632,0.916 1.692,1.525 3.182,1.825c0.706,0.143 1.351,0.15 1.934,0.023c0.583,-0.127 1.133,-0.356 1.648,-0.687c0.516,-0.331 1.005,-0.729 1.466,-1.194c0.461,-0.465 0.911,-0.979 1.352,-1.543c0.518,-0.684 1.074,-1.313 1.666,-1.888c0.592,-0.574 1.241,-1.062 1.948,-1.463c0.707,-0.402 1.502,-0.67 2.386,-0.804c0.884,-0.135 1.888,-0.088 3.012,0.138c1.333,0.269 2.454,0.713 3.363,1.332c0.909,0.619 1.62,1.34 2.134,2.165c0.514,0.824 0.838,1.713 0.972,2.665c0.135,0.952 0.109,1.885 -0.075,2.8c-0.269,1.333 -0.733,2.484 -1.391,3.453c-0.658,0.969 -1.502,1.717 -2.534,2.244l-2.082,-2.624c1.508,-0.73 2.43,-1.931 2.768,-3.604c0.1,-0.497 0.114,-1.004 0.042,-1.522c-0.073,-0.518 -0.259,-1.011 -0.559,-1.479c-0.3,-0.469 -0.713,-0.879 -1.241,-1.23c-0.528,-0.352 -1.196,-0.609 -2.007,-0.773c-0.706,-0.142 -1.336,-0.154 -1.89,-0.034c-0.555,0.119 -1.073,0.327 -1.555,0.625c-0.481,0.297 -0.936,0.661 -1.363,1.092c-0.427,0.43 -0.842,0.904 -1.245,1.421c-0.514,0.658 -1.071,1.294 -1.671,1.908c-0.6,0.613 -1.271,1.144 -2.015,1.592c-0.743,0.449 -1.575,0.764 -2.496,0.945c-0.921,0.182 -1.943,0.159 -3.067,-0.068Zm11.232,26.751l-24.222,-7.097l1.012,-3.454l24.222,7.096l1.519,-5.182l2.955,0.866l-4.048,13.819l-2.956,-0.866l1.518,-5.182Zm-34.648,22.516l6.768,0.92l2.978,-7.64l-5.591,-3.939l1.321,-3.392l23.802,16.918l-1.729,4.435l-28.914,-3.799l1.365,-3.503Zm25.276,3.883l0.058,-0.149l-13.116,-8.975l-2.629,6.745l15.687,2.379Zm-12.08,27.528l-8.153,-4.087l-3.46,6.901l-2.789,-1.398l3.46,-6.901l-11.442,-5.737l1.613,-3.218l25.317,12.692l-5.343,10.656l-2.932,-1.47l3.729,-7.438Zm-14.421,26.093l-7.759,-4.793l-4.057,6.568l-2.655,-1.64l4.058,-6.568l-10.89,-6.727l1.892,-3.062l24.094,14.883l-6.265,10.141l-2.79,-1.724l4.372,-7.078Zm-62.684,60.44c0.664,0.73 1.145,1.536 1.443,2.418c0.298,0.883 0.425,1.776 0.382,2.68c-0.042,0.904 -0.254,1.781 -0.634,2.632c-0.38,0.85 -0.935,1.607 -1.665,2.271c-0.73,0.664 -1.536,1.145 -2.418,1.443c-0.883,0.298 -1.776,0.426 -2.68,0.383c-0.904,-0.043 -1.781,-0.254 -2.632,-0.634c-0.85,-0.38 -1.607,-0.935 -2.271,-1.665c-0.664,-0.73 -1.145,-1.536 -1.443,-2.419c-0.298,-0.882 -0.426,-1.775 -0.383,-2.68c0.043,-0.904 0.254,-1.781 0.634,-2.631c0.38,-0.851 0.935,-1.608 1.665,-2.272c0.73,-0.664 1.536,-1.145 2.419,-1.443c0.882,-0.298 1.775,-0.425 2.68,-0.382c0.904,0.042 1.781,0.254 2.631,0.634c0.851,0.38 1.608,0.935 2.272,1.665Zm-94.561,50.646c0.152,-1.322 0.581,-2.536 1.287,-3.64c0.706,-1.104 1.777,-2.008 3.213,-2.713c1.412,-0.694 2.845,-0.982 4.3,-0.864c1.454,0.118 2.858,0.587 4.211,1.408c1.354,0.821 2.631,1.939 3.831,3.355c1.2,1.416 2.27,3.082 3.211,4.997c0.94,1.915 1.6,3.789 1.981,5.622c0.38,1.834 0.472,3.534 0.276,5.101c-0.197,1.566 -0.687,2.958 -1.471,4.175c-0.784,1.217 -1.87,2.166 -3.258,2.848c-1.293,0.634 -2.601,0.965 -3.925,0.991c-1.324,0.026 -2.586,-0.305 -3.785,-0.994l0.935,-3.177c0.903,0.507 1.792,0.776 2.669,0.806c0.876,0.031 1.709,-0.148 2.499,-0.536c0.981,-0.482 1.696,-1.174 2.144,-2.078c0.448,-0.903 0.676,-1.936 0.684,-3.098c0.009,-1.163 -0.176,-2.432 -0.554,-3.806c-0.377,-1.374 -0.913,-2.767 -1.606,-4.18c-0.694,-1.412 -1.466,-2.682 -2.316,-3.809c-0.851,-1.127 -1.747,-2.046 -2.69,-2.756c-0.943,-0.711 -1.915,-1.162 -2.916,-1.354c-1,-0.192 -1.991,-0.047 -2.972,0.435c-0.886,0.434 -1.552,1.059 -1.999,1.872c-0.448,0.814 -0.704,1.668 -0.77,2.562l-2.979,-1.167Zm-26.916,22.641c-0.768,-2.076 -1.263,-4.046 -1.484,-5.912c-0.221,-1.866 -0.165,-3.558 0.17,-5.074c0.334,-1.517 0.933,-2.819 1.796,-3.906c0.863,-1.088 2.007,-1.895 3.433,-2.422c1.425,-0.528 2.826,-0.662 4.201,-0.403c1.375,0.259 2.684,0.855 3.925,1.789c1.241,0.934 2.385,2.182 3.431,3.742c1.047,1.56 1.954,3.379 2.722,5.454c0.768,2.076 1.269,4.045 1.503,5.906c0.233,1.861 0.187,3.542 -0.139,5.042c-0.327,1.499 -0.937,2.791 -1.829,3.875c-0.893,1.084 -2.065,1.894 -3.515,2.431c-1.426,0.527 -2.818,0.665 -4.176,0.414c-1.358,-0.251 -2.655,-0.837 -3.892,-1.758c-1.237,-0.922 -2.378,-2.163 -3.425,-3.723c-1.046,-1.561 -1.953,-3.379 -2.721,-5.455Zm3.563,-1.318c0.556,1.5 1.197,2.869 1.925,4.107c0.728,1.238 1.504,2.258 2.328,3.063c0.823,0.804 1.683,1.36 2.579,1.668c0.896,0.309 1.794,0.296 2.694,-0.037c0.926,-0.342 1.634,-0.924 2.127,-1.746c0.492,-0.822 0.789,-1.806 0.89,-2.953c0.102,-1.146 0.02,-2.424 -0.245,-3.833c-0.265,-1.409 -0.676,-2.863 -1.231,-4.364c-0.555,-1.501 -1.19,-2.872 -1.906,-4.114c-0.715,-1.242 -1.485,-2.266 -2.308,-3.07c-0.824,-0.804 -1.69,-1.358 -2.598,-1.662c-0.909,-0.303 -1.826,-0.284 -2.751,0.059c-0.901,0.333 -1.59,0.908 -2.07,1.725c-0.48,0.817 -0.77,1.799 -0.872,2.946c-0.102,1.146 -0.026,2.426 0.226,3.84c0.253,1.413 0.657,2.87 1.212,4.371Zm-35.73,-4.316l3.202,6.033l7.942,-2.039l-0.063,-6.839l3.525,-0.906l0.148,29.201l-4.61,1.184l-13.785,-25.699l3.641,-0.935Zm11.594,22.793l0.155,-0.04l-0.364,-15.889l-7.012,1.801l7.221,14.128Zm-44.538,-13.664c0.541,-1.217 1.312,-2.247 2.315,-3.09c1.003,-0.844 2.295,-1.388 3.876,-1.632c1.555,-0.241 3.009,-0.088 4.361,0.458c1.353,0.547 2.553,1.413 3.6,2.6c1.048,1.188 1.933,2.636 2.656,4.345c0.723,1.71 1.248,3.619 1.574,5.727c0.326,2.108 0.397,4.094 0.214,5.958c-0.184,1.863 -0.604,3.513 -1.258,4.95c-0.655,1.437 -1.538,2.619 -2.649,3.547c-1.111,0.927 -2.431,1.509 -3.96,1.746c-1.423,0.22 -2.77,0.145 -4.042,-0.225c-1.271,-0.37 -2.377,-1.062 -3.316,-2.077l1.84,-2.754c0.711,0.754 1.479,1.276 2.307,1.566c0.827,0.29 1.676,0.368 2.546,0.233c1.08,-0.167 1.969,-0.615 2.665,-1.343c0.697,-0.729 1.223,-1.646 1.578,-2.754c0.355,-1.107 0.557,-2.373 0.606,-3.797c0.05,-1.424 -0.046,-2.914 -0.286,-4.469c-0.241,-1.555 -0.599,-2.997 -1.074,-4.326c-0.476,-1.33 -1.058,-2.475 -1.746,-3.434c-0.688,-0.959 -1.481,-1.68 -2.378,-2.162c-0.898,-0.481 -1.887,-0.639 -2.967,-0.472c-0.975,0.151 -1.798,0.548 -2.467,1.192c-0.67,0.643 -1.169,1.381 -1.499,2.215l-2.496,-2.002Zm-28.946,-0.851l0.636,13.064l9.868,-0.48l-0.636,-13.064l3.596,-0.175l1.376,28.286l-3.595,0.175l-0.586,-12.025l-9.868,0.48l0.585,12.025l-3.596,0.175l-1.376,-28.286l3.596,-0.175Zm-21.15,-0.021l-1.492,28.281l-11.904,-0.628l0.169,-3.195l8.428,0.444l0.47,-8.907l-7.869,-0.416l0.158,-2.995l7.869,0.415l0.525,-9.946l-8.828,-0.466l0.171,-3.236l12.303,0.649Zm-42.036,3.307c0.185,-1.267 0.549,-2.379 1.093,-3.338c0.544,-0.958 1.202,-1.731 1.975,-2.319c0.773,-0.588 1.648,-1 2.626,-1.234c0.977,-0.235 1.993,-0.276 3.049,-0.122c1.425,0.208 2.734,0.701 3.927,1.482c1.194,0.78 2.102,1.714 2.725,2.802l-2.473,2.267c-0.491,-0.88 -1.16,-1.611 -2.005,-2.192c-0.845,-0.581 -1.729,-0.939 -2.653,-1.074c-1.187,-0.173 -2.221,0.081 -3.102,0.761c-0.88,0.68 -1.43,1.772 -1.649,3.276c-0.104,0.713 -0.077,1.357 0.082,1.932c0.159,0.576 0.417,1.112 0.776,1.609c0.359,0.497 0.783,0.963 1.272,1.398c0.489,0.435 1.027,0.857 1.614,1.266c0.711,0.481 1.37,1.001 1.976,1.561c0.605,0.56 1.128,1.182 1.567,1.866c0.439,0.684 0.75,1.463 0.932,2.339c0.183,0.875 0.191,1.88 0.026,3.015c-0.196,1.346 -0.578,2.489 -1.147,3.43c-0.568,0.942 -1.25,1.691 -2.045,2.249c-0.796,0.558 -1.665,0.93 -2.608,1.115c-0.944,0.186 -1.877,0.212 -2.801,0.077c-1.345,-0.196 -2.52,-0.596 -3.523,-1.2c-1.004,-0.604 -1.796,-1.407 -2.378,-2.408l2.507,-2.222c0.81,1.466 2.06,2.321 3.749,2.567c0.501,0.074 1.008,0.06 1.521,-0.041c0.514,-0.1 0.996,-0.313 1.447,-0.638c0.452,-0.325 0.839,-0.76 1.161,-1.306c0.322,-0.546 0.543,-1.228 0.662,-2.046c0.104,-0.712 0.081,-1.342 -0.068,-1.889c-0.15,-0.548 -0.386,-1.054 -0.709,-1.518c-0.323,-0.465 -0.711,-0.899 -1.164,-1.302c-0.454,-0.403 -0.95,-0.792 -1.488,-1.167c-0.685,-0.477 -1.35,-0.998 -1.995,-1.564c-0.645,-0.565 -1.212,-1.207 -1.7,-1.925c-0.489,-0.718 -0.848,-1.531 -1.08,-2.441c-0.231,-0.91 -0.264,-1.932 -0.099,-3.066Zm-75.168,-15.07c-0.405,0.9 -0.952,1.662 -1.642,2.288c-0.69,0.625 -1.459,1.099 -2.305,1.42c-0.846,0.322 -1.734,0.478 -2.666,0.469c-0.931,-0.01 -1.847,-0.216 -2.747,-0.621c-0.9,-0.404 -1.663,-0.951 -2.288,-1.642c-0.625,-0.69 -1.099,-1.458 -1.42,-2.304c-0.322,-0.846 -0.478,-1.735 -0.469,-2.666c0.009,-0.932 0.216,-1.847 0.62,-2.747c0.405,-0.9 0.952,-1.663 1.642,-2.288c0.691,-0.626 1.459,-1.099 2.305,-1.421c0.846,-0.321 1.735,-0.477 2.666,-0.468c0.931,0.009 1.847,0.216 2.747,0.62c0.9,0.404 1.663,0.952 2.288,1.642c0.626,0.69 1.099,1.458 1.42,2.304c0.322,0.846 0.478,1.735 0.469,2.666c-0.009,0.932 -0.216,1.848 -0.62,2.748Zm-79.027,-66.243l-3.081,6.095l6.248,5.311l5.55,-3.998l2.773,2.357l-23.765,16.969l-3.627,-3.083l13.037,-26.086l2.865,2.435Zm-11.928,22.619l0.122,0.104l12.768,-9.464l-5.517,-4.689l-7.373,14.049Zm-23.665,-37.844c3.314,-3.171 6.488,-4.917 9.522,-5.237c3.034,-0.32 5.713,0.734 8.036,3.162l4.48,4.681l-20.46,19.581l-4.508,-4.711c-2.323,-2.428 -3.249,-5.15 -2.777,-8.166c0.472,-3.017 2.374,-6.12 5.707,-9.31Zm2.489,2.601c-1.348,1.29 -2.4,2.545 -3.154,3.762c-0.753,1.218 -1.242,2.366 -1.466,3.444c-0.223,1.078 -0.2,2.085 0.069,3.022c0.269,0.937 0.744,1.761 1.423,2.471l2.011,2.101l15.894,-15.211l-2.01,-2.101c-0.68,-0.71 -1.482,-1.22 -2.406,-1.53c-0.924,-0.31 -1.93,-0.378 -3.016,-0.202c-1.087,0.176 -2.25,0.609 -3.491,1.3c-1.24,0.69 -2.524,1.672 -3.854,2.944Zm-8.192,-31.667l2.851,3.662l-18.071,22.889l-2.432,-3.125l15.746,-19.103l-0.049,-0.063l-22.381,10.582l-2.359,-3.03l26.695,-11.812Zm-12.668,-17.764l-23.7,15.502l-1.971,-3.013l23.701,-15.502l1.97,3.013Zm-23.931,-25.773c1.124,-0.613 2.233,-0.989 3.325,-1.13c1.093,-0.14 2.107,-0.078 3.041,0.187c0.934,0.265 1.789,0.718 2.563,1.359c0.775,0.64 1.418,1.429 1.928,2.365c0.69,1.265 1.081,2.608 1.173,4.031c0.093,1.423 -0.109,2.71 -0.605,3.861l-3.298,-0.616c0.409,-0.922 0.592,-1.895 0.55,-2.92c-0.043,-1.025 -0.287,-1.947 -0.734,-2.766c-0.575,-1.054 -1.398,-1.728 -2.471,-2.024c-1.073,-0.296 -2.276,-0.08 -3.611,0.648c-0.632,0.344 -1.13,0.753 -1.495,1.225c-0.365,0.473 -0.639,1.002 -0.821,1.587c-0.182,0.585 -0.3,1.204 -0.354,1.856c-0.055,0.652 -0.069,1.336 -0.044,2.051c0.043,0.858 0.022,1.697 -0.062,2.517c-0.084,0.821 -0.268,1.612 -0.551,2.374c-0.283,0.762 -0.72,1.478 -1.311,2.15c-0.59,0.671 -1.389,1.281 -2.396,1.83c-1.194,0.652 -2.338,1.032 -3.432,1.143c-1.093,0.111 -2.102,0.015 -3.026,-0.286c-0.923,-0.301 -1.743,-0.773 -2.458,-1.416c-0.715,-0.643 -1.296,-1.374 -1.743,-2.193c-0.651,-1.194 -1.036,-2.374 -1.155,-3.539c-0.119,-1.165 0.047,-2.281 0.498,-3.347l3.282,0.67c-0.685,1.528 -0.62,3.042 0.197,4.54c0.243,0.445 0.559,0.842 0.947,1.192c0.388,0.351 0.848,0.609 1.379,0.775c0.531,0.166 1.111,0.214 1.741,0.143c0.63,-0.07 1.308,-0.303 2.034,-0.698c0.632,-0.345 1.122,-0.742 1.47,-1.19c0.348,-0.447 0.611,-0.94 0.789,-1.478c0.177,-0.537 0.291,-1.108 0.341,-1.712c0.051,-0.605 0.064,-1.235 0.041,-1.89c-0.03,-0.834 -0.013,-1.679 0.052,-2.535c0.065,-0.855 0.238,-1.694 0.519,-2.515c0.281,-0.822 0.716,-1.598 1.305,-2.329c0.588,-0.731 1.386,-1.371 2.392,-1.92Zm-20.589,-29.307c2.04,-0.859 3.987,-1.441 5.841,-1.745c1.854,-0.303 3.547,-0.322 5.077,-0.055c1.53,0.267 2.858,0.807 3.982,1.621c1.124,0.814 1.981,1.922 2.571,3.323c0.59,1.4 0.787,2.793 0.589,4.179c-0.198,1.385 -0.735,2.719 -1.614,4c-0.878,1.282 -2.073,2.48 -3.585,3.594c-1.513,1.115 -3.289,2.102 -5.329,2.961c-2.04,0.859 -3.984,1.447 -5.833,1.763c-1.849,0.316 -3.53,0.344 -5.043,0.085c-1.513,-0.26 -2.83,-0.812 -3.952,-1.656c-1.123,-0.843 -1.984,-1.978 -2.585,-3.403c-0.59,-1.401 -0.789,-2.786 -0.599,-4.153c0.191,-1.368 0.719,-2.69 1.584,-3.967c0.866,-1.276 2.055,-2.471 3.568,-3.586c1.512,-1.115 3.289,-2.102 5.328,-2.961Zm1.476,3.502c-1.475,0.621 -2.814,1.323 -4.018,2.105c-1.204,0.782 -2.19,1.602 -2.957,2.461c-0.767,0.858 -1.284,1.742 -1.552,2.651c-0.269,0.908 -0.216,1.805 0.156,2.69c0.383,0.909 0.996,1.591 1.839,2.046c0.843,0.455 1.839,0.708 2.989,0.759c1.15,0.051 2.423,-0.087 3.819,-0.415c1.395,-0.327 2.83,-0.802 4.305,-1.423c1.474,-0.621 2.816,-1.316 4.026,-2.086c1.209,-0.77 2.197,-1.584 2.964,-2.443c0.767,-0.858 1.282,-1.748 1.545,-2.669c0.263,-0.921 0.203,-1.836 -0.18,-2.745c-0.373,-0.885 -0.978,-1.549 -1.816,-1.992c-0.837,-0.443 -1.831,-0.689 -2.981,-0.74c-1.15,-0.051 -2.426,0.081 -3.826,0.396c-1.401,0.315 -2.839,0.784 -4.313,1.405Zm2.849,-35.493l-10.701,8.264l0.953,3.139l12.095,-3.671l1.022,3.368l-27.099,8.226l-2.132,-7.023c-0.303,-0.998 -0.454,-1.979 -0.454,-2.943c-0,-0.964 0.192,-1.868 0.577,-2.711c0.385,-0.844 0.992,-1.601 1.819,-2.271c0.828,-0.67 1.905,-1.207 3.232,-1.61c1.097,-0.333 2.097,-0.481 3,-0.445c0.903,0.036 1.71,0.193 2.421,0.471c0.711,0.278 1.315,0.636 1.81,1.075c0.496,0.439 0.872,0.899 1.129,1.378l11.201,-8.96l1.127,3.713Zm-19.509,6.173c-0.922,0.28 -1.639,0.637 -2.151,1.071c-0.512,0.434 -0.885,0.909 -1.12,1.426c-0.235,0.518 -0.341,1.065 -0.319,1.644c0.021,0.579 0.114,1.136 0.276,1.672l0.941,3.1l9.454,-2.87l-0.964,-3.176c-0.395,-1.302 -1.129,-2.222 -2.202,-2.76c-1.073,-0.538 -2.378,-0.574 -3.915,-0.107Zm4.82,-36.068c1.255,-0.253 2.425,-0.285 3.511,-0.096c1.085,0.189 2.035,0.549 2.849,1.078c0.814,0.53 1.496,1.215 2.047,2.056c0.55,0.841 0.931,1.785 1.142,2.83c0.284,1.412 0.26,2.811 -0.072,4.197c-0.333,1.387 -0.906,2.556 -1.72,3.51l-2.968,-1.565c0.663,-0.759 1.126,-1.635 1.388,-2.626c0.263,-0.991 0.302,-1.945 0.117,-2.86c-0.237,-1.176 -0.824,-2.064 -1.761,-2.664c-0.937,-0.6 -2.151,-0.75 -3.641,-0.449c-0.706,0.142 -1.303,0.385 -1.791,0.728c-0.489,0.344 -0.906,0.768 -1.253,1.273c-0.347,0.505 -0.643,1.061 -0.888,1.668c-0.245,0.607 -0.461,1.256 -0.648,1.947c-0.213,0.832 -0.481,1.627 -0.804,2.386c-0.323,0.759 -0.733,1.46 -1.229,2.104c-0.495,0.644 -1.125,1.2 -1.888,1.666c-0.762,0.467 -1.706,0.814 -2.83,1.04c-1.333,0.269 -2.538,0.294 -3.616,0.076c-1.078,-0.217 -2.013,-0.607 -2.806,-1.168c-0.794,-0.561 -1.437,-1.254 -1.93,-2.08c-0.492,-0.825 -0.831,-1.695 -1.016,-2.61c-0.268,-1.333 -0.287,-2.574 -0.056,-3.723c0.231,-1.148 0.719,-2.164 1.466,-3.049l2.936,1.611c-1.107,1.257 -1.491,2.722 -1.154,4.395c0.1,0.496 0.284,0.969 0.551,1.419c0.268,0.449 0.631,0.832 1.089,1.147c0.458,0.316 0.998,0.533 1.621,0.653c0.622,0.119 1.339,0.097 2.149,-0.066c0.706,-0.143 1.291,-0.376 1.756,-0.701c0.465,-0.325 0.862,-0.718 1.191,-1.179c0.328,-0.461 0.606,-0.972 0.833,-1.535c0.226,-0.562 0.425,-1.16 0.597,-1.793c0.218,-0.806 0.485,-1.608 0.8,-2.406c0.315,-0.798 0.729,-1.548 1.24,-2.249c0.511,-0.702 1.156,-1.315 1.935,-1.839c0.778,-0.524 1.729,-0.9 2.853,-1.126Zm-11.003,-75.881c-0.983,-0.082 -1.885,-0.344 -2.704,-0.786c-0.82,-0.443 -1.522,-1.01 -2.107,-1.7c-0.585,-0.691 -1.028,-1.477 -1.33,-2.358c-0.301,-0.882 -0.411,-1.814 -0.33,-2.797c0.082,-0.984 0.344,-1.885 0.787,-2.705c0.442,-0.819 1.009,-1.521 1.699,-2.106c0.691,-0.585 1.477,-1.028 2.358,-1.33c0.882,-0.301 1.814,-0.411 2.797,-0.33c0.984,0.082 1.885,0.344 2.705,0.786c0.819,0.443 1.521,1.01 2.106,1.7c0.585,0.691 1.028,1.477 1.33,2.358c0.301,0.882 0.411,1.814 0.33,2.797c-0.082,0.983 -0.344,1.885 -0.786,2.704c-0.443,0.82 -1.01,1.522 -1.7,2.107c-0.691,0.585 -1.477,1.028 -2.358,1.33c-0.882,0.301 -1.814,0.411 -2.797,0.33Z"/>
</svg>
