<svg xmlns="http://www.w3.org/2000/svg" xml:space="preserve" fill-rule="evenodd" stroke-linejoin="round" stroke-miterlimit="2" clip-rule="evenodd" viewBox="0 0 240 226">
  <path fill="#022241" d="M239.872,174.29c-37.602,0.944 -70.412,21.308 -88.751,51.45l-151.121,-87.249c51.484,-87.556 138.306,-137.682 239.872,-138.491l0,174.29Z"/>
  <path fill="#fff" fill-rule="nonzero" d="M37.68,113.037c-0.728,-0.878 -1.642,-1.316 -2.744,-1.316c-0.317,0 -0.625,0.051 -0.924,0.154c-0.298,0.102 -0.569,0.266 -0.812,0.49c-0.242,0.224 -0.434,0.513 -0.574,0.868c-0.14,0.354 -0.21,0.774 -0.21,1.26c0,0.84 0.252,1.488 0.756,1.946c0.504,0.457 1.167,0.891 1.988,1.302c0.486,0.242 0.98,0.522 1.484,0.84c0.504,0.317 0.962,0.7 1.372,1.148c0.411,0.448 0.747,0.98 1.008,1.596c0.262,0.616 0.392,1.344 0.392,2.184c0,0.97 -0.154,1.829 -0.462,2.576c-0.308,0.746 -0.718,1.376 -1.232,1.89c-0.513,0.513 -1.115,0.9 -1.806,1.162c-0.69,0.261 -1.418,0.392 -2.184,0.392c-1.101,0 -2.118,-0.215 -3.052,-0.644c-0.933,-0.43 -1.68,-0.971 -2.24,-1.624l1.82,-2.464c0.43,0.522 0.948,0.933 1.554,1.232c0.607,0.298 1.228,0.448 1.862,0.448c0.71,0 1.298,-0.243 1.764,-0.728c0.467,-0.486 0.7,-1.167 0.7,-2.044c0,-0.859 -0.28,-1.54 -0.84,-2.044c-0.56,-0.504 -1.269,-0.971 -2.128,-1.4c-0.541,-0.262 -1.05,-0.551 -1.526,-0.868c-0.476,-0.318 -0.896,-0.696 -1.26,-1.134c-0.364,-0.439 -0.653,-0.952 -0.868,-1.54c-0.214,-0.588 -0.322,-1.293 -0.322,-2.114c0,-1.027 0.164,-1.909 0.49,-2.646c0.327,-0.738 0.756,-1.349 1.288,-1.834c0.532,-0.486 1.134,-0.845 1.806,-1.078c0.672,-0.234 1.354,-0.35 2.044,-0.35c1.008,0 1.909,0.163 2.702,0.49c0.794,0.326 1.461,0.807 2.002,1.442l-1.848,2.408Z"/>
  <path fill="#fff" fill-rule="nonzero" d="M47.256,112.057l0,16.968l-3.304,0l0,-16.968l-3.724,0l0,-2.856l10.752,0l0,2.856l-3.724,0Z"/>
  <path fill="#fff" fill-rule="nonzero" d="M65.092,121.997c0,1.045 -0.112,2.025 -0.336,2.94c-0.224,0.914 -0.588,1.712 -1.092,2.394c-0.504,0.681 -1.153,1.218 -1.946,1.61c-0.793,0.392 -1.759,0.588 -2.898,0.588c-1.139,0 -2.1,-0.196 -2.884,-0.588c-0.784,-0.392 -1.423,-0.929 -1.918,-1.61c-0.495,-0.682 -0.849,-1.48 -1.064,-2.394c-0.215,-0.915 -0.322,-1.895 -0.322,-2.94l0,-12.796l3.36,0l0,12.488c0,0.616 0.042,1.208 0.126,1.778c0.084,0.569 0.233,1.068 0.448,1.498c0.215,0.429 0.509,0.77 0.882,1.022c0.373,0.252 0.849,0.378 1.428,0.378c0.579,0 1.055,-0.126 1.428,-0.378c0.373,-0.252 0.667,-0.593 0.882,-1.022c0.215,-0.43 0.364,-0.929 0.448,-1.498c0.084,-0.57 0.126,-1.162 0.126,-1.778l0,-12.488l3.332,0l0,12.796Z"/>
  <path fill="#fff" fill-rule="nonzero" d="M81.556,119.141c0,3.136 -0.658,5.567 -1.974,7.294c-1.316,1.726 -3.253,2.59 -5.81,2.59l-4.956,0l0,-19.824l4.984,0c2.539,0 4.466,0.872 5.782,2.618c1.316,1.745 1.974,4.186 1.974,7.322Zm-3.36,0c0,-1.176 -0.107,-2.203 -0.322,-3.08c-0.215,-0.878 -0.518,-1.606 -0.91,-2.184c-0.392,-0.579 -0.859,-1.013 -1.4,-1.302c-0.541,-0.29 -1.129,-0.434 -1.764,-0.434l-1.596,0l0,13.944l1.596,0c0.635,0 1.223,-0.145 1.764,-0.434c0.541,-0.29 1.008,-0.724 1.4,-1.302c0.392,-0.579 0.695,-1.302 0.91,-2.17c0.215,-0.868 0.322,-1.881 0.322,-3.038Z"/>
  <path fill="#fff" fill-rule="nonzero" d="M84.748,129.025l0,-19.824l8.876,0l0,2.968l-5.656,0l0,5.264l5.236,0l0,2.744l-5.236,0l0,5.852l5.936,0l0,2.996l-9.156,0Z"/>
  <path fill="#fff" fill-rule="nonzero" d="M105.635,129.025l-5.628,-14l-0.084,0l0.056,14l-3.024,0l0,-19.824l3.836,0l5.572,14.084l0.084,0l-0.028,-14.084l2.912,0l0,19.824l-3.696,0Z"/>
  <path fill="#fff" fill-rule="nonzero" d="M118.319,112.057l0,16.968l-3.304,0l0,-16.968l-3.724,0l0,-2.856l10.752,0l0,2.856l-3.724,0Z"/>
  <path fill="#fff" fill-rule="nonzero" d="M121.735 120.261H126.551V122.725H121.735z"/>
  <path fill="#fff" fill-rule="nonzero" d="M140.999,126.897c-0.523,0.784 -1.19,1.418 -2.002,1.904c-0.812,0.485 -1.834,0.728 -3.066,0.728c-1.12,0 -2.133,-0.262 -3.038,-0.784c-0.905,-0.523 -1.671,-1.246 -2.296,-2.17c-0.625,-0.924 -1.111,-2.021 -1.456,-3.29c-0.345,-1.27 -0.518,-2.66 -0.518,-4.172c0,-1.512 0.173,-2.908 0.518,-4.186c0.345,-1.279 0.835,-2.38 1.47,-3.304c0.635,-0.924 1.405,-1.643 2.31,-2.156c0.905,-0.514 1.909,-0.77 3.01,-0.77c1.139,0 2.137,0.21 2.996,0.63c0.859,0.42 1.559,1.022 2.1,1.806l-1.932,2.352c-0.765,-1.102 -1.755,-1.652 -2.968,-1.652c-0.672,0 -1.26,0.191 -1.764,0.574c-0.504,0.382 -0.924,0.9 -1.26,1.554c-0.336,0.653 -0.588,1.423 -0.756,2.31c-0.168,0.886 -0.252,1.834 -0.252,2.842c0,0.989 0.084,1.927 0.252,2.814c0.168,0.886 0.42,1.656 0.756,2.31c0.336,0.653 0.761,1.171 1.274,1.554c0.513,0.382 1.115,0.574 1.806,0.574c0.653,0 1.218,-0.168 1.694,-0.504c0.476,-0.336 0.873,-0.747 1.19,-1.232l1.932,2.268Z"/>
  <path fill="#fff" fill-rule="nonzero" d="M143.379,129.025l0,-19.824l8.876,0l0,2.968l-5.656,0l0,5.264l5.236,0l0,2.744l-5.236,0l0,5.852l5.936,0l0,2.996l-9.156,0Z"/>
  <path fill="#fff" fill-rule="nonzero" d="M164.267,129.025l-5.628,-14l-0.084,0l0.056,14l-3.024,0l0,-19.824l3.836,0l5.572,14.084l0.084,0l-0.028,-14.084l2.912,0l0,19.824l-3.696,0Z"/>
  <path fill="#fff" fill-rule="nonzero" d="M176.95,112.057l-0,16.968l-3.304,0l-0,-16.968l-3.724,0l-0,-2.856l10.752,0l-0,2.856l-3.724,0Z"/>
  <path fill="#fff" fill-rule="nonzero" d="M182.634,129.025l-0,-19.824l8.876,0l-0,2.968l-5.656,0l-0,5.264l5.236,0l-0,2.744l-5.236,0l-0,5.852l5.936,0l-0,2.996l-9.156,0Z"/>
  <path fill="#fff" fill-rule="nonzero" d="M203.046,129.025l-3.08,-8.456l-1.876,0l0,8.456l-3.248,0l0,-19.824l5.656,0c0.821,0 1.577,0.107 2.268,0.322c0.691,0.214 1.283,0.555 1.778,1.022c0.495,0.466 0.882,1.054 1.162,1.764c0.28,0.709 0.42,1.558 0.42,2.548c0,0.765 -0.098,1.442 -0.294,2.03c-0.196,0.588 -0.443,1.087 -0.742,1.498c-0.299,0.41 -0.63,0.742 -0.994,0.994c-0.364,0.252 -0.723,0.424 -1.078,0.518l3.556,9.128l-3.528,0Zm-0.224,-14c0,-0.598 -0.084,-1.092 -0.252,-1.484c-0.168,-0.392 -0.387,-0.7 -0.658,-0.924c-0.271,-0.224 -0.574,-0.383 -0.91,-0.476c-0.336,-0.094 -0.672,-0.14 -1.008,-0.14l-1.904,-0l0,6.104l1.904,-0c0.821,-0 1.498,-0.257 2.03,-0.77c0.532,-0.514 0.798,-1.284 0.798,-2.31Z"/>
  <path fill="#fff" fill-rule="nonzero" d="M209.206,129.025l-0,-19.824l8.876,0l-0,2.968l-5.656,0l-0,5.264l5.236,0l-0,2.744l-5.236,0l-0,5.852l5.936,0l-0,2.996l-9.156,0Z"/>
  <path fill="#fff" fill-rule="nonzero" d="M234.154,119.141c0,3.136 -0.658,5.567 -1.974,7.294c-1.316,1.726 -3.253,2.59 -5.81,2.59l-4.956,0l0,-19.824l4.984,0c2.538,0 4.466,0.872 5.782,2.618c1.316,1.745 1.974,4.186 1.974,7.322Zm-3.36,0c-0,-1.176 -0.108,-2.203 -0.322,-3.08c-0.215,-0.878 -0.518,-1.606 -0.91,-2.184c-0.392,-0.579 -0.859,-1.013 -1.4,-1.302c-0.542,-0.29 -1.13,-0.434 -1.764,-0.434l-1.596,0l-0,13.944l1.596,0c0.634,0 1.222,-0.145 1.764,-0.434c0.541,-0.29 1.008,-0.724 1.4,-1.302c0.392,-0.579 0.695,-1.302 0.91,-2.17c0.214,-0.868 0.322,-1.881 0.322,-3.038Z"/>
</svg>
