<svg xmlns="http://www.w3.org/2000/svg" xml:space="preserve" fill-rule="evenodd" stroke-linejoin="round" stroke-miterlimit="2" clip-rule="evenodd" viewBox="0 0 240 226">
  <path fill="#176e96" d="M151.099,0c18.329,30.158 51.156,50.542 88.773,51.484l0,174.244c-101.566,-0.809 -188.388,-50.936 -239.872,-138.491l151.099,-87.237Z"/>
  <path fill="#fff" fill-rule="nonzero" d="M69.432,101.419l-3.08,-8.456l-1.876,-0l0,8.456l-3.248,-0l0,-19.824l5.656,-0c0.812,-0 1.568,0.112 2.268,0.308c0.7,0.224 1.288,0.56 1.764,1.036c0.504,0.476 0.896,1.064 1.176,1.764c0.28,0.7 0.42,1.568 0.42,2.548c0,0.756 -0.112,1.428 -0.308,2.044c-0.196,0.588 -0.42,1.064 -0.728,1.484c-0.308,0.42 -0.644,0.756 -0.98,1.008c-0.392,0.224 -0.728,0.42 -1.092,0.504l3.556,9.128l-3.528,-0Zm-0.224,-14c0,-0.588 -0.084,-1.092 -0.252,-1.484c-0.168,-0.392 -0.392,-0.7 -0.672,-0.924c-0.252,-0.224 -0.56,-0.392 -0.896,-0.476c-0.336,-0.084 -0.672,-0.14 -1.008,-0.14l-1.904,-0l0,6.104l1.904,-0c0.812,-0 1.484,-0.252 2.044,-0.756c0.504,-0.532 0.784,-1.288 0.784,-2.324Z"/>
  <path fill="#fff" fill-rule="nonzero" d="M75.872,101.419l0,-19.824l8.876,-0l-0,2.968l-5.656,-0l0,5.264l5.236,-0l-0,2.744l-5.236,-0l0,5.852l5.936,-0l0,2.996l-9.156,-0Z"/>
  <path fill="#fff" fill-rule="nonzero" d="M96.144,85.431c-0.728,-0.868 -1.652,-1.316 -2.744,-1.316c-0.308,-0 -0.616,0.056 -0.924,0.168c-0.308,0.084 -0.56,0.252 -0.812,0.476c-0.252,0.224 -0.448,0.504 -0.56,0.868c-0.168,0.364 -0.224,0.784 -0.224,1.26c0,0.84 0.252,1.484 0.756,1.96c0.504,0.448 1.176,0.868 1.988,1.288c0.476,0.252 0.98,0.532 1.484,0.84c0.504,0.308 0.952,0.7 1.372,1.148c0.42,0.448 0.756,0.98 1.008,1.596c0.252,0.616 0.392,1.344 0.392,2.184c0,0.98 -0.168,1.82 -0.476,2.576c-0.308,0.756 -0.7,1.372 -1.232,1.904c-0.504,0.504 -1.092,0.896 -1.792,1.148c-0.7,0.252 -1.428,0.392 -2.184,0.392c-1.092,0 -2.128,-0.224 -3.052,-0.644c-0.924,-0.42 -1.68,-0.98 -2.24,-1.624l1.82,-2.464c0.42,0.532 0.952,0.924 1.54,1.232c0.616,0.308 1.232,0.448 1.876,0.448c0.7,0 1.288,-0.252 1.764,-0.728c0.476,-0.476 0.7,-1.176 0.7,-2.044c0,-0.868 -0.28,-1.54 -0.84,-2.044c-0.56,-0.504 -1.26,-0.98 -2.128,-1.4c-0.532,-0.252 -1.064,-0.56 -1.512,-0.868c-0.504,-0.308 -0.924,-0.7 -1.288,-1.148c-0.364,-0.42 -0.644,-0.952 -0.868,-1.54c-0.196,-0.588 -0.308,-1.288 -0.308,-2.1c0,-1.036 0.168,-1.904 0.476,-2.66c0.336,-0.728 0.756,-1.344 1.288,-1.82c0.532,-0.476 1.148,-0.84 1.82,-1.092c0.672,-0.224 1.344,-0.336 2.044,-0.336c1.008,-0 1.904,0.168 2.688,0.476c0.812,0.336 1.484,0.812 2.016,1.456l-1.848,2.408Z"/>
  <path fill="#fff" fill-rule="nonzero" d="M112.272,87.447c0,1.008 -0.14,1.904 -0.448,2.632c-0.308,0.784 -0.728,1.4 -1.232,1.904c-0.504,0.504 -1.064,0.868 -1.736,1.12c-0.644,0.252 -1.316,0.364 -1.988,0.364l-2.352,-0l0,7.952l-3.304,-0l0,-19.824l5.488,-0c0.616,-0 1.26,0.084 1.932,0.28c0.672,0.196 1.288,0.504 1.82,0.952c0.532,0.476 0.952,1.064 1.316,1.82c0.336,0.756 0.504,1.68 0.504,2.8Zm-3.164,0.056c0,-1.064 -0.252,-1.848 -0.756,-2.324c-0.504,-0.476 -1.148,-0.728 -1.932,-0.728l-1.904,-0l0,6.272l1.904,-0c0.784,-0 1.428,-0.28 1.932,-0.812c0.504,-0.56 0.756,-1.372 0.756,-2.408Z"/>
  <path fill="#fff" fill-rule="nonzero" d="M128.764,91.479c0,1.568 -0.168,2.996 -0.504,4.256c-0.308,1.288 -0.784,2.38 -1.4,3.304c-0.616,0.924 -1.372,1.624 -2.268,2.128c-0.868,0.504 -1.876,0.756 -2.968,0.756c-1.12,-0 -2.128,-0.252 -2.996,-0.756c-0.868,-0.504 -1.624,-1.204 -2.24,-2.128c-0.616,-0.924 -1.092,-2.016 -1.428,-3.304c-0.308,-1.26 -0.476,-2.688 -0.476,-4.256c-0,-1.568 0.168,-2.996 0.476,-4.256c0.308,-1.26 0.784,-2.352 1.4,-3.276c0.616,-0.924 1.372,-1.624 2.24,-2.128c0.896,-0.476 1.904,-0.728 3.024,-0.728c1.092,-0 2.1,0.252 2.968,0.728c0.896,0.504 1.652,1.204 2.268,2.128c0.616,0.924 1.092,2.016 1.4,3.276c0.336,1.26 0.504,2.688 0.504,4.256Zm-3.472,-0c0,-1.008 -0.084,-1.96 -0.252,-2.856c-0.14,-0.868 -0.392,-1.624 -0.7,-2.296c-0.308,-0.644 -0.672,-1.148 -1.148,-1.512c-0.448,-0.364 -0.98,-0.56 -1.568,-0.56c-0.616,-0 -1.148,0.196 -1.624,0.56c-0.448,0.364 -0.84,0.868 -1.148,1.512c-0.308,0.644 -0.532,1.428 -0.672,2.296c-0.14,0.896 -0.224,1.848 -0.224,2.856c-0,1.008 0.084,1.96 0.224,2.828c0.14,0.896 0.364,1.68 0.672,2.324c0.308,0.644 0.7,1.176 1.148,1.54c0.476,0.364 1.008,0.56 1.624,0.56c0.616,-0 1.148,-0.196 1.596,-0.56c0.476,-0.364 0.84,-0.896 1.148,-1.54c0.336,-0.644 0.56,-1.428 0.7,-2.324c0.14,-0.868 0.224,-1.82 0.224,-2.828Z"/>
  <path fill="#fff" fill-rule="nonzero" d="M140.86,101.419l-5.628,-14l-0.084,-0l0.056,14l-3.024,-0l-0,-19.824l3.836,-0l5.572,14.084l0.084,-0l-0.028,-14.084l2.912,-0l-0,19.824l-3.696,-0Z"/>
  <path fill="#fff" fill-rule="nonzero" d="M156.652,85.431c-0.728,-0.868 -1.652,-1.316 -2.744,-1.316c-0.308,-0 -0.616,0.056 -0.924,0.168c-0.308,0.084 -0.56,0.252 -0.812,0.476c-0.252,0.224 -0.448,0.504 -0.56,0.868c-0.168,0.364 -0.224,0.784 -0.224,1.26c-0,0.84 0.252,1.484 0.756,1.96c0.504,0.448 1.176,0.868 1.988,1.288c0.476,0.252 0.98,0.532 1.484,0.84c0.504,0.308 0.952,0.7 1.372,1.148c0.42,0.448 0.756,0.98 1.008,1.596c0.252,0.616 0.392,1.344 0.392,2.184c-0,0.98 -0.168,1.82 -0.476,2.576c-0.308,0.756 -0.7,1.372 -1.232,1.904c-0.504,0.504 -1.092,0.896 -1.792,1.148c-0.7,0.252 -1.428,0.392 -2.184,0.392c-1.092,0 -2.128,-0.224 -3.052,-0.644c-0.924,-0.42 -1.68,-0.98 -2.24,-1.624l1.82,-2.464c0.42,0.532 0.952,0.924 1.54,1.232c0.616,0.308 1.232,0.448 1.876,0.448c0.7,0 1.288,-0.252 1.764,-0.728c0.476,-0.476 0.7,-1.176 0.7,-2.044c-0,-0.868 -0.28,-1.54 -0.84,-2.044c-0.56,-0.504 -1.26,-0.98 -2.128,-1.4c-0.532,-0.252 -1.064,-0.56 -1.512,-0.868c-0.504,-0.308 -0.924,-0.7 -1.288,-1.148c-0.364,-0.42 -0.644,-0.952 -0.868,-1.54c-0.196,-0.588 -0.308,-1.288 -0.308,-2.1c-0,-1.036 0.168,-1.904 0.476,-2.66c0.336,-0.728 0.756,-1.344 1.288,-1.82c0.532,-0.476 1.148,-0.84 1.82,-1.092c0.672,-0.224 1.344,-0.336 2.044,-0.336c1.008,-0 1.904,0.168 2.688,0.476c0.812,0.336 1.484,0.812 2.016,1.456l-1.848,2.408Z"/>
  <path fill="#fff" fill-rule="nonzero" d="M161.72 81.595H165.08V101.419H161.72z"/>
  <path fill="#fff" fill-rule="nonzero" d="M180.844,95.875c-0,1.036 -0.168,1.932 -0.504,2.632c-0.364,0.7 -0.784,1.26 -1.316,1.708c-0.532,0.42 -1.148,0.728 -1.82,0.924c-0.644,0.196 -1.288,0.28 -1.932,0.28l-5.88,-0l-0,-19.824l5.264,-0c0.588,-0 1.204,0.056 1.848,0.196c0.644,0.14 1.26,0.392 1.792,0.756c0.532,0.364 0.98,0.868 1.344,1.512c0.364,0.644 0.532,1.484 0.532,2.52c-0,1.232 -0.252,2.212 -0.784,2.912c-0.532,0.7 -1.12,1.204 -1.82,1.484l-0,0.056c0.364,0.084 0.756,0.252 1.148,0.476c0.364,0.224 0.728,0.532 1.036,0.924c0.308,0.42 0.588,0.896 0.784,1.456c0.196,0.588 0.308,1.232 0.308,1.988Zm-3.696,-8.764c-0,-0.504 -0.084,-0.924 -0.224,-1.288c-0.168,-0.336 -0.364,-0.616 -0.616,-0.84c-0.252,-0.196 -0.56,-0.364 -0.896,-0.448c-0.336,-0.084 -0.672,-0.14 -1.008,-0.14l-1.848,-0l-0,5.516l1.904,-0c0.336,-0 0.644,-0.056 0.98,-0.168c0.308,-0.084 0.616,-0.252 0.868,-0.476c0.252,-0.224 0.448,-0.504 0.616,-0.868c0.14,-0.364 0.224,-0.784 0.224,-1.288Zm0.476,8.484c-0,-0.588 -0.084,-1.064 -0.28,-1.456c-0.196,-0.42 -0.42,-0.728 -0.728,-0.98c-0.28,-0.252 -0.616,-0.448 -0.98,-0.56c-0.336,-0.112 -0.7,-0.168 -1.036,-0.168l-2.044,-0l-0,6.188l2.128,-0c0.392,-0 0.784,-0.056 1.12,-0.168c0.364,-0.14 0.672,-0.308 0.952,-0.56c0.252,-0.252 0.476,-0.588 0.644,-0.952c0.14,-0.364 0.224,-0.812 0.224,-1.344Z"/>
  <path fill="#fff" fill-rule="nonzero" d="M184.204,101.419l-0,-19.824l3.388,-0l-0,16.716l5.46,-0l-0,3.108l-8.848,-0Z"/>
  <path fill="#fff" fill-rule="nonzero" d="M195.516,101.419l0,-19.824l8.876,-0l0,2.968l-5.656,-0l0,5.264l5.236,-0l0,2.744l-5.236,-0l0,5.852l5.936,-0l0,2.996l-9.156,-0Z"/>
  <path fill="#fff" fill-rule="nonzero" d="M65.652 111.585H69.012V131.409H65.652z"/>
  <path fill="#fff" fill-rule="nonzero" d="M82.004,131.409l-5.628,-14l-0.084,0l0.056,14l-3.024,0l0,-19.824l3.836,0l5.572,14.084l0.084,0l-0.028,-14.084l2.912,0l0,19.824l-3.696,0Z"/>
  <path fill="#fff" fill-rule="nonzero" d="M98.692,131.409l-5.628,-14l-0.084,0l0.056,14l-3.024,0l-0,-19.824l3.836,0l5.572,14.084l0.084,0l-0.028,-14.084l2.912,0l-0,19.824l-3.696,0Z"/>
  <path fill="#fff" fill-rule="nonzero" d="M120.112,121.469c-0,1.568 -0.168,2.996 -0.504,4.256c-0.308,1.288 -0.784,2.38 -1.4,3.304c-0.616,0.924 -1.372,1.624 -2.268,2.128c-0.868,0.504 -1.876,0.756 -2.968,0.756c-1.12,0 -2.128,-0.252 -2.996,-0.756c-0.868,-0.504 -1.624,-1.204 -2.24,-2.128c-0.616,-0.924 -1.092,-2.016 -1.428,-3.304c-0.308,-1.26 -0.476,-2.688 -0.476,-4.256c-0,-1.568 0.168,-2.996 0.476,-4.256c0.308,-1.26 0.784,-2.352 1.4,-3.276c0.616,-0.924 1.372,-1.624 2.24,-2.128c0.896,-0.476 1.904,-0.728 3.024,-0.728c1.092,-0 2.1,0.252 2.968,0.728c0.896,0.504 1.652,1.204 2.268,2.128c0.616,0.924 1.092,2.016 1.4,3.276c0.336,1.26 0.504,2.688 0.504,4.256Zm-3.472,0c-0,-1.008 -0.084,-1.96 -0.252,-2.856c-0.14,-0.868 -0.392,-1.624 -0.7,-2.296c-0.308,-0.644 -0.672,-1.148 -1.148,-1.512c-0.448,-0.364 -0.98,-0.56 -1.568,-0.56c-0.616,0 -1.148,0.196 -1.624,0.56c-0.448,0.364 -0.84,0.868 -1.148,1.512c-0.308,0.644 -0.532,1.428 -0.672,2.296c-0.14,0.896 -0.224,1.848 -0.224,2.856c-0,1.008 0.084,1.96 0.224,2.828c0.14,0.896 0.364,1.68 0.672,2.324c0.308,0.644 0.7,1.176 1.148,1.54c0.476,0.364 1.008,0.56 1.624,0.56c0.616,0 1.148,-0.196 1.596,-0.56c0.476,-0.364 0.84,-0.896 1.148,-1.54c0.336,-0.644 0.56,-1.428 0.7,-2.324c0.14,-0.868 0.224,-1.82 0.224,-2.828Z"/>
  <path fill="#fff" fill-rule="nonzero" d="M130.528,131.409l-4.256,0l-4.844,-19.824l3.752,0l3.304,15.904l0.084,0l3.304,-15.904l3.584,0l-4.928,19.824Z"/>
  <path fill="#fff" fill-rule="nonzero" d="M146.096,131.409l-0.98,-4.2l-5.208,0l-1.008,4.2l-3.36,0l4.928,-19.824l4.284,0l4.844,19.824l-3.5,0Zm-3.5,-16.66l-0.112,0l-2.156,9.828l4.368,0l-2.1,-9.828Z"/>
  <path fill="#fff" fill-rule="nonzero" d="M156.4,114.441l0,16.968l-3.304,0l0,-16.968l-3.724,0l-0,-2.856l10.752,0l-0,2.856l-3.724,0Z"/>
  <path fill="#fff" fill-rule="nonzero" d="M162.364 111.585H165.724V131.409H162.364z"/>
  <path fill="#fff" fill-rule="nonzero" d="M183.448,121.469c-0,1.568 -0.168,2.996 -0.504,4.256c-0.308,1.288 -0.784,2.38 -1.4,3.304c-0.616,0.924 -1.372,1.624 -2.268,2.128c-0.868,0.504 -1.876,0.756 -2.968,0.756c-1.12,0 -2.128,-0.252 -2.996,-0.756c-0.868,-0.504 -1.624,-1.204 -2.24,-2.128c-0.616,-0.924 -1.092,-2.016 -1.428,-3.304c-0.308,-1.26 -0.476,-2.688 -0.476,-4.256c-0,-1.568 0.168,-2.996 0.476,-4.256c0.308,-1.26 0.784,-2.352 1.4,-3.276c0.616,-0.924 1.372,-1.624 2.24,-2.128c0.896,-0.476 1.904,-0.728 3.024,-0.728c1.092,-0 2.1,0.252 2.968,0.728c0.896,0.504 1.652,1.204 2.268,2.128c0.616,0.924 1.092,2.016 1.4,3.276c0.336,1.26 0.504,2.688 0.504,4.256Zm-3.472,0c-0,-1.008 -0.084,-1.96 -0.252,-2.856c-0.14,-0.868 -0.392,-1.624 -0.7,-2.296c-0.308,-0.644 -0.672,-1.148 -1.148,-1.512c-0.448,-0.364 -0.98,-0.56 -1.568,-0.56c-0.616,0 -1.148,0.196 -1.624,0.56c-0.448,0.364 -0.84,0.868 -1.148,1.512c-0.308,0.644 -0.532,1.428 -0.672,2.296c-0.14,0.896 -0.224,1.848 -0.224,2.856c-0,1.008 0.084,1.96 0.224,2.828c0.14,0.896 0.364,1.68 0.672,2.324c0.308,0.644 0.7,1.176 1.148,1.54c0.476,0.364 1.008,0.56 1.624,0.56c0.616,0 1.148,-0.196 1.596,-0.56c0.476,-0.364 0.84,-0.896 1.148,-1.54c0.336,-0.644 0.56,-1.428 0.7,-2.324c0.14,-0.868 0.224,-1.82 0.224,-2.828Z"/>
  <path fill="#fff" fill-rule="nonzero" d="M195.544,131.409l-5.628,-14l-0.084,0l0.056,14l-3.024,0l0,-19.824l3.836,0l5.572,14.084l0.084,0l-0.028,-14.084l2.912,0l0,19.824l-3.696,0Z"/>
</svg>
