<svg xmlns="http://www.w3.org/2000/svg" xml:space="preserve" fill-rule="evenodd" stroke-linejoin="round" stroke-miterlimit="2" clip-rule="evenodd" viewBox="0 0 240 226">
  <path fill="#1e8dc1" d="M151.099,0c18.329,30.158 51.156,50.542 88.773,51.484l0,174.244c-101.566,-0.809 -188.388,-50.936 -239.872,-138.491l151.099,-87.237Z"/>
  <path fill="#fff" fill-rule="nonzero" d="M0.365,-0l-0.11,-0.302l-0.067,0l0,0.302l-0.116,-0l0,-0.708l0.202,0c0.029,0 0.056,0.004 0.081,0.011c0.025,0.008 0.046,0.02 0.063,0.037c0.018,0.017 0.032,0.038 0.042,0.063c0.01,0.025 0.015,0.056 0.015,0.091c-0,0.027 -0.004,0.051 -0.011,0.073c-0.007,0.021 -0.015,0.038 -0.026,0.053c-0.011,0.015 -0.023,0.027 -0.035,0.036c-0.014,0.008 -0.026,0.015 -0.039,0.018l0.127,0.326l-0.126,-0Zm-0.008,-0.5c-0,-0.021 -0.003,-0.039 -0.009,-0.053c-0.006,-0.014 -0.014,-0.025 -0.024,-0.033c-0.009,-0.008 -0.02,-0.014 -0.032,-0.017c-0.012,-0.003 -0.024,-0.005 -0.036,-0.005l-0.068,0l0,0.218l0.068,0c0.029,0 0.053,-0.009 0.073,-0.027c0.018,-0.019 0.028,-0.046 0.028,-0.083Z" transform="matrix(1,0,0,1,-430.4,-568.538) matrix(28,0,0,28,489.612,669.957)"/>
  <path fill="#fff" fill-rule="nonzero" d="M0.072,-0l-0,-0.708l0.317,0l0,0.106l-0.202,0l0,0.188l0.187,0l0,0.098l-0.187,-0l0,0.209l0.212,-0l0,0.107l-0.327,-0Z" transform="matrix(1,0,0,1,-430.4,-568.538) matrix(28,0,0,28,504.256,669.957)"/>
  <path fill="#fff" fill-rule="nonzero" d="M0.35,-0.571c-0.026,-0.031 -0.059,-0.047 -0.098,-0.047c-0.011,0 -0.022,0.002 -0.033,0.006c-0.011,0.003 -0.02,0.009 -0.029,0.017c-0.009,0.008 -0.016,0.018 -0.02,0.031c-0.006,0.013 -0.008,0.028 -0.008,0.045c0,0.03 0.009,0.053 0.027,0.07c0.018,0.016 0.042,0.031 0.071,0.046c0.017,0.009 0.035,0.019 0.053,0.03c0.018,0.011 0.034,0.025 0.049,0.041c0.015,0.016 0.027,0.035 0.036,0.057c0.009,0.022 0.014,0.048 0.014,0.078c-0,0.035 -0.006,0.065 -0.017,0.092c-0.011,0.027 -0.025,0.049 -0.044,0.068c-0.018,0.018 -0.039,0.032 -0.064,0.041c-0.025,0.009 -0.051,0.014 -0.078,0.014c-0.039,-0 -0.076,-0.008 -0.109,-0.023c-0.033,-0.015 -0.06,-0.035 -0.08,-0.058l0.065,-0.088c0.015,0.019 0.034,0.033 0.055,0.044c0.022,0.011 0.044,0.016 0.067,0.016c0.025,0 0.046,-0.009 0.063,-0.026c0.017,-0.017 0.025,-0.042 0.025,-0.073c-0,-0.031 -0.01,-0.055 -0.03,-0.073c-0.02,-0.018 -0.045,-0.035 -0.076,-0.05c-0.019,-0.009 -0.038,-0.02 -0.054,-0.031c-0.018,-0.011 -0.033,-0.025 -0.046,-0.041c-0.013,-0.015 -0.023,-0.034 -0.031,-0.055c-0.007,-0.021 -0.011,-0.046 -0.011,-0.075c-0,-0.037 0.006,-0.068 0.017,-0.095c0.012,-0.026 0.027,-0.048 0.046,-0.065c0.019,-0.017 0.041,-0.03 0.065,-0.039c0.024,-0.008 0.048,-0.012 0.073,-0.012c0.036,-0 0.068,0.006 0.096,0.017c0.029,0.012 0.053,0.029 0.072,0.052l-0.066,0.086Z" transform="matrix(1,0,0,1,-430.4,-568.538) matrix(28,0,0,28,516.744,669.957)"/>
  <path fill="#fff" fill-rule="nonzero" d="M0.467,-0.499c0,0.036 -0.005,0.068 -0.016,0.094c-0.011,0.028 -0.026,0.05 -0.044,0.068c-0.018,0.018 -0.038,0.031 -0.062,0.04c-0.023,0.009 -0.047,0.013 -0.071,0.013l-0.084,0l0,0.284l-0.118,-0l0,-0.708l0.196,0c0.022,0 0.045,0.003 0.069,0.01c0.024,0.007 0.046,0.018 0.065,0.034c0.019,0.017 0.034,0.038 0.047,0.065c0.012,0.027 0.018,0.06 0.018,0.1Zm-0.113,0.002c-0,-0.038 -0.009,-0.066 -0.027,-0.083c-0.018,-0.017 -0.041,-0.026 -0.069,-0.026l-0.068,0l0,0.224l0.068,0c0.028,0 0.051,-0.01 0.069,-0.029c0.018,-0.02 0.027,-0.049 0.027,-0.086Z" transform="matrix(1,0,0,1,-430.4,-568.538) matrix(28,0,0,28,529.596,669.957)"/>
  <path fill="#fff" fill-rule="nonzero" d="M0.551,-0.355c0,0.056 -0.006,0.107 -0.018,0.152c-0.011,0.046 -0.028,0.085 -0.05,0.118c-0.022,0.033 -0.049,0.058 -0.081,0.076c-0.031,0.018 -0.067,0.027 -0.106,0.027c-0.04,-0 -0.076,-0.009 -0.107,-0.027c-0.031,-0.018 -0.058,-0.043 -0.08,-0.076c-0.022,-0.033 -0.039,-0.072 -0.051,-0.118c-0.011,-0.045 -0.017,-0.096 -0.017,-0.152c-0,-0.056 0.006,-0.107 0.017,-0.152c0.011,-0.045 0.028,-0.084 0.05,-0.117c0.022,-0.033 0.049,-0.058 0.08,-0.076c0.032,-0.017 0.068,-0.026 0.108,-0.026c0.039,0 0.075,0.009 0.106,0.026c0.032,0.018 0.059,0.043 0.081,0.076c0.022,0.033 0.039,0.072 0.05,0.117c0.012,0.045 0.018,0.096 0.018,0.152Zm-0.124,0c-0,-0.036 -0.003,-0.07 -0.009,-0.102c-0.005,-0.031 -0.014,-0.058 -0.025,-0.082c-0.011,-0.023 -0.024,-0.041 -0.041,-0.054c-0.016,-0.013 -0.035,-0.02 -0.056,-0.02c-0.022,0 -0.041,0.007 -0.058,0.02c-0.016,0.013 -0.03,0.031 -0.041,0.054c-0.011,0.023 -0.019,0.051 -0.024,0.082c-0.005,0.032 -0.008,0.066 -0.008,0.102c-0,0.036 0.003,0.07 0.008,0.101c0.005,0.032 0.013,0.06 0.024,0.083c0.011,0.023 0.025,0.042 0.041,0.055c0.017,0.013 0.036,0.02 0.058,0.02c0.022,-0 0.041,-0.007 0.057,-0.02c0.017,-0.013 0.03,-0.032 0.041,-0.055c0.012,-0.023 0.02,-0.051 0.025,-0.083c0.005,-0.031 0.008,-0.065 0.008,-0.101Z" transform="matrix(1,0,0,1,-430.4,-568.538) matrix(28,0,0,28,543.736,669.957)"/>
  <path fill="#fff" fill-rule="nonzero" d="M0.382,-0l-0.201,-0.5l-0.003,0l0.002,0.5l-0.108,-0l0,-0.708l0.137,0l0.199,0.503l0.003,-0l-0.001,-0.503l0.104,0l0,0.708l-0.132,-0Z" transform="matrix(1,0,0,1,-430.4,-568.538) matrix(28,0,0,28,560.564,669.957)"/>
  <path fill="#fff" fill-rule="nonzero" d="M0.35,-0.571c-0.026,-0.031 -0.059,-0.047 -0.098,-0.047c-0.011,0 -0.022,0.002 -0.033,0.006c-0.011,0.003 -0.02,0.009 -0.029,0.017c-0.009,0.008 -0.016,0.018 -0.02,0.031c-0.006,0.013 -0.008,0.028 -0.008,0.045c0,0.03 0.009,0.053 0.027,0.07c0.018,0.016 0.042,0.031 0.071,0.046c0.017,0.009 0.035,0.019 0.053,0.03c0.018,0.011 0.034,0.025 0.049,0.041c0.015,0.016 0.027,0.035 0.036,0.057c0.009,0.022 0.014,0.048 0.014,0.078c-0,0.035 -0.006,0.065 -0.017,0.092c-0.011,0.027 -0.025,0.049 -0.044,0.068c-0.018,0.018 -0.039,0.032 -0.064,0.041c-0.025,0.009 -0.051,0.014 -0.078,0.014c-0.039,-0 -0.076,-0.008 -0.109,-0.023c-0.033,-0.015 -0.06,-0.035 -0.08,-0.058l0.065,-0.088c0.015,0.019 0.034,0.033 0.055,0.044c0.022,0.011 0.044,0.016 0.067,0.016c0.025,0 0.046,-0.009 0.063,-0.026c0.017,-0.017 0.025,-0.042 0.025,-0.073c-0,-0.031 -0.01,-0.055 -0.03,-0.073c-0.02,-0.018 -0.045,-0.035 -0.076,-0.05c-0.019,-0.009 -0.038,-0.02 -0.054,-0.031c-0.018,-0.011 -0.033,-0.025 -0.046,-0.041c-0.013,-0.015 -0.023,-0.034 -0.031,-0.055c-0.007,-0.021 -0.011,-0.046 -0.011,-0.075c-0,-0.037 0.006,-0.068 0.017,-0.095c0.012,-0.026 0.027,-0.048 0.046,-0.065c0.019,-0.017 0.041,-0.03 0.065,-0.039c0.024,-0.008 0.048,-0.012 0.073,-0.012c0.036,-0 0.068,0.006 0.096,0.017c0.029,0.012 0.053,0.029 0.072,0.052l-0.066,0.086Z" transform="matrix(1,0,0,1,-430.4,-568.538) matrix(28,0,0,28,577.252,669.957)"/>
  <path fill="#fff" fill-rule="nonzero" d="M.072-.708H.192V0H.072z" transform="matrix(1,0,0,1,-430.4,-568.538) matrix(28,0,0,28,590.104,669.957)"/>
  <path fill="#fff" fill-rule="nonzero" d="M0.481,-0.198c0,0.037 -0.006,0.069 -0.018,0.094c-0.013,0.025 -0.028,0.045 -0.047,0.061c-0.019,0.015 -0.041,0.026 -0.065,0.033c-0.023,0.007 -0.046,0.01 -0.069,0.01l-0.21,0l0,-0.708l0.188,0c0.021,0 0.043,0.002 0.066,0.007c0.023,0.005 0.045,0.014 0.064,0.027c0.019,0.013 0.035,0.031 0.048,0.054c0.013,0.023 0.019,0.053 0.019,0.09c0,0.044 -0.009,0.079 -0.028,0.104c-0.019,0.025 -0.04,0.043 -0.065,0.053l0,0.002c0.013,0.003 0.027,0.009 0.041,0.017c0.013,0.008 0.026,0.019 0.037,0.033c0.011,0.015 0.021,0.032 0.028,0.052c0.007,0.021 0.011,0.044 0.011,0.071Zm-0.132,-0.313c0,-0.018 -0.003,-0.033 -0.008,-0.046c-0.006,-0.012 -0.013,-0.022 -0.022,-0.03c-0.009,-0.007 -0.02,-0.013 -0.032,-0.016c-0.012,-0.003 -0.024,-0.005 -0.036,-0.005l-0.066,0l0,0.197l0.068,0c0.012,0 0.023,-0.002 0.035,-0.006c0.011,-0.003 0.022,-0.009 0.031,-0.017c0.009,-0.008 0.016,-0.018 0.022,-0.031c0.005,-0.013 0.008,-0.028 0.008,-0.046Zm0.017,0.303c0,-0.021 -0.003,-0.038 -0.01,-0.052c-0.007,-0.015 -0.015,-0.026 -0.026,-0.035c-0.01,-0.009 -0.022,-0.016 -0.035,-0.02c-0.012,-0.004 -0.025,-0.006 -0.037,-0.006l-0.073,0l0,0.221l0.076,0c0.014,0 0.028,-0.002 0.04,-0.006c0.013,-0.005 0.024,-0.011 0.034,-0.02c0.009,-0.009 0.017,-0.021 0.023,-0.034c0.005,-0.013 0.008,-0.029 0.008,-0.048Z" transform="matrix(1,0,0,1,-430.4,-568.538) matrix(28,0,0,28,597.776,669.957)"/>
  <path fill="#fff" fill-rule="nonzero" d="M0.072,-0l-0,-0.708l0.121,0l0,0.597l0.195,-0l0,0.111l-0.316,-0Z" transform="matrix(1,0,0,1,-430.4,-568.538) matrix(28,0,0,28,612.588,669.957)"/>
  <path fill="#fff" fill-rule="nonzero" d="M0.072,-0l-0,-0.708l0.317,0l0,0.106l-0.202,0l0,0.188l0.187,0l0,0.098l-0.187,-0l0,0.209l0.212,-0l0,0.107l-0.327,-0Z" transform="matrix(1,0,0,1,-430.4,-568.538) matrix(28,0,0,28,623.9,669.957)"/>
  <path fill="#fff" fill-rule="nonzero" d="M.072-.708H.192V0H.072z" transform="matrix(1,0,0,1,-430.4,-568.538) matrix(28,0,0,28,494.036,699.947)"/>
  <path fill="#fff" fill-rule="nonzero" d="M0.382,-0l-0.201,-0.5l-0.003,0l0.002,0.5l-0.108,-0l0,-0.708l0.137,0l0.199,0.503l0.003,-0l-0.001,-0.503l0.104,0l0,0.708l-0.132,-0Z" transform="matrix(1,0,0,1,-430.4,-568.538) matrix(28,0,0,28,501.708,699.947)"/>
  <path fill="#fff" fill-rule="nonzero" d="M0.382,-0l-0.201,-0.5l-0.003,0l0.002,0.5l-0.108,-0l0,-0.708l0.137,0l0.199,0.503l0.003,-0l-0.001,-0.503l0.104,0l0,0.708l-0.132,-0Z" transform="matrix(1,0,0,1,-430.4,-568.538) matrix(28,0,0,28,518.396,699.947)"/>
  <path fill="#fff" fill-rule="nonzero" d="M0.551,-0.355c0,0.056 -0.006,0.107 -0.018,0.152c-0.011,0.046 -0.028,0.085 -0.05,0.118c-0.022,0.033 -0.049,0.058 -0.081,0.076c-0.031,0.018 -0.067,0.027 -0.106,0.027c-0.04,-0 -0.076,-0.009 -0.107,-0.027c-0.031,-0.018 -0.058,-0.043 -0.08,-0.076c-0.022,-0.033 -0.039,-0.072 -0.051,-0.118c-0.011,-0.045 -0.017,-0.096 -0.017,-0.152c-0,-0.056 0.006,-0.107 0.017,-0.152c0.011,-0.045 0.028,-0.084 0.05,-0.117c0.022,-0.033 0.049,-0.058 0.08,-0.076c0.032,-0.017 0.068,-0.026 0.108,-0.026c0.039,0 0.075,0.009 0.106,0.026c0.032,0.018 0.059,0.043 0.081,0.076c0.022,0.033 0.039,0.072 0.05,0.117c0.012,0.045 0.018,0.096 0.018,0.152Zm-0.124,0c-0,-0.036 -0.003,-0.07 -0.009,-0.102c-0.005,-0.031 -0.014,-0.058 -0.025,-0.082c-0.011,-0.023 -0.024,-0.041 -0.041,-0.054c-0.016,-0.013 -0.035,-0.02 -0.056,-0.02c-0.022,0 -0.041,0.007 -0.058,0.02c-0.016,0.013 -0.03,0.031 -0.041,0.054c-0.011,0.023 -0.019,0.051 -0.024,0.082c-0.005,0.032 -0.008,0.066 -0.008,0.102c-0,0.036 0.003,0.07 0.008,0.101c0.005,0.032 0.013,0.06 0.024,0.083c0.011,0.023 0.025,0.042 0.041,0.055c0.017,0.013 0.036,0.02 0.058,0.02c0.022,-0 0.041,-0.007 0.057,-0.02c0.017,-0.013 0.03,-0.032 0.041,-0.055c0.012,-0.023 0.02,-0.051 0.025,-0.083c0.005,-0.031 0.008,-0.065 0.008,-0.101Z" transform="matrix(1,0,0,1,-430.4,-568.538) matrix(28,0,0,28,535.084,699.947)"/>
  <path fill="#fff" fill-rule="nonzero" d="M0.328,-0l-0.152,-0l-0.173,-0.708l0.134,0l0.118,0.568l0.003,-0l0.118,-0.568l0.128,0l-0.176,0.708Z" transform="matrix(1,0,0,1,-430.4,-568.538) matrix(28,0,0,28,551.744,699.947)"/>
  <path fill="#fff" fill-rule="nonzero" d="M0.379,-0l-0.035,-0.15l-0.186,0l-0.036,0.15l-0.12,-0l0.176,-0.708l0.153,0l0.173,0.708l-0.125,-0Zm-0.125,-0.595l-0.004,0l-0.077,0.351l0.156,-0l-0.075,-0.351Z" transform="matrix(1,0,0,1,-430.4,-568.538) matrix(28,0,0,28,565.884,699.947)"/>
  <path fill="#fff" fill-rule="nonzero" d="M0.249,-0.606l0,0.606l-0.118,-0l0,-0.606l-0.133,0l0,-0.102l0.384,0l0,0.102l-0.133,0Z" transform="matrix(1,0,0,1,-430.4,-568.538) matrix(28,0,0,28,579.828,699.947)"/>
  <path fill="#fff" fill-rule="nonzero" d="M.072-.708H.192V0H.072z" transform="matrix(1,0,0,1,-430.4,-568.538) matrix(28,0,0,28,590.748,699.947)"/>
  <path fill="#fff" fill-rule="nonzero" d="M0.551,-0.355c0,0.056 -0.006,0.107 -0.018,0.152c-0.011,0.046 -0.028,0.085 -0.05,0.118c-0.022,0.033 -0.049,0.058 -0.081,0.076c-0.031,0.018 -0.067,0.027 -0.106,0.027c-0.04,-0 -0.076,-0.009 -0.107,-0.027c-0.031,-0.018 -0.058,-0.043 -0.08,-0.076c-0.022,-0.033 -0.039,-0.072 -0.051,-0.118c-0.011,-0.045 -0.017,-0.096 -0.017,-0.152c-0,-0.056 0.006,-0.107 0.017,-0.152c0.011,-0.045 0.028,-0.084 0.05,-0.117c0.022,-0.033 0.049,-0.058 0.08,-0.076c0.032,-0.017 0.068,-0.026 0.108,-0.026c0.039,0 0.075,0.009 0.106,0.026c0.032,0.018 0.059,0.043 0.081,0.076c0.022,0.033 0.039,0.072 0.05,0.117c0.012,0.045 0.018,0.096 0.018,0.152Zm-0.124,0c-0,-0.036 -0.003,-0.07 -0.009,-0.102c-0.005,-0.031 -0.014,-0.058 -0.025,-0.082c-0.011,-0.023 -0.024,-0.041 -0.041,-0.054c-0.016,-0.013 -0.035,-0.02 -0.056,-0.02c-0.022,0 -0.041,0.007 -0.058,0.02c-0.016,0.013 -0.03,0.031 -0.041,0.054c-0.011,0.023 -0.019,0.051 -0.024,0.082c-0.005,0.032 -0.008,0.066 -0.008,0.102c-0,0.036 0.003,0.07 0.008,0.101c0.005,0.032 0.013,0.06 0.024,0.083c0.011,0.023 0.025,0.042 0.041,0.055c0.017,0.013 0.036,0.02 0.058,0.02c0.022,-0 0.041,-0.007 0.057,-0.02c0.017,-0.013 0.03,-0.032 0.041,-0.055c0.012,-0.023 0.02,-0.051 0.025,-0.083c0.005,-0.031 0.008,-0.065 0.008,-0.101Z" transform="matrix(1,0,0,1,-430.4,-568.538) matrix(28,0,0,28,598.42,699.947)"/>
  <path fill="#fff" fill-rule="nonzero" d="M0.382,-0l-0.201,-0.5l-0.003,0l0.002,0.5l-0.108,-0l0,-0.708l0.137,0l0.199,0.503l0.003,-0l-0.001,-0.503l0.104,0l0,0.708l-0.132,-0Z" transform="matrix(1,0,0,1,-430.4,-568.538) matrix(28,0,0,28,615.248,699.947)"/>
</svg>
