<svg xmlns="http://www.w3.org/2000/svg" xml:space="preserve" fill-rule="evenodd" stroke-linejoin="round" stroke-miterlimit="2" clip-rule="evenodd" viewBox="0 0 240 226">
  <path fill="#7ab0d7" d="M88.802,0l151.07,87.22c-51.484,87.555 -138.305,137.682 -239.872,138.491l0,-174.428c37.588,-0.897 70.408,-21.21 88.802,-51.283Z"/>
  <path fill="#fff" fill-rule="nonzero" d="M40.609,101.216l-3.08,-8.456l-1.876,0l0,8.456l-3.248,0l0,-19.824l5.656,0c0.812,0 1.568,0.112 2.268,0.308c0.7,0.224 1.288,0.56 1.764,1.036c0.504,0.476 0.896,1.064 1.176,1.764c0.28,0.7 0.42,1.568 0.42,2.548c-0,0.756 -0.112,1.428 -0.308,2.044c-0.196,0.588 -0.42,1.064 -0.728,1.484c-0.308,0.42 -0.644,0.756 -0.98,1.008c-0.392,0.224 -0.728,0.42 -1.092,0.504l3.556,9.128l-3.528,0Zm-0.224,-14c-0,-0.588 -0.084,-1.092 -0.252,-1.484c-0.168,-0.392 -0.392,-0.7 -0.672,-0.924c-0.252,-0.224 -0.56,-0.392 -0.896,-0.476c-0.336,-0.084 -0.672,-0.14 -1.008,-0.14l-1.904,0l-0,6.104l1.904,0c0.812,0 1.484,-0.252 2.044,-0.756c0.504,-0.532 0.784,-1.288 0.784,-2.324Z"/>
  <path fill="#fff" fill-rule="nonzero" d="M47.049,101.216l0,-19.824l8.876,0l0,2.968l-5.656,0l0,5.264l5.236,0l0,2.744l-5.236,0l0,5.852l5.936,0l0,2.996l-9.156,0Z"/>
  <path fill="#fff" fill-rule="nonzero" d="M68.133,101.216l-0.98,-4.2l-5.208,0l-1.008,4.2l-3.36,0l4.928,-19.824l4.284,0l4.844,19.824l-3.5,0Zm-3.5,-16.66l-0.112,0l-2.156,9.828l4.368,0l-2.1,-9.828Z"/>
  <path fill="#fff" fill-rule="nonzero" d="M73.985,101.216l0,-19.824l3.388,0l0,16.716l5.46,0l0,3.108l-8.848,0Z"/>
  <path fill="#fff" fill-rule="nonzero" d="M105.401,101.216l-3.864,0l-2.744,-14.896l-0.056,0l-2.744,14.896l-3.864,0l-3.78,-19.824l3.416,0l2.548,15.4l0.112,0l2.66,-15.4l3.528,0l2.744,15.4l0.056,0l2.548,-15.4l3.248,0l-3.808,19.824Z"/>
  <path fill="#fff" fill-rule="nonzero" d="M125.253,91.276c0,1.568 -0.168,2.996 -0.504,4.256c-0.308,1.288 -0.784,2.38 -1.4,3.304c-0.616,0.924 -1.372,1.624 -2.268,2.128c-0.868,0.504 -1.876,0.756 -2.968,0.756c-1.12,0 -2.128,-0.252 -2.996,-0.756c-0.868,-0.504 -1.624,-1.204 -2.24,-2.128c-0.616,-0.924 -1.092,-2.016 -1.428,-3.304c-0.308,-1.26 -0.476,-2.688 -0.476,-4.256c0,-1.568 0.168,-2.996 0.476,-4.256c0.308,-1.26 0.784,-2.352 1.4,-3.276c0.616,-0.924 1.372,-1.624 2.24,-2.128c0.896,-0.476 1.904,-0.728 3.024,-0.728c1.092,0 2.1,0.252 2.968,0.728c0.896,0.504 1.652,1.204 2.268,2.128c0.616,0.924 1.092,2.016 1.4,3.276c0.336,1.26 0.504,2.688 0.504,4.256Zm-3.472,0c0,-1.008 -0.084,-1.96 -0.252,-2.856c-0.14,-0.868 -0.392,-1.624 -0.7,-2.296c-0.308,-0.644 -0.672,-1.148 -1.148,-1.512c-0.448,-0.364 -0.98,-0.56 -1.568,-0.56c-0.616,0 -1.148,0.196 -1.624,0.56c-0.448,0.364 -0.84,0.868 -1.148,1.512c-0.308,0.644 -0.532,1.428 -0.672,2.296c-0.14,0.896 -0.224,1.848 -0.224,2.856c0,1.008 0.084,1.96 0.224,2.828c0.14,0.896 0.364,1.68 0.672,2.324c0.308,0.644 0.7,1.176 1.148,1.54c0.476,0.364 1.008,0.56 1.624,0.56c0.616,0 1.148,-0.196 1.596,-0.56c0.476,-0.364 0.84,-0.896 1.148,-1.54c0.336,-0.644 0.56,-1.428 0.7,-2.324c0.14,-0.868 0.224,-1.82 0.224,-2.828Z"/>
  <path fill="#fff" fill-rule="nonzero" d="M136.873,101.216l-3.08,-8.456l-1.876,0l0,8.456l-3.248,0l0,-19.824l5.656,0c0.812,0 1.568,0.112 2.268,0.308c0.7,0.224 1.288,0.56 1.764,1.036c0.504,0.476 0.896,1.064 1.176,1.764c0.28,0.7 0.42,1.568 0.42,2.548c0,0.756 -0.112,1.428 -0.308,2.044c-0.196,0.588 -0.42,1.064 -0.728,1.484c-0.308,0.42 -0.644,0.756 -0.98,1.008c-0.392,0.224 -0.728,0.42 -1.092,0.504l3.556,9.128l-3.528,0Zm-0.224,-14c0,-0.588 -0.084,-1.092 -0.252,-1.484c-0.168,-0.392 -0.392,-0.7 -0.672,-0.924c-0.252,-0.224 -0.56,-0.392 -0.896,-0.476c-0.336,-0.084 -0.672,-0.14 -1.008,-0.14l-1.904,0l0,6.104l1.904,0c0.812,0 1.484,-0.252 2.044,-0.756c0.504,-0.532 0.784,-1.288 0.784,-2.324Z"/>
  <path fill="#fff" fill-rule="nonzero" d="M143.313,101.216l0,-19.824l3.388,0l0,16.716l5.46,0l0,3.108l-8.848,0Z"/>
  <path fill="#fff" fill-rule="nonzero" d="M167.365,91.332c0,3.136 -0.672,5.572 -1.988,7.28c-1.316,1.736 -3.248,2.604 -5.796,2.604l-4.956,0l0,-19.824l4.984,0c2.548,0 4.452,0.868 5.796,2.604c1.288,1.764 1.96,4.2 1.96,7.336Zm-3.36,0c0,-1.176 -0.112,-2.212 -0.336,-3.08c-0.196,-0.868 -0.504,-1.596 -0.896,-2.184c-0.392,-0.588 -0.868,-1.008 -1.4,-1.316c-0.532,-0.28 -1.12,-0.42 -1.764,-0.42l-1.596,0l0,13.944l1.596,0c0.644,0 1.232,-0.14 1.764,-0.448c0.532,-0.28 1.008,-0.7 1.4,-1.288c0.392,-0.588 0.7,-1.316 0.924,-2.184c0.196,-0.868 0.308,-1.876 0.308,-3.024Z"/>
  <path fill="#fff" fill-rule="nonzero" d="M35.401,129.078c-0.532,0.784 -1.176,1.428 -2.016,1.904c-0.784,0.476 -1.82,0.728 -3.052,0.728c-1.12,0 -2.128,-0.252 -3.024,-0.784c-0.924,-0.532 -1.68,-1.26 -2.324,-2.184c-0.616,-0.924 -1.092,-2.016 -1.456,-3.276c-0.336,-1.26 -0.504,-2.66 -0.504,-4.172c0,-1.512 0.168,-2.912 0.532,-4.172c0.336,-1.288 0.812,-2.408 1.456,-3.332c0.644,-0.896 1.4,-1.624 2.324,-2.156c0.896,-0.504 1.904,-0.756 2.996,-0.756c1.148,-0 2.128,0.196 2.996,0.616c0.868,0.42 1.568,1.036 2.1,1.82l-1.932,2.352c-0.756,-1.092 -1.764,-1.652 -2.968,-1.652c-0.672,-0 -1.26,0.196 -1.764,0.588c-0.504,0.364 -0.924,0.896 -1.26,1.54c-0.336,0.644 -0.588,1.428 -0.756,2.324c-0.168,0.868 -0.252,1.82 -0.252,2.828c0,0.98 0.084,1.932 0.252,2.8c0.168,0.896 0.42,1.68 0.756,2.324c0.336,0.644 0.756,1.176 1.26,1.54c0.532,0.392 1.12,0.588 1.82,0.588c0.644,0 1.204,-0.168 1.708,-0.504c0.476,-0.336 0.868,-0.756 1.176,-1.232l1.932,2.268Z"/>
  <path fill="#fff" fill-rule="nonzero" d="M51.137,121.266c0,1.568 -0.168,2.996 -0.504,4.256c-0.308,1.288 -0.784,2.38 -1.4,3.304c-0.616,0.924 -1.372,1.624 -2.268,2.128c-0.868,0.504 -1.876,0.756 -2.968,0.756c-1.12,0 -2.128,-0.252 -2.996,-0.756c-0.868,-0.504 -1.624,-1.204 -2.24,-2.128c-0.616,-0.924 -1.092,-2.016 -1.428,-3.304c-0.308,-1.26 -0.476,-2.688 -0.476,-4.256c0,-1.568 0.168,-2.996 0.476,-4.256c0.308,-1.26 0.784,-2.352 1.4,-3.276c0.616,-0.924 1.372,-1.624 2.24,-2.128c0.896,-0.476 1.904,-0.728 3.024,-0.728c1.092,-0 2.1,0.252 2.968,0.728c0.896,0.504 1.652,1.204 2.268,2.128c0.616,0.924 1.092,2.016 1.4,3.276c0.336,1.26 0.504,2.688 0.504,4.256Zm-3.472,0c0,-1.008 -0.084,-1.96 -0.252,-2.856c-0.14,-0.868 -0.392,-1.624 -0.7,-2.296c-0.308,-0.644 -0.672,-1.148 -1.148,-1.512c-0.448,-0.364 -0.98,-0.56 -1.568,-0.56c-0.616,0 -1.148,0.196 -1.624,0.56c-0.448,0.364 -0.84,0.868 -1.148,1.512c-0.308,0.644 -0.532,1.428 -0.672,2.296c-0.14,0.896 -0.224,1.848 -0.224,2.856c0,1.008 0.084,1.96 0.224,2.828c0.14,0.896 0.364,1.68 0.672,2.324c0.308,0.644 0.7,1.176 1.148,1.54c0.476,0.364 1.008,0.56 1.624,0.56c0.616,0 1.148,-0.196 1.596,-0.56c0.476,-0.364 0.84,-0.896 1.148,-1.54c0.336,-0.644 0.56,-1.428 0.7,-2.324c0.14,-0.868 0.224,-1.82 0.224,-2.828Z"/>
  <path fill="#fff" fill-rule="nonzero" d="M63.233,131.206l-5.628,-14l-0.084,0l0.056,14l-3.024,0l0,-19.824l3.836,0l5.572,14.084l0.084,0l-0.028,-14.084l2.912,0l0,19.824l-3.696,0Z"/>
  <path fill="#fff" fill-rule="nonzero" d="M79.921,131.206l-5.628,-14l-0.084,0l0.056,14l-3.024,0l0,-19.824l3.836,0l5.572,14.084l0.084,0l-0.028,-14.084l2.912,0l0,19.824l-3.696,0Z"/>
  <path fill="#fff" fill-rule="nonzero" d="M87.929,131.206l0,-19.824l8.876,0l0,2.968l-5.656,0l0,5.264l5.236,0l0,2.744l-5.236,0l0,5.852l5.936,0l0,2.996l-9.156,0Z"/>
  <path fill="#fff" fill-rule="nonzero" d="M111.925,129.078c-0.532,0.784 -1.176,1.428 -2.016,1.904c-0.784,0.476 -1.82,0.728 -3.052,0.728c-1.12,0 -2.128,-0.252 -3.024,-0.784c-0.924,-0.532 -1.68,-1.26 -2.324,-2.184c-0.616,-0.924 -1.092,-2.016 -1.456,-3.276c-0.336,-1.26 -0.504,-2.66 -0.504,-4.172c0,-1.512 0.168,-2.912 0.532,-4.172c0.336,-1.288 0.812,-2.408 1.456,-3.332c0.644,-0.896 1.4,-1.624 2.324,-2.156c0.896,-0.504 1.904,-0.756 2.996,-0.756c1.148,-0 2.128,0.196 2.996,0.616c0.868,0.42 1.568,1.036 2.1,1.82l-1.932,2.352c-0.756,-1.092 -1.764,-1.652 -2.968,-1.652c-0.672,-0 -1.26,0.196 -1.764,0.588c-0.504,0.364 -0.924,0.896 -1.26,1.54c-0.336,0.644 -0.588,1.428 -0.756,2.324c-0.168,0.868 -0.252,1.82 -0.252,2.828c0,0.98 0.084,1.932 0.252,2.8c0.168,0.896 0.42,1.68 0.756,2.324c0.336,0.644 0.756,1.176 1.26,1.54c0.532,0.392 1.12,0.588 1.82,0.588c0.644,0 1.204,-0.168 1.708,-0.504c0.476,-0.336 0.868,-0.756 1.176,-1.232l1.932,2.268Z"/>
  <path fill="#fff" fill-rule="nonzero" d="M119.373,114.238l0,16.968l-3.304,0l0,-16.968l-3.724,0l0,-2.856l10.752,0l0,2.856l-3.724,0Z"/>
  <path fill="#fff" fill-rule="nonzero" d="M125.337 111.382H128.697V131.206H125.337z"/>
  <path fill="#fff" fill-rule="nonzero" d="M146.421,121.266c0,1.568 -0.168,2.996 -0.504,4.256c-0.308,1.288 -0.784,2.38 -1.4,3.304c-0.616,0.924 -1.372,1.624 -2.268,2.128c-0.868,0.504 -1.876,0.756 -2.968,0.756c-1.12,0 -2.128,-0.252 -2.996,-0.756c-0.868,-0.504 -1.624,-1.204 -2.24,-2.128c-0.616,-0.924 -1.092,-2.016 -1.428,-3.304c-0.308,-1.26 -0.476,-2.688 -0.476,-4.256c0,-1.568 0.168,-2.996 0.476,-4.256c0.308,-1.26 0.784,-2.352 1.4,-3.276c0.616,-0.924 1.372,-1.624 2.24,-2.128c0.896,-0.476 1.904,-0.728 3.024,-0.728c1.092,-0 2.1,0.252 2.968,0.728c0.896,0.504 1.652,1.204 2.268,2.128c0.616,0.924 1.092,2.016 1.4,3.276c0.336,1.26 0.504,2.688 0.504,4.256Zm-3.472,0c0,-1.008 -0.084,-1.96 -0.252,-2.856c-0.14,-0.868 -0.392,-1.624 -0.7,-2.296c-0.308,-0.644 -0.672,-1.148 -1.148,-1.512c-0.448,-0.364 -0.98,-0.56 -1.568,-0.56c-0.616,0 -1.148,0.196 -1.624,0.56c-0.448,0.364 -0.84,0.868 -1.148,1.512c-0.308,0.644 -0.532,1.428 -0.672,2.296c-0.14,0.896 -0.224,1.848 -0.224,2.856c0,1.008 0.084,1.96 0.224,2.828c0.14,0.896 0.364,1.68 0.672,2.324c0.308,0.644 0.7,1.176 1.148,1.54c0.476,0.364 1.008,0.56 1.624,0.56c0.616,0 1.148,-0.196 1.596,-0.56c0.476,-0.364 0.84,-0.896 1.148,-1.54c0.336,-0.644 0.56,-1.428 0.7,-2.324c0.14,-0.868 0.224,-1.82 0.224,-2.828Z"/>
  <path fill="#fff" fill-rule="nonzero" d="M158.517,131.206l-5.628,-14l-0.084,0l0.056,14l-3.024,0l0,-19.824l3.836,0l5.572,14.084l0.084,0l-0.028,-14.084l2.912,0l-0,19.824l-3.696,0Z"/>
  <path fill="#fff" fill-rule="nonzero" d="M174.309,115.218c-0.728,-0.868 -1.652,-1.316 -2.744,-1.316c-0.308,0 -0.616,0.056 -0.924,0.168c-0.308,0.084 -0.56,0.252 -0.812,0.476c-0.252,0.224 -0.448,0.504 -0.56,0.868c-0.168,0.364 -0.224,0.784 -0.224,1.26c0,0.84 0.252,1.484 0.756,1.96c0.504,0.448 1.176,0.868 1.988,1.288c0.476,0.252 0.98,0.532 1.484,0.84c0.504,0.308 0.952,0.7 1.372,1.148c0.42,0.448 0.756,0.98 1.008,1.596c0.252,0.616 0.392,1.344 0.392,2.184c0,0.98 -0.168,1.82 -0.476,2.576c-0.308,0.756 -0.7,1.372 -1.232,1.904c-0.504,0.504 -1.092,0.896 -1.792,1.148c-0.7,0.252 -1.428,0.392 -2.184,0.392c-1.092,0 -2.128,-0.224 -3.052,-0.644c-0.924,-0.42 -1.68,-0.98 -2.24,-1.624l1.82,-2.464c0.42,0.532 0.952,0.924 1.54,1.232c0.616,0.308 1.232,0.448 1.876,0.448c0.7,0 1.288,-0.252 1.764,-0.728c0.476,-0.476 0.7,-1.176 0.7,-2.044c0,-0.868 -0.28,-1.54 -0.84,-2.044c-0.56,-0.504 -1.26,-0.98 -2.128,-1.4c-0.532,-0.252 -1.064,-0.56 -1.512,-0.868c-0.504,-0.308 -0.924,-0.7 -1.288,-1.148c-0.364,-0.42 -0.644,-0.952 -0.868,-1.54c-0.196,-0.588 -0.308,-1.288 -0.308,-2.1c0,-1.036 0.168,-1.904 0.476,-2.66c0.336,-0.728 0.756,-1.344 1.288,-1.82c0.532,-0.476 1.148,-0.84 1.82,-1.092c0.672,-0.224 1.344,-0.336 2.044,-0.336c1.008,0 1.904,0.168 2.688,0.476c0.812,0.336 1.484,0.812 2.016,1.456l-1.848,2.408Z"/>
</svg>
