<svg xmlns="http://www.w3.org/2000/svg" xml:space="preserve" fill-rule="evenodd" stroke-linejoin="round" stroke-miterlimit="2" clip-rule="evenodd" viewBox="0 0 240 226">
  <path fill="#a2c8e3" d="M88.802,0l151.07,87.22c-51.484,87.555 -138.305,137.682 -239.872,138.491l0,-174.428c37.588,-0.897 70.408,-21.21 88.802,-51.283Z"/>
  <path fill="#fff" fill-rule="nonzero" d="M0.365,-0l-0.11,-0.302l-0.067,0l0,0.302l-0.116,-0l0,-0.708l0.202,0c0.029,0 0.056,0.004 0.081,0.011c0.025,0.008 0.046,0.02 0.063,0.037c0.018,0.017 0.032,0.038 0.042,0.063c0.01,0.025 0.015,0.056 0.015,0.091c-0,0.027 -0.004,0.051 -0.011,0.073c-0.007,0.021 -0.015,0.038 -0.026,0.053c-0.011,0.015 -0.023,0.027 -0.035,0.036c-0.014,0.008 -0.026,0.015 -0.039,0.018l0.127,0.326l-0.126,-0Zm-0.008,-0.5c-0,-0.021 -0.003,-0.039 -0.009,-0.053c-0.006,-0.014 -0.014,-0.025 -0.024,-0.033c-0.009,-0.008 -0.02,-0.014 -0.032,-0.017c-0.012,-0.003 -0.024,-0.005 -0.036,-0.005l-0.068,0l0,0.218l0.068,0c0.029,0 0.053,-0.009 0.073,-0.027c0.018,-0.019 0.028,-0.046 0.028,-0.083Z" transform="matrix(1,0,0,1,-675.607,-568.741) matrix(28,0,0,28,705.996,669.957)"/>
  <path fill="#fff" fill-rule="nonzero" d="M0.072,-0l-0,-0.708l0.317,0l0,0.106l-0.202,0l0,0.188l0.187,0l0,0.098l-0.187,-0l0,0.209l0.212,-0l0,0.107l-0.327,-0Z" transform="matrix(1,0,0,1,-675.607,-568.741) matrix(28,0,0,28,720.64,669.957)"/>
  <path fill="#fff" fill-rule="nonzero" d="M0.379,-0l-0.035,-0.15l-0.186,0l-0.036,0.15l-0.12,-0l0.176,-0.708l0.153,0l0.173,0.708l-0.125,-0Zm-0.125,-0.595l-0.004,0l-0.077,0.351l0.156,-0l-0.075,-0.351Z" transform="matrix(1,0,0,1,-675.607,-568.741) matrix(28,0,0,28,733.128,669.957)"/>
  <path fill="#fff" fill-rule="nonzero" d="M0.072,-0l-0,-0.708l0.121,0l0,0.597l0.195,-0l0,0.111l-0.316,-0Z" transform="matrix(1,0,0,1,-675.607,-568.741) matrix(28,0,0,28,747.576,669.957)"/>
  <path fill="#fff" fill-rule="nonzero" d="M0.621,-0l-0.138,-0l-0.098,-0.532l-0.002,0l-0.098,0.532l-0.138,-0l-0.135,-0.708l0.122,0l0.091,0.55l0.004,-0l0.095,-0.55l0.126,0l0.098,0.55l0.002,-0l0.091,-0.55l0.116,0l-0.136,0.708Z" transform="matrix(1,0,0,1,-675.607,-568.741) matrix(28,0,0,28,763.62,669.957)"/>
  <path fill="#fff" fill-rule="nonzero" d="M0.551,-0.355c0,0.056 -0.006,0.107 -0.018,0.152c-0.011,0.046 -0.028,0.085 -0.05,0.118c-0.022,0.033 -0.049,0.058 -0.081,0.076c-0.031,0.018 -0.067,0.027 -0.106,0.027c-0.04,-0 -0.076,-0.009 -0.107,-0.027c-0.031,-0.018 -0.058,-0.043 -0.08,-0.076c-0.022,-0.033 -0.039,-0.072 -0.051,-0.118c-0.011,-0.045 -0.017,-0.096 -0.017,-0.152c-0,-0.056 0.006,-0.107 0.017,-0.152c0.011,-0.045 0.028,-0.084 0.05,-0.117c0.022,-0.033 0.049,-0.058 0.08,-0.076c0.032,-0.017 0.068,-0.026 0.108,-0.026c0.039,0 0.075,0.009 0.106,0.026c0.032,0.018 0.059,0.043 0.081,0.076c0.022,0.033 0.039,0.072 0.05,0.117c0.012,0.045 0.018,0.096 0.018,0.152Zm-0.124,0c-0,-0.036 -0.003,-0.07 -0.009,-0.102c-0.005,-0.031 -0.014,-0.058 -0.025,-0.082c-0.011,-0.023 -0.024,-0.041 -0.041,-0.054c-0.016,-0.013 -0.035,-0.02 -0.056,-0.02c-0.022,0 -0.041,0.007 -0.058,0.02c-0.016,0.013 -0.03,0.031 -0.041,0.054c-0.011,0.023 -0.019,0.051 -0.024,0.082c-0.005,0.032 -0.008,0.066 -0.008,0.102c-0,0.036 0.003,0.07 0.008,0.101c0.005,0.032 0.013,0.06 0.024,0.083c0.011,0.023 0.025,0.042 0.041,0.055c0.017,0.013 0.036,0.02 0.058,0.02c0.022,-0 0.041,-0.007 0.057,-0.02c0.017,-0.013 0.03,-0.032 0.041,-0.055c0.012,-0.023 0.02,-0.051 0.025,-0.083c0.005,-0.031 0.008,-0.065 0.008,-0.101Z" transform="matrix(1,0,0,1,-675.607,-568.741) matrix(28,0,0,28,785.432,669.957)"/>
  <path fill="#fff" fill-rule="nonzero" d="M0.365,-0l-0.11,-0.302l-0.067,0l0,0.302l-0.116,-0l0,-0.708l0.202,0c0.029,0 0.056,0.004 0.081,0.011c0.025,0.008 0.046,0.02 0.063,0.037c0.018,0.017 0.032,0.038 0.042,0.063c0.01,0.025 0.015,0.056 0.015,0.091c-0,0.027 -0.004,0.051 -0.011,0.073c-0.007,0.021 -0.015,0.038 -0.026,0.053c-0.011,0.015 -0.023,0.027 -0.035,0.036c-0.014,0.008 -0.026,0.015 -0.039,0.018l0.127,0.326l-0.126,-0Zm-0.008,-0.5c-0,-0.021 -0.003,-0.039 -0.009,-0.053c-0.006,-0.014 -0.014,-0.025 -0.024,-0.033c-0.009,-0.008 -0.02,-0.014 -0.032,-0.017c-0.012,-0.003 -0.024,-0.005 -0.036,-0.005l-0.068,0l0,0.218l0.068,0c0.029,0 0.053,-0.009 0.073,-0.027c0.018,-0.019 0.028,-0.046 0.028,-0.083Z" transform="matrix(1,0,0,1,-675.607,-568.741) matrix(28,0,0,28,802.26,669.957)"/>
  <path fill="#fff" fill-rule="nonzero" d="M0.072,-0l-0,-0.708l0.121,0l0,0.597l0.195,-0l0,0.111l-0.316,-0Z" transform="matrix(1,0,0,1,-675.607,-568.741) matrix(28,0,0,28,816.904,669.957)"/>
  <path fill="#fff" fill-rule="nonzero" d="M0.527,-0.353c0,0.112 -0.024,0.199 -0.071,0.26c-0.047,0.062 -0.116,0.093 -0.207,0.093l-0.177,-0l-0,-0.708l0.178,0c0.091,0 0.159,0.031 0.207,0.093c0.046,0.063 0.07,0.15 0.07,0.262Zm-0.12,0c-0,-0.042 -0.004,-0.079 -0.012,-0.11c-0.007,-0.031 -0.018,-0.057 -0.032,-0.078c-0.014,-0.021 -0.031,-0.036 -0.05,-0.047c-0.019,-0.01 -0.04,-0.015 -0.063,-0.015l-0.057,0l0,0.498l0.057,-0c0.023,-0 0.044,-0.005 0.063,-0.016c0.019,-0.01 0.036,-0.025 0.05,-0.046c0.014,-0.021 0.025,-0.047 0.033,-0.078c0.007,-0.031 0.011,-0.067 0.011,-0.108Z" transform="matrix(1,0,0,1,-675.607,-568.741) matrix(28,0,0,28,828.216,669.957)"/>
  <path fill="#fff" fill-rule="nonzero" d="M0.483,-0.076c-0.019,0.028 -0.042,0.051 -0.072,0.068c-0.028,0.017 -0.065,0.026 -0.109,0.026c-0.04,-0 -0.076,-0.009 -0.108,-0.028c-0.033,-0.019 -0.06,-0.045 -0.083,-0.078c-0.022,-0.033 -0.039,-0.072 -0.052,-0.117c-0.012,-0.045 -0.018,-0.095 -0.018,-0.149c0,-0.054 0.006,-0.104 0.019,-0.149c0.012,-0.046 0.029,-0.086 0.052,-0.119c0.023,-0.032 0.05,-0.058 0.083,-0.077c0.032,-0.018 0.068,-0.027 0.107,-0.027c0.041,0 0.076,0.007 0.107,0.022c0.031,0.015 0.056,0.037 0.075,0.065l-0.069,0.084c-0.027,-0.039 -0.063,-0.059 -0.106,-0.059c-0.024,0 -0.045,0.007 -0.063,0.021c-0.018,0.013 -0.033,0.032 -0.045,0.055c-0.012,0.023 -0.021,0.051 -0.027,0.083c-0.006,0.031 -0.009,0.065 -0.009,0.101c0,0.035 0.003,0.069 0.009,0.1c0.006,0.032 0.015,0.06 0.027,0.083c0.012,0.023 0.027,0.042 0.045,0.055c0.019,0.014 0.04,0.021 0.065,0.021c0.023,-0 0.043,-0.006 0.061,-0.018c0.017,-0.012 0.031,-0.027 0.042,-0.044l0.069,0.081Z" transform="matrix(1,0,0,1,-675.607,-568.741) matrix(28,0,0,28,697.484,699.947)"/>
  <path fill="#fff" fill-rule="nonzero" d="M0.551,-0.355c0,0.056 -0.006,0.107 -0.018,0.152c-0.011,0.046 -0.028,0.085 -0.05,0.118c-0.022,0.033 -0.049,0.058 -0.081,0.076c-0.031,0.018 -0.067,0.027 -0.106,0.027c-0.04,-0 -0.076,-0.009 -0.107,-0.027c-0.031,-0.018 -0.058,-0.043 -0.08,-0.076c-0.022,-0.033 -0.039,-0.072 -0.051,-0.118c-0.011,-0.045 -0.017,-0.096 -0.017,-0.152c-0,-0.056 0.006,-0.107 0.017,-0.152c0.011,-0.045 0.028,-0.084 0.05,-0.117c0.022,-0.033 0.049,-0.058 0.08,-0.076c0.032,-0.017 0.068,-0.026 0.108,-0.026c0.039,0 0.075,0.009 0.106,0.026c0.032,0.018 0.059,0.043 0.081,0.076c0.022,0.033 0.039,0.072 0.05,0.117c0.012,0.045 0.018,0.096 0.018,0.152Zm-0.124,0c-0,-0.036 -0.003,-0.07 -0.009,-0.102c-0.005,-0.031 -0.014,-0.058 -0.025,-0.082c-0.011,-0.023 -0.024,-0.041 -0.041,-0.054c-0.016,-0.013 -0.035,-0.02 -0.056,-0.02c-0.022,0 -0.041,0.007 -0.058,0.02c-0.016,0.013 -0.03,0.031 -0.041,0.054c-0.011,0.023 -0.019,0.051 -0.024,0.082c-0.005,0.032 -0.008,0.066 -0.008,0.102c-0,0.036 0.003,0.07 0.008,0.101c0.005,0.032 0.013,0.06 0.024,0.083c0.011,0.023 0.025,0.042 0.041,0.055c0.017,0.013 0.036,0.02 0.058,0.02c0.022,-0 0.041,-0.007 0.057,-0.02c0.017,-0.013 0.03,-0.032 0.041,-0.055c0.012,-0.023 0.02,-0.051 0.025,-0.083c0.005,-0.031 0.008,-0.065 0.008,-0.101Z" transform="matrix(1,0,0,1,-675.607,-568.741) matrix(28,0,0,28,711.316,699.947)"/>
  <path fill="#fff" fill-rule="nonzero" d="M0.382,-0l-0.201,-0.5l-0.003,0l0.002,0.5l-0.108,-0l0,-0.708l0.137,0l0.199,0.503l0.003,-0l-0.001,-0.503l0.104,0l0,0.708l-0.132,-0Z" transform="matrix(1,0,0,1,-675.607,-568.741) matrix(28,0,0,28,728.144,699.947)"/>
  <path fill="#fff" fill-rule="nonzero" d="M0.382,-0l-0.201,-0.5l-0.003,0l0.002,0.5l-0.108,-0l0,-0.708l0.137,0l0.199,0.503l0.003,-0l-0.001,-0.503l0.104,0l0,0.708l-0.132,-0Z" transform="matrix(1,0,0,1,-675.607,-568.741) matrix(28,0,0,28,744.832,699.947)"/>
  <path fill="#fff" fill-rule="nonzero" d="M0.072,-0l-0,-0.708l0.317,0l0,0.106l-0.202,0l0,0.188l0.187,0l0,0.098l-0.187,-0l0,0.209l0.212,-0l0,0.107l-0.327,-0Z" transform="matrix(1,0,0,1,-675.607,-568.741) matrix(28,0,0,28,761.52,699.947)"/>
  <path fill="#fff" fill-rule="nonzero" d="M0.483,-0.076c-0.019,0.028 -0.042,0.051 -0.072,0.068c-0.028,0.017 -0.065,0.026 -0.109,0.026c-0.04,-0 -0.076,-0.009 -0.108,-0.028c-0.033,-0.019 -0.06,-0.045 -0.083,-0.078c-0.022,-0.033 -0.039,-0.072 -0.052,-0.117c-0.012,-0.045 -0.018,-0.095 -0.018,-0.149c0,-0.054 0.006,-0.104 0.019,-0.149c0.012,-0.046 0.029,-0.086 0.052,-0.119c0.023,-0.032 0.05,-0.058 0.083,-0.077c0.032,-0.018 0.068,-0.027 0.107,-0.027c0.041,0 0.076,0.007 0.107,0.022c0.031,0.015 0.056,0.037 0.075,0.065l-0.069,0.084c-0.027,-0.039 -0.063,-0.059 -0.106,-0.059c-0.024,0 -0.045,0.007 -0.063,0.021c-0.018,0.013 -0.033,0.032 -0.045,0.055c-0.012,0.023 -0.021,0.051 -0.027,0.083c-0.006,0.031 -0.009,0.065 -0.009,0.101c0,0.035 0.003,0.069 0.009,0.1c0.006,0.032 0.015,0.06 0.027,0.083c0.012,0.023 0.027,0.042 0.045,0.055c0.019,0.014 0.04,0.021 0.065,0.021c0.023,-0 0.043,-0.006 0.061,-0.018c0.017,-0.012 0.031,-0.027 0.042,-0.044l0.069,0.081Z" transform="matrix(1,0,0,1,-675.607,-568.741) matrix(28,0,0,28,774.008,699.947)"/>
  <path fill="#fff" fill-rule="nonzero" d="M0.249,-0.606l0,0.606l-0.118,-0l0,-0.606l-0.133,0l0,-0.102l0.384,0l0,0.102l-0.133,0Z" transform="matrix(1,0,0,1,-675.607,-568.741) matrix(28,0,0,28,788.008,699.947)"/>
  <path fill="#fff" fill-rule="nonzero" d="M.072-.708H.192V0H.072z" transform="matrix(1,0,0,1,-675.607,-568.741) matrix(28,0,0,28,798.928,699.947)"/>
  <path fill="#fff" fill-rule="nonzero" d="M0.551,-0.355c0,0.056 -0.006,0.107 -0.018,0.152c-0.011,0.046 -0.028,0.085 -0.05,0.118c-0.022,0.033 -0.049,0.058 -0.081,0.076c-0.031,0.018 -0.067,0.027 -0.106,0.027c-0.04,-0 -0.076,-0.009 -0.107,-0.027c-0.031,-0.018 -0.058,-0.043 -0.08,-0.076c-0.022,-0.033 -0.039,-0.072 -0.051,-0.118c-0.011,-0.045 -0.017,-0.096 -0.017,-0.152c-0,-0.056 0.006,-0.107 0.017,-0.152c0.011,-0.045 0.028,-0.084 0.05,-0.117c0.022,-0.033 0.049,-0.058 0.08,-0.076c0.032,-0.017 0.068,-0.026 0.108,-0.026c0.039,0 0.075,0.009 0.106,0.026c0.032,0.018 0.059,0.043 0.081,0.076c0.022,0.033 0.039,0.072 0.05,0.117c0.012,0.045 0.018,0.096 0.018,0.152Zm-0.124,0c-0,-0.036 -0.003,-0.07 -0.009,-0.102c-0.005,-0.031 -0.014,-0.058 -0.025,-0.082c-0.011,-0.023 -0.024,-0.041 -0.041,-0.054c-0.016,-0.013 -0.035,-0.02 -0.056,-0.02c-0.022,0 -0.041,0.007 -0.058,0.02c-0.016,0.013 -0.03,0.031 -0.041,0.054c-0.011,0.023 -0.019,0.051 -0.024,0.082c-0.005,0.032 -0.008,0.066 -0.008,0.102c-0,0.036 0.003,0.07 0.008,0.101c0.005,0.032 0.013,0.06 0.024,0.083c0.011,0.023 0.025,0.042 0.041,0.055c0.017,0.013 0.036,0.02 0.058,0.02c0.022,-0 0.041,-0.007 0.057,-0.02c0.017,-0.013 0.03,-0.032 0.041,-0.055c0.012,-0.023 0.02,-0.051 0.025,-0.083c0.005,-0.031 0.008,-0.065 0.008,-0.101Z" transform="matrix(1,0,0,1,-675.607,-568.741) matrix(28,0,0,28,806.6,699.947)"/>
  <path fill="#fff" fill-rule="nonzero" d="M0.382,-0l-0.201,-0.5l-0.003,0l0.002,0.5l-0.108,-0l0,-0.708l0.137,0l0.199,0.503l0.003,-0l-0.001,-0.503l0.104,0l0,0.708l-0.132,-0Z" transform="matrix(1,0,0,1,-675.607,-568.741) matrix(28,0,0,28,823.428,699.947)"/>
  <path fill="#fff" fill-rule="nonzero" d="M0.35,-0.571c-0.026,-0.031 -0.059,-0.047 -0.098,-0.047c-0.011,0 -0.022,0.002 -0.033,0.006c-0.011,0.003 -0.02,0.009 -0.029,0.017c-0.009,0.008 -0.016,0.018 -0.02,0.031c-0.006,0.013 -0.008,0.028 -0.008,0.045c0,0.03 0.009,0.053 0.027,0.07c0.018,0.016 0.042,0.031 0.071,0.046c0.017,0.009 0.035,0.019 0.053,0.03c0.018,0.011 0.034,0.025 0.049,0.041c0.015,0.016 0.027,0.035 0.036,0.057c0.009,0.022 0.014,0.048 0.014,0.078c-0,0.035 -0.006,0.065 -0.017,0.092c-0.011,0.027 -0.025,0.049 -0.044,0.068c-0.018,0.018 -0.039,0.032 -0.064,0.041c-0.025,0.009 -0.051,0.014 -0.078,0.014c-0.039,-0 -0.076,-0.008 -0.109,-0.023c-0.033,-0.015 -0.06,-0.035 -0.08,-0.058l0.065,-0.088c0.015,0.019 0.034,0.033 0.055,0.044c0.022,0.011 0.044,0.016 0.067,0.016c0.025,0 0.046,-0.009 0.063,-0.026c0.017,-0.017 0.025,-0.042 0.025,-0.073c-0,-0.031 -0.01,-0.055 -0.03,-0.073c-0.02,-0.018 -0.045,-0.035 -0.076,-0.05c-0.019,-0.009 -0.038,-0.02 -0.054,-0.031c-0.018,-0.011 -0.033,-0.025 -0.046,-0.041c-0.013,-0.015 -0.023,-0.034 -0.031,-0.055c-0.007,-0.021 -0.011,-0.046 -0.011,-0.075c-0,-0.037 0.006,-0.068 0.017,-0.095c0.012,-0.026 0.027,-0.048 0.046,-0.065c0.019,-0.017 0.041,-0.03 0.065,-0.039c0.024,-0.008 0.048,-0.012 0.073,-0.012c0.036,-0 0.068,0.006 0.096,0.017c0.029,0.012 0.053,0.029 0.072,0.052l-0.066,0.086Z" transform="matrix(1,0,0,1,-675.607,-568.741) matrix(28,0,0,28,840.116,699.947)"/>
</svg>
