<svg xmlns="http://www.w3.org/2000/svg" xml:space="preserve" fill-rule="evenodd" stroke-linejoin="round" stroke-miterlimit="2" clip-rule="evenodd" viewBox="0 0 240 226">
  <path fill="#5697c8" d="M0,174.28l0,-174.28c101.567,0.809 188.388,50.935 239.872,138.491l-150.759,87.041c-18.451,-30.139 -51.4,-50.467 -89.113,-51.252Z"/>
  <path fill="#fff" fill-rule="nonzero" d="M19.076 95.201H22.436V115.025H19.076z"/>
  <path fill="#fff" fill-rule="nonzero" d="M35.148,115.025l-5.628,-14l-0.084,-0l0.056,14l-3.024,-0l-0,-19.824l3.836,-0l5.572,14.084l0.084,-0l-0.028,-14.084l2.912,-0l-0,19.824l-3.696,-0Z"/>
  <path fill="#fff" fill-rule="nonzero" d="M49.064,115.025c-1.092,-0 -2.044,-0.224 -2.912,-0.7c-0.868,-0.448 -1.624,-1.12 -2.24,-1.988c-0.616,-0.868 -1.092,-1.904 -1.4,-3.136c-0.336,-1.26 -0.504,-2.66 -0.504,-4.228c-0,-1.54 0.168,-2.94 0.504,-4.2c0.336,-1.26 0.812,-2.352 1.456,-3.248c0.616,-0.896 1.372,-1.596 2.268,-2.1c0.868,-0.476 1.848,-0.728 2.94,-0.728c1.092,-0 2.072,0.252 2.94,0.728c0.868,0.504 1.624,1.204 2.24,2.1c0.616,0.896 1.092,1.96 1.428,3.192c0.336,1.232 0.504,2.604 0.504,4.088c-0,0.784 -0.084,1.568 -0.224,2.324c-0.14,0.784 -0.336,1.484 -0.588,2.128c-0.252,0.644 -0.532,1.232 -0.868,1.708c-0.308,0.476 -0.644,0.84 -1.008,1.092l-0,0.112l3.528,-0.056l-0,2.912l-8.064,-0Zm3.78,-10.08c-0,-0.98 -0.084,-1.904 -0.224,-2.744c-0.168,-0.868 -0.42,-1.596 -0.728,-2.24c-0.308,-0.616 -0.7,-1.12 -1.148,-1.484c-0.476,-0.364 -0.98,-0.532 -1.568,-0.532c-0.588,-0 -1.12,0.168 -1.568,0.532c-0.476,0.364 -0.868,0.868 -1.176,1.484c-0.308,0.644 -0.56,1.372 -0.7,2.24c-0.168,0.84 -0.252,1.764 -0.252,2.744c-0,1.008 0.084,1.932 0.252,2.772c0.168,0.868 0.42,1.596 0.728,2.24c0.308,0.616 0.7,1.12 1.176,1.484c0.448,0.364 0.98,0.532 1.568,0.532c0.588,-0 1.12,-0.196 1.596,-0.56c0.448,-0.392 0.84,-0.896 1.148,-1.54c0.308,-0.644 0.532,-1.4 0.672,-2.24c0.14,-0.84 0.224,-1.736 0.224,-2.688Z"/>
  <path fill="#fff" fill-rule="nonzero" d="M71.772,107.997c-0,1.036 -0.112,2.016 -0.336,2.94c-0.224,0.924 -0.588,1.708 -1.092,2.408c-0.504,0.672 -1.148,1.204 -1.96,1.596c-0.784,0.392 -1.736,0.588 -2.884,0.588c-1.148,-0 -2.1,-0.196 -2.884,-0.588c-0.784,-0.392 -1.428,-0.924 -1.932,-1.596c-0.476,-0.7 -0.84,-1.484 -1.064,-2.408c-0.196,-0.924 -0.308,-1.904 -0.308,-2.94l-0,-12.796l3.36,-0l-0,12.488c-0,0.616 0.056,1.204 0.14,1.764c0.084,0.588 0.224,1.092 0.448,1.512c0.196,0.42 0.504,0.756 0.868,1.008c0.364,0.252 0.84,0.392 1.428,0.392c0.588,0 1.064,-0.14 1.428,-0.392c0.364,-0.252 0.672,-0.588 0.868,-1.008c0.224,-0.42 0.392,-0.924 0.476,-1.512c0.084,-0.56 0.112,-1.148 0.112,-1.764l-0,-12.488l3.332,-0l-0,12.796Z"/>
  <path fill="#fff" fill-rule="nonzero" d="M75.496 95.201H78.856V115.025H75.496z"/>
  <path fill="#fff" fill-rule="nonzero" d="M91.092,115.025l-3.08,-8.456l-1.876,-0l-0,8.456l-3.248,-0l-0,-19.824l5.656,-0c0.812,-0 1.568,0.112 2.268,0.308c0.7,0.224 1.288,0.56 1.764,1.036c0.504,0.476 0.896,1.064 1.176,1.764c0.28,0.7 0.42,1.568 0.42,2.548c-0,0.756 -0.112,1.428 -0.308,2.044c-0.196,0.588 -0.42,1.064 -0.728,1.484c-0.308,0.42 -0.644,0.756 -0.98,1.008c-0.392,0.224 -0.728,0.42 -1.092,0.504l3.556,9.128l-3.528,-0Zm-0.224,-14c-0,-0.588 -0.084,-1.092 -0.252,-1.484c-0.168,-0.392 -0.392,-0.7 -0.672,-0.924c-0.252,-0.224 -0.56,-0.392 -0.896,-0.476c-0.336,-0.084 -0.672,-0.14 -1.008,-0.14l-1.904,-0l-0,6.104l1.904,-0c0.812,-0 1.484,-0.252 2.044,-0.756c0.504,-0.532 0.784,-1.288 0.784,-2.324Z"/>
  <path fill="#fff" fill-rule="nonzero" d="M103.328,107.437l-0,7.588l-3.304,-0l-0,-7.588l-4.956,-12.236l3.64,-0l2.968,8.848l0.084,-0.056l3.024,-8.792l3.556,-0l-5.012,12.236Z"/>
  <path fill="#fff" fill-rule="nonzero" d="M107.416 106.261H112.232V108.725H107.416z"/>
  <path fill="#fff" fill-rule="nonzero" d="M126.624,109.481c-0,1.036 -0.168,1.932 -0.504,2.632c-0.364,0.7 -0.784,1.26 -1.316,1.708c-0.532,0.42 -1.148,0.728 -1.82,0.924c-0.644,0.196 -1.288,0.28 -1.932,0.28l-5.88,-0l-0,-19.824l5.264,-0c0.588,-0 1.204,0.056 1.848,0.196c0.644,0.14 1.26,0.392 1.792,0.756c0.532,0.364 0.98,0.868 1.344,1.512c0.364,0.644 0.532,1.484 0.532,2.52c-0,1.232 -0.252,2.212 -0.784,2.912c-0.532,0.7 -1.12,1.204 -1.82,1.484l-0,0.056c0.364,0.084 0.756,0.252 1.148,0.476c0.364,0.224 0.728,0.532 1.036,0.924c0.308,0.42 0.588,0.896 0.784,1.456c0.196,0.588 0.308,1.232 0.308,1.988Zm-3.696,-8.764c-0,-0.504 -0.084,-0.924 -0.224,-1.288c-0.168,-0.336 -0.364,-0.616 -0.616,-0.84c-0.252,-0.196 -0.56,-0.364 -0.896,-0.448c-0.336,-0.084 -0.672,-0.14 -1.008,-0.14l-1.848,-0l-0,5.516l1.904,-0c0.336,-0 0.644,-0.056 0.98,-0.168c0.308,-0.084 0.616,-0.252 0.868,-0.476c0.252,-0.224 0.448,-0.504 0.616,-0.868c0.14,-0.364 0.224,-0.784 0.224,-1.288Zm0.476,8.484c-0,-0.588 -0.084,-1.064 -0.28,-1.456c-0.196,-0.42 -0.42,-0.728 -0.728,-0.98c-0.28,-0.252 -0.616,-0.448 -0.98,-0.56c-0.336,-0.112 -0.7,-0.168 -1.036,-0.168l-2.044,-0l-0,6.188l2.128,-0c0.392,-0 0.784,-0.056 1.12,-0.168c0.364,-0.14 0.672,-0.308 0.952,-0.56c0.252,-0.252 0.476,-0.588 0.644,-0.952c0.14,-0.364 0.224,-0.812 0.224,-1.344Z"/>
  <path fill="#fff" fill-rule="nonzero" d="M138.3,115.025l-0.98,-4.2l-5.208,-0l-1.008,4.2l-3.36,-0l4.928,-19.824l4.284,-0l4.844,19.824l-3.5,-0Zm-3.5,-16.66l-0.112,-0l-2.156,9.828l4.368,-0l-2.1,-9.828Z"/>
  <path fill="#fff" fill-rule="nonzero" d="M151.656,99.037c-0.728,-0.868 -1.652,-1.316 -2.744,-1.316c-0.308,-0 -0.616,0.056 -0.924,0.168c-0.308,0.084 -0.56,0.252 -0.812,0.476c-0.252,0.224 -0.448,0.504 -0.56,0.868c-0.168,0.364 -0.224,0.784 -0.224,1.26c0,0.84 0.252,1.484 0.756,1.96c0.504,0.448 1.176,0.868 1.988,1.288c0.476,0.252 0.98,0.532 1.484,0.84c0.504,0.308 0.952,0.7 1.372,1.148c0.42,0.448 0.756,0.98 1.008,1.596c0.252,0.616 0.392,1.344 0.392,2.184c-0,0.98 -0.168,1.82 -0.476,2.576c-0.308,0.756 -0.7,1.372 -1.232,1.904c-0.504,0.504 -1.092,0.896 -1.792,1.148c-0.7,0.252 -1.428,0.392 -2.184,0.392c-1.092,0 -2.128,-0.224 -3.052,-0.644c-0.924,-0.42 -1.68,-0.98 -2.24,-1.624l1.82,-2.464c0.42,0.532 0.952,0.924 1.54,1.232c0.616,0.308 1.232,0.448 1.876,0.448c0.7,0 1.288,-0.252 1.764,-0.728c0.476,-0.476 0.7,-1.176 0.7,-2.044c-0,-0.868 -0.28,-1.54 -0.84,-2.044c-0.56,-0.504 -1.26,-0.98 -2.128,-1.4c-0.532,-0.252 -1.064,-0.56 -1.512,-0.868c-0.504,-0.308 -0.924,-0.7 -1.288,-1.148c-0.364,-0.42 -0.644,-0.952 -0.868,-1.54c-0.196,-0.588 -0.308,-1.288 -0.308,-2.1c-0,-1.036 0.168,-1.904 0.476,-2.66c0.336,-0.728 0.756,-1.344 1.288,-1.82c0.532,-0.476 1.148,-0.84 1.82,-1.092c0.672,-0.224 1.344,-0.336 2.044,-0.336c1.008,-0 1.904,0.168 2.688,0.476c0.812,0.336 1.484,0.812 2.016,1.456l-1.848,2.408Z"/>
  <path fill="#fff" fill-rule="nonzero" d="M156.444,115.025l-0,-19.824l8.876,-0l-0,2.968l-5.656,-0l-0,5.264l5.236,-0l0,2.744l-5.236,-0l-0,5.852l5.936,-0l-0,2.996l-9.156,-0Z"/>
  <path fill="#fff" fill-rule="nonzero" d="M181.392,105.141c-0,3.136 -0.672,5.572 -1.988,7.28c-1.316,1.736 -3.248,2.604 -5.796,2.604l-4.956,-0l-0,-19.824l4.984,-0c2.548,-0 4.452,0.868 5.796,2.604c1.288,1.764 1.96,4.2 1.96,7.336Zm-3.36,-0c-0,-1.176 -0.112,-2.212 -0.336,-3.08c-0.196,-0.868 -0.504,-1.596 -0.896,-2.184c-0.392,-0.588 -0.868,-1.008 -1.4,-1.316c-0.532,-0.28 -1.12,-0.42 -1.764,-0.42l-1.596,-0l-0,13.944l1.596,-0c0.644,-0 1.232,-0.14 1.764,-0.448c0.532,-0.28 1.008,-0.7 1.4,-1.288c0.392,-0.588 0.7,-1.316 0.924,-2.184c0.196,-0.868 0.308,-1.876 0.308,-3.024Z"/>
  <path fill="#fff" fill-rule="nonzero" d="M48.14,143.025l-0,-19.824l3.388,-0l-0,16.716l5.46,-0l-0,3.108l-8.848,-0Z"/>
  <path fill="#fff" fill-rule="nonzero" d="M59.172,143.025l-0,-19.824l8.876,-0l-0,2.968l-5.656,-0l-0,5.264l5.236,-0l-0,2.744l-5.236,-0l-0,5.852l5.936,-0l-0,2.996l-9.156,-0Z"/>
  <path fill="#fff" fill-rule="nonzero" d="M79.976,143.025l-0.98,-4.2l-5.208,-0l-1.008,4.2l-3.36,-0l4.928,-19.824l4.284,-0l4.844,19.824l-3.5,-0Zm-3.5,-16.66l-0.112,-0l-2.156,9.828l4.368,-0l-2.1,-9.828Z"/>
  <path fill="#fff" fill-rule="nonzero" d="M93.752,143.025l-3.08,-8.456l-1.876,-0l-0,8.456l-3.248,-0l-0,-19.824l5.656,-0c0.812,-0 1.568,0.112 2.268,0.308c0.7,0.224 1.288,0.56 1.764,1.036c0.504,0.476 0.896,1.064 1.176,1.764c0.28,0.7 0.42,1.568 0.42,2.548c-0,0.756 -0.112,1.428 -0.308,2.044c-0.196,0.588 -0.42,1.064 -0.728,1.484c-0.308,0.42 -0.644,0.756 -0.98,1.008c-0.392,0.224 -0.728,0.42 -1.092,0.504l3.556,9.128l-3.528,-0Zm-0.224,-14c-0,-0.588 -0.084,-1.092 -0.252,-1.484c-0.168,-0.392 -0.392,-0.7 -0.672,-0.924c-0.252,-0.224 -0.56,-0.392 -0.896,-0.476c-0.336,-0.084 -0.672,-0.14 -1.008,-0.14l-1.904,-0l-0,6.104l1.904,-0c0.812,-0 1.484,-0.252 2.044,-0.756c0.504,-0.532 0.784,-1.288 0.784,-2.324Z"/>
  <path fill="#fff" fill-rule="nonzero" d="M108.592,143.025l-5.628,-14l-0.084,-0l0.056,14l-3.024,-0l-0,-19.824l3.836,-0l5.572,14.084l0.084,-0l-0.028,-14.084l2.912,-0l-0,19.824l-3.696,-0Z"/>
  <path fill="#fff" fill-rule="nonzero" d="M116.32 123.201H119.68V143.025H116.32z"/>
  <path fill="#fff" fill-rule="nonzero" d="M132.392,143.025l-5.628,-14l-0.084,-0l0.056,14l-3.024,-0l-0,-19.824l3.836,-0l5.572,14.084l0.084,-0l-0.028,-14.084l2.912,-0l-0,19.824l-3.696,-0Z"/>
  <path fill="#fff" fill-rule="nonzero" d="M151.908,141.821c-0.588,0.476 -1.316,0.868 -2.156,1.176c-0.812,0.308 -1.82,0.448 -2.968,0.448c-1.176,-0 -2.24,-0.252 -3.164,-0.756c-0.924,-0.476 -1.736,-1.176 -2.38,-2.1c-0.644,-0.924 -1.12,-2.016 -1.484,-3.276c-0.336,-1.26 -0.504,-2.688 -0.504,-4.228c-0,-1.512 0.168,-2.912 0.504,-4.172c0.336,-1.26 0.812,-2.38 1.456,-3.304c0.644,-0.896 1.4,-1.624 2.296,-2.156c0.896,-0.504 1.904,-0.756 3.024,-0.756c1.176,0 2.184,0.196 3.052,0.616c0.868,0.42 1.568,1.036 2.1,1.792l-1.932,2.352c-0.756,-1.092 -1.764,-1.624 -3.024,-1.624c-0.7,-0 -1.288,0.196 -1.82,0.588c-0.504,0.392 -0.924,0.924 -1.26,1.568c-0.336,0.672 -0.588,1.456 -0.756,2.324c-0.168,0.868 -0.252,1.792 -0.252,2.772c-0,1.008 0.084,1.96 0.252,2.828c0.168,0.896 0.42,1.68 0.756,2.324c0.336,0.672 0.756,1.204 1.26,1.568c0.532,0.364 1.148,0.56 1.848,0.56c0.448,-0 0.868,-0.056 1.204,-0.168c0.392,-0.084 0.672,-0.224 0.896,-0.392l-0,-5.124l-2.408,-0l-0,-2.912l5.46,-0l-0,10.052Z"/>
</svg>
