<svg xmlns="http://www.w3.org/2000/svg" xml:space="preserve" fill-rule="evenodd" stroke-linejoin="round" stroke-miterlimit="2" clip-rule="evenodd" viewBox="0 0 189 277">
  <path fill="#7aa6bb" d="M37.373,276.49c-49.883,-88.227 -49.831,-188.283 0.159,-276.49l150.613,86.956c-8.356,15.218 -13.095,32.693 -13.095,51.266c-0,18.558 4.731,36.019 13.075,51.231l-150.752,87.037Z"/>
  <path fill="#fff" fill-rule="nonzero" d="M0.072,-0l-0,-0.708l0.317,0l0,0.106l-0.202,0l0,0.188l0.187,0l0,0.098l-0.187,-0l0,0.209l0.212,-0l0,0.107l-0.327,-0Z" transform="matrix(1,0,0,1,-390.872,-374.756) matrix(28,0,0,28,406.816,478.577)"/>
  <path fill="#fff" fill-rule="nonzero" d="M0.382,-0l-0.201,-0.5l-0.003,0l0.002,0.5l-0.108,-0l0,-0.708l0.137,0l0.199,0.503l0.003,-0l-0.001,-0.503l0.104,0l0,0.708l-0.132,-0Z" transform="matrix(1,0,0,1,-390.872,-374.756) matrix(28,0,0,28,419.304,478.577)"/>
  <path fill="#fff" fill-rule="nonzero" d="M0.493,-0.043c-0.021,0.017 -0.047,0.031 -0.077,0.042c-0.029,0.011 -0.065,0.016 -0.106,0.016c-0.042,-0 -0.08,-0.009 -0.113,-0.027c-0.033,-0.017 -0.062,-0.042 -0.085,-0.075c-0.023,-0.033 -0.04,-0.072 -0.053,-0.117c-0.012,-0.045 -0.018,-0.096 -0.018,-0.151c0,-0.054 0.006,-0.104 0.018,-0.149c0.012,-0.045 0.029,-0.085 0.052,-0.118c0.023,-0.032 0.05,-0.058 0.082,-0.077c0.032,-0.018 0.068,-0.027 0.108,-0.027c0.042,0 0.078,0.007 0.109,0.022c0.031,0.015 0.056,0.037 0.075,0.064l-0.069,0.084c-0.027,-0.039 -0.063,-0.058 -0.108,-0.058c-0.025,0 -0.046,0.007 -0.065,0.021c-0.018,0.014 -0.033,0.033 -0.045,0.056c-0.012,0.024 -0.021,0.052 -0.027,0.083c-0.006,0.031 -0.009,0.064 -0.009,0.099c0,0.036 0.003,0.07 0.009,0.101c0.006,0.032 0.015,0.06 0.027,0.083c0.012,0.024 0.027,0.043 0.045,0.056c0.019,0.013 0.041,0.02 0.066,0.02c0.016,-0 0.031,-0.002 0.043,-0.006c0.014,-0.003 0.024,-0.008 0.032,-0.014l0,-0.183l-0.086,-0l0,-0.104l0.195,-0l0,0.359Z" transform="matrix(1,0,0,1,-390.872,-374.756) matrix(28,0,0,28,435.992,478.577)"/>
  <path fill="#fff" fill-rule="nonzero" d="M0.379,-0l-0.035,-0.15l-0.186,0l-0.036,0.15l-0.12,-0l0.176,-0.708l0.153,0l0.173,0.708l-0.125,-0Zm-0.125,-0.595l-0.004,0l-0.077,0.351l0.156,-0l-0.075,-0.351Z" transform="matrix(1,0,0,1,-390.872,-374.756) matrix(28,0,0,28,451.644,478.577)"/>
  <path fill="#fff" fill-rule="nonzero" d="M0.493,-0.043c-0.021,0.017 -0.047,0.031 -0.077,0.042c-0.029,0.011 -0.065,0.016 -0.106,0.016c-0.042,-0 -0.08,-0.009 -0.113,-0.027c-0.033,-0.017 -0.062,-0.042 -0.085,-0.075c-0.023,-0.033 -0.04,-0.072 -0.053,-0.117c-0.012,-0.045 -0.018,-0.096 -0.018,-0.151c0,-0.054 0.006,-0.104 0.018,-0.149c0.012,-0.045 0.029,-0.085 0.052,-0.118c0.023,-0.032 0.05,-0.058 0.082,-0.077c0.032,-0.018 0.068,-0.027 0.108,-0.027c0.042,0 0.078,0.007 0.109,0.022c0.031,0.015 0.056,0.037 0.075,0.064l-0.069,0.084c-0.027,-0.039 -0.063,-0.058 -0.108,-0.058c-0.025,0 -0.046,0.007 -0.065,0.021c-0.018,0.014 -0.033,0.033 -0.045,0.056c-0.012,0.024 -0.021,0.052 -0.027,0.083c-0.006,0.031 -0.009,0.064 -0.009,0.099c0,0.036 0.003,0.07 0.009,0.101c0.006,0.032 0.015,0.06 0.027,0.083c0.012,0.024 0.027,0.043 0.045,0.056c0.019,0.013 0.041,0.02 0.066,0.02c0.016,-0 0.031,-0.002 0.043,-0.006c0.014,-0.003 0.024,-0.008 0.032,-0.014l0,-0.183l-0.086,-0l0,-0.104l0.195,-0l0,0.359Z" transform="matrix(1,0,0,1,-390.872,-374.756) matrix(28,0,0,28,465.924,478.577)"/>
  <path fill="#fff" fill-rule="nonzero" d="M0.072,-0l-0,-0.708l0.317,0l0,0.106l-0.202,0l0,0.188l0.187,0l0,0.098l-0.187,-0l0,0.209l0.212,-0l0,0.107l-0.327,-0Z" transform="matrix(1,0,0,1,-390.872,-374.756) matrix(28,0,0,28,481.576,478.577)"/>
  <path fill="#fff" fill-rule="nonzero" d="M0.558,-0l0.002,-0.544l-0.003,0l-0.142,0.544l-0.094,-0l-0.139,-0.544l-0.003,0l0.002,0.544l-0.109,-0l-0,-0.708l0.161,0l0.136,0.518l0.004,-0l0.133,-0.518l0.169,0l0,0.708l-0.117,-0Z" transform="matrix(1,0,0,1,-390.872,-374.756) matrix(28,0,0,28,494.064,478.577)"/>
  <path fill="#fff" fill-rule="nonzero" d="M0.072,-0l-0,-0.708l0.317,0l0,0.106l-0.202,0l0,0.188l0.187,0l0,0.098l-0.187,-0l0,0.209l0.212,-0l0,0.107l-0.327,-0Z" transform="matrix(1,0,0,1,-390.872,-374.756) matrix(28,0,0,28,515.232,478.577)"/>
  <path fill="#fff" fill-rule="nonzero" d="M0.382,-0l-0.201,-0.5l-0.003,0l0.002,0.5l-0.108,-0l0,-0.708l0.137,0l0.199,0.503l0.003,-0l-0.001,-0.503l0.104,0l0,0.708l-0.132,-0Z" transform="matrix(1,0,0,1,-390.872,-374.756) matrix(28,0,0,28,527.72,478.577)"/>
  <path fill="#fff" fill-rule="nonzero" d="M0.249,-0.606l0,0.606l-0.118,-0l0,-0.606l-0.133,0l0,-0.102l0.384,0l0,0.102l-0.133,0Z" transform="matrix(1,0,0,1,-390.872,-374.756) matrix(28,0,0,28,544.408,478.577)"/>
  <path fill="#fff" fill-rule="nonzero" d="M0.249,-0.606l0,0.606l-0.118,-0l0,-0.606l-0.133,0l0,-0.102l0.384,0l0,0.102l-0.133,0Z" transform="matrix(1,0,0,1,-390.872,-374.756) matrix(28,0,0,28,429.608,508.567)"/>
  <path fill="#fff" fill-rule="nonzero" d="M0.403,-0l0,-0.314l-0.212,0l-0,0.314l-0.119,-0l-0,-0.708l0.119,0l-0,0.287l0.212,-0l0,-0.287l0.119,0l0,0.708l-0.119,-0Z" transform="matrix(1,0,0,1,-390.872,-374.756) matrix(28,0,0,28,440.528,508.567)"/>
  <path fill="#fff" fill-rule="nonzero" d="M0.365,-0l-0.11,-0.302l-0.067,0l0,0.302l-0.116,-0l0,-0.708l0.202,0c0.029,0 0.056,0.004 0.081,0.011c0.025,0.008 0.046,0.02 0.063,0.037c0.018,0.017 0.032,0.038 0.042,0.063c0.01,0.025 0.015,0.056 0.015,0.091c-0,0.027 -0.004,0.051 -0.011,0.073c-0.007,0.021 -0.015,0.038 -0.026,0.053c-0.011,0.015 -0.023,0.027 -0.035,0.036c-0.014,0.008 -0.026,0.015 -0.039,0.018l0.127,0.326l-0.126,-0Zm-0.008,-0.5c-0,-0.021 -0.003,-0.039 -0.009,-0.053c-0.006,-0.014 -0.014,-0.025 -0.024,-0.033c-0.009,-0.008 -0.02,-0.014 -0.032,-0.017c-0.012,-0.003 -0.024,-0.005 -0.036,-0.005l-0.068,0l0,0.218l0.068,0c0.029,0 0.053,-0.009 0.073,-0.027c0.018,-0.019 0.028,-0.046 0.028,-0.083Z" transform="matrix(1,0,0,1,-390.872,-374.756) matrix(28,0,0,28,457.44,508.567)"/>
  <path fill="#fff" fill-rule="nonzero" d="M0.551,-0.355c0,0.056 -0.006,0.107 -0.018,0.152c-0.011,0.046 -0.028,0.085 -0.05,0.118c-0.022,0.033 -0.049,0.058 -0.081,0.076c-0.031,0.018 -0.067,0.027 -0.106,0.027c-0.04,-0 -0.076,-0.009 -0.107,-0.027c-0.031,-0.018 -0.058,-0.043 -0.08,-0.076c-0.022,-0.033 -0.039,-0.072 -0.051,-0.118c-0.011,-0.045 -0.017,-0.096 -0.017,-0.152c-0,-0.056 0.006,-0.107 0.017,-0.152c0.011,-0.045 0.028,-0.084 0.05,-0.117c0.022,-0.033 0.049,-0.058 0.08,-0.076c0.032,-0.017 0.068,-0.026 0.108,-0.026c0.039,0 0.075,0.009 0.106,0.026c0.032,0.018 0.059,0.043 0.081,0.076c0.022,0.033 0.039,0.072 0.05,0.117c0.012,0.045 0.018,0.096 0.018,0.152Zm-0.124,0c-0,-0.036 -0.003,-0.07 -0.009,-0.102c-0.005,-0.031 -0.014,-0.058 -0.025,-0.082c-0.011,-0.023 -0.024,-0.041 -0.041,-0.054c-0.016,-0.013 -0.035,-0.02 -0.056,-0.02c-0.022,0 -0.041,0.007 -0.058,0.02c-0.016,0.013 -0.03,0.031 -0.041,0.054c-0.011,0.023 -0.019,0.051 -0.024,0.082c-0.005,0.032 -0.008,0.066 -0.008,0.102c-0,0.036 0.003,0.07 0.008,0.101c0.005,0.032 0.013,0.06 0.024,0.083c0.011,0.023 0.025,0.042 0.041,0.055c0.017,0.013 0.036,0.02 0.058,0.02c0.022,-0 0.041,-0.007 0.057,-0.02c0.017,-0.013 0.03,-0.032 0.041,-0.055c0.012,-0.023 0.02,-0.051 0.025,-0.083c0.005,-0.031 0.008,-0.065 0.008,-0.101Z" transform="matrix(1,0,0,1,-390.872,-374.756) matrix(28,0,0,28,472.084,508.567)"/>
  <path fill="#fff" fill-rule="nonzero" d="M0.506,-0.251c0,0.037 -0.004,0.072 -0.012,0.105c-0.008,0.033 -0.021,0.061 -0.039,0.086c-0.018,0.024 -0.041,0.043 -0.07,0.057c-0.028,0.014 -0.062,0.021 -0.103,0.021c-0.041,-0 -0.075,-0.007 -0.103,-0.021c-0.028,-0.014 -0.051,-0.033 -0.069,-0.057c-0.017,-0.025 -0.03,-0.053 -0.038,-0.086c-0.007,-0.033 -0.011,-0.068 -0.011,-0.105l-0,-0.457l0.12,0l0,0.446c0,0.022 0.002,0.043 0.005,0.063c0.003,0.021 0.008,0.039 0.016,0.054c0.007,0.015 0.018,0.027 0.031,0.036c0.013,0.009 0.03,0.014 0.051,0.014c0.021,-0 0.038,-0.005 0.051,-0.014c0.013,-0.009 0.024,-0.021 0.031,-0.036c0.008,-0.015 0.014,-0.033 0.017,-0.054c0.003,-0.02 0.004,-0.041 0.004,-0.063l0,-0.446l0.119,0l0,0.457Z" transform="matrix(1,0,0,1,-390.872,-374.756) matrix(28,0,0,28,488.912,508.567)"/>
  <path fill="#fff" fill-rule="nonzero" d="M0.493,-0.043c-0.021,0.017 -0.047,0.031 -0.077,0.042c-0.029,0.011 -0.065,0.016 -0.106,0.016c-0.042,-0 -0.08,-0.009 -0.113,-0.027c-0.033,-0.017 -0.062,-0.042 -0.085,-0.075c-0.023,-0.033 -0.04,-0.072 -0.053,-0.117c-0.012,-0.045 -0.018,-0.096 -0.018,-0.151c0,-0.054 0.006,-0.104 0.018,-0.149c0.012,-0.045 0.029,-0.085 0.052,-0.118c0.023,-0.032 0.05,-0.058 0.082,-0.077c0.032,-0.018 0.068,-0.027 0.108,-0.027c0.042,0 0.078,0.007 0.109,0.022c0.031,0.015 0.056,0.037 0.075,0.064l-0.069,0.084c-0.027,-0.039 -0.063,-0.058 -0.108,-0.058c-0.025,0 -0.046,0.007 -0.065,0.021c-0.018,0.014 -0.033,0.033 -0.045,0.056c-0.012,0.024 -0.021,0.052 -0.027,0.083c-0.006,0.031 -0.009,0.064 -0.009,0.099c0,0.036 0.003,0.07 0.009,0.101c0.006,0.032 0.015,0.06 0.027,0.083c0.012,0.024 0.027,0.043 0.045,0.056c0.019,0.013 0.041,0.02 0.066,0.02c0.016,-0 0.031,-0.002 0.043,-0.006c0.014,-0.003 0.024,-0.008 0.032,-0.014l0,-0.183l-0.086,-0l0,-0.104l0.195,-0l0,0.359Z" transform="matrix(1,0,0,1,-390.872,-374.756) matrix(28,0,0,28,505.068,508.567)"/>
  <path fill="#fff" fill-rule="nonzero" d="M0.403,-0l0,-0.314l-0.212,0l-0,0.314l-0.119,-0l-0,-0.708l0.119,0l-0,0.287l0.212,-0l0,-0.287l0.119,0l0,0.708l-0.119,-0Z" transform="matrix(1,0,0,1,-390.872,-374.756) matrix(28,0,0,28,520.72,508.567)"/>
  <path fill="#fff" fill-rule="nonzero" d="M0.483,-0.076c-0.019,0.028 -0.042,0.051 -0.072,0.068c-0.028,0.017 -0.065,0.026 -0.109,0.026c-0.04,-0 -0.076,-0.009 -0.108,-0.028c-0.033,-0.019 -0.06,-0.045 -0.083,-0.078c-0.022,-0.033 -0.039,-0.072 -0.052,-0.117c-0.012,-0.045 -0.018,-0.095 -0.018,-0.149c0,-0.054 0.006,-0.104 0.019,-0.149c0.012,-0.046 0.029,-0.086 0.052,-0.119c0.023,-0.032 0.05,-0.058 0.083,-0.077c0.032,-0.018 0.068,-0.027 0.107,-0.027c0.041,0 0.076,0.007 0.107,0.022c0.031,0.015 0.056,0.037 0.075,0.065l-0.069,0.084c-0.027,-0.039 -0.063,-0.059 -0.106,-0.059c-0.024,0 -0.045,0.007 -0.063,0.021c-0.018,0.013 -0.033,0.032 -0.045,0.055c-0.012,0.023 -0.021,0.051 -0.027,0.083c-0.006,0.031 -0.009,0.065 -0.009,0.101c0,0.035 0.003,0.069 0.009,0.1c0.006,0.032 0.015,0.06 0.027,0.083c0.012,0.023 0.027,0.042 0.045,0.055c0.019,0.014 0.04,0.021 0.065,0.021c0.023,-0 0.043,-0.006 0.061,-0.018c0.017,-0.012 0.031,-0.027 0.042,-0.044l0.069,0.081Z" transform="matrix(1,0,0,1,-390.872,-374.756) matrix(28,0,0,28,439.632,538.557)"/>
  <path fill="#fff" fill-rule="nonzero" d="M0.403,-0l0,-0.314l-0.212,0l-0,0.314l-0.119,-0l-0,-0.708l0.119,0l-0,0.287l0.212,-0l0,-0.287l0.119,0l0,0.708l-0.119,-0Z" transform="matrix(1,0,0,1,-390.872,-374.756) matrix(28,0,0,28,453.8,538.557)"/>
  <path fill="#fff" fill-rule="nonzero" d="M0.551,-0.355c0,0.056 -0.006,0.107 -0.018,0.152c-0.011,0.046 -0.028,0.085 -0.05,0.118c-0.022,0.033 -0.049,0.058 -0.081,0.076c-0.031,0.018 -0.067,0.027 -0.106,0.027c-0.04,-0 -0.076,-0.009 -0.107,-0.027c-0.031,-0.018 -0.058,-0.043 -0.08,-0.076c-0.022,-0.033 -0.039,-0.072 -0.051,-0.118c-0.011,-0.045 -0.017,-0.096 -0.017,-0.152c-0,-0.056 0.006,-0.107 0.017,-0.152c0.011,-0.045 0.028,-0.084 0.05,-0.117c0.022,-0.033 0.049,-0.058 0.08,-0.076c0.032,-0.017 0.068,-0.026 0.108,-0.026c0.039,0 0.075,0.009 0.106,0.026c0.032,0.018 0.059,0.043 0.081,0.076c0.022,0.033 0.039,0.072 0.05,0.117c0.012,0.045 0.018,0.096 0.018,0.152Zm-0.124,0c-0,-0.036 -0.003,-0.07 -0.009,-0.102c-0.005,-0.031 -0.014,-0.058 -0.025,-0.082c-0.011,-0.023 -0.024,-0.041 -0.041,-0.054c-0.016,-0.013 -0.035,-0.02 -0.056,-0.02c-0.022,0 -0.041,0.007 -0.058,0.02c-0.016,0.013 -0.03,0.031 -0.041,0.054c-0.011,0.023 -0.019,0.051 -0.024,0.082c-0.005,0.032 -0.008,0.066 -0.008,0.102c-0,0.036 0.003,0.07 0.008,0.101c0.005,0.032 0.013,0.06 0.024,0.083c0.011,0.023 0.025,0.042 0.041,0.055c0.017,0.013 0.036,0.02 0.058,0.02c0.022,-0 0.041,-0.007 0.057,-0.02c0.017,-0.013 0.03,-0.032 0.041,-0.055c0.012,-0.023 0.02,-0.051 0.025,-0.083c0.005,-0.031 0.008,-0.065 0.008,-0.101Z" transform="matrix(1,0,0,1,-390.872,-374.756) matrix(28,0,0,28,470.712,538.557)"/>
  <path fill="#fff" fill-rule="nonzero" d="M.072-.708H.192V0H.072z" transform="matrix(1,0,0,1,-390.872,-374.756) matrix(28,0,0,28,487.54,538.557)"/>
  <path fill="#fff" fill-rule="nonzero" d="M0.483,-0.076c-0.019,0.028 -0.042,0.051 -0.072,0.068c-0.028,0.017 -0.065,0.026 -0.109,0.026c-0.04,-0 -0.076,-0.009 -0.108,-0.028c-0.033,-0.019 -0.06,-0.045 -0.083,-0.078c-0.022,-0.033 -0.039,-0.072 -0.052,-0.117c-0.012,-0.045 -0.018,-0.095 -0.018,-0.149c0,-0.054 0.006,-0.104 0.019,-0.149c0.012,-0.046 0.029,-0.086 0.052,-0.119c0.023,-0.032 0.05,-0.058 0.083,-0.077c0.032,-0.018 0.068,-0.027 0.107,-0.027c0.041,0 0.076,0.007 0.107,0.022c0.031,0.015 0.056,0.037 0.075,0.065l-0.069,0.084c-0.027,-0.039 -0.063,-0.059 -0.106,-0.059c-0.024,0 -0.045,0.007 -0.063,0.021c-0.018,0.013 -0.033,0.032 -0.045,0.055c-0.012,0.023 -0.021,0.051 -0.027,0.083c-0.006,0.031 -0.009,0.065 -0.009,0.101c0,0.035 0.003,0.069 0.009,0.1c0.006,0.032 0.015,0.06 0.027,0.083c0.012,0.023 0.027,0.042 0.045,0.055c0.019,0.014 0.04,0.021 0.065,0.021c0.023,-0 0.043,-0.006 0.061,-0.018c0.017,-0.012 0.031,-0.027 0.042,-0.044l0.069,0.081Z" transform="matrix(1,0,0,1,-390.872,-374.756) matrix(28,0,0,28,495.212,538.557)"/>
  <path fill="#fff" fill-rule="nonzero" d="M0.072,-0l-0,-0.708l0.317,0l0,0.106l-0.202,0l0,0.188l0.187,0l0,0.098l-0.187,-0l0,0.209l0.212,-0l0,0.107l-0.327,-0Z" transform="matrix(1,0,0,1,-390.872,-374.756) matrix(28,0,0,28,509.38,538.557)"/>
  <path fill="#fff" fill-rule="nonzero" d="M0.426,-0l-0.051,-0.073c-0.013,0.024 -0.032,0.045 -0.057,0.063c-0.026,0.017 -0.057,0.026 -0.096,0.026c-0.057,-0 -0.102,-0.018 -0.136,-0.055c-0.034,-0.036 -0.051,-0.087 -0.051,-0.154c0,-0.049 0.012,-0.089 0.035,-0.122c0.023,-0.033 0.051,-0.059 0.085,-0.079c-0.019,-0.027 -0.032,-0.052 -0.041,-0.076c-0.009,-0.025 -0.013,-0.051 -0.013,-0.08c0,-0.027 0.004,-0.052 0.013,-0.074c0.009,-0.022 0.02,-0.041 0.035,-0.056c0.015,-0.015 0.033,-0.027 0.054,-0.035c0.021,-0.009 0.044,-0.013 0.067,-0.013c0.024,0 0.045,0.004 0.064,0.012c0.02,0.007 0.036,0.018 0.05,0.033c0.014,0.014 0.025,0.031 0.033,0.052c0.008,0.021 0.012,0.044 0.012,0.07c-0,0.023 -0.004,0.043 -0.011,0.062c-0.007,0.019 -0.017,0.036 -0.029,0.051c-0.012,0.015 -0.026,0.029 -0.042,0.042c-0.016,0.013 -0.033,0.024 -0.05,0.035l0.081,0.117l0.054,-0.131l0.118,0l-0.105,0.216l0.119,0.169l-0.138,-0Zm-0.101,-0.554c-0,-0.024 -0.005,-0.044 -0.014,-0.059c-0.009,-0.015 -0.023,-0.023 -0.041,-0.023c-0.017,0 -0.032,0.008 -0.043,0.025c-0.011,0.017 -0.016,0.037 -0.016,0.061c-0,0.021 0.003,0.04 0.01,0.057c0.007,0.017 0.016,0.035 0.03,0.054c0.019,-0.013 0.037,-0.029 0.052,-0.047c0.015,-0.019 0.022,-0.041 0.022,-0.068Zm-0.117,0.239c-0.015,0.009 -0.028,0.023 -0.041,0.042c-0.013,0.019 -0.019,0.043 -0.019,0.073c-0,0.035 0.008,0.063 0.023,0.084c0.016,0.02 0.037,0.03 0.062,0.03c0.021,0 0.039,-0.007 0.053,-0.022c0.014,-0.015 0.024,-0.032 0.03,-0.049l-0.108,-0.158Z" transform="matrix(1,0,0,1,-390.872,-374.756) matrix(28,0,0,28,425.492,568.547)"/>
  <path fill="#fff" fill-rule="nonzero" d="M0.467,-0.499c0,0.036 -0.005,0.068 -0.016,0.094c-0.011,0.028 -0.026,0.05 -0.044,0.068c-0.018,0.018 -0.038,0.031 -0.062,0.04c-0.023,0.009 -0.047,0.013 -0.071,0.013l-0.084,0l0,0.284l-0.118,-0l0,-0.708l0.196,0c0.022,0 0.045,0.003 0.069,0.01c0.024,0.007 0.046,0.018 0.065,0.034c0.019,0.017 0.034,0.038 0.047,0.065c0.012,0.027 0.018,0.06 0.018,0.1Zm-0.113,0.002c-0,-0.038 -0.009,-0.066 -0.027,-0.083c-0.018,-0.017 -0.041,-0.026 -0.069,-0.026l-0.068,0l0,0.224l0.068,0c0.028,0 0.051,-0.01 0.069,-0.029c0.018,-0.02 0.027,-0.049 0.027,-0.086Z" transform="matrix(1,0,0,1,-390.872,-374.756) matrix(28,0,0,28,447.727,568.547)"/>
  <path fill="#fff" fill-rule="nonzero" d="M0.379,-0l-0.035,-0.15l-0.186,0l-0.036,0.15l-0.12,-0l0.176,-0.708l0.153,0l0.173,0.708l-0.125,-0Zm-0.125,-0.595l-0.004,0l-0.077,0.351l0.156,-0l-0.075,-0.351Z" transform="matrix(1,0,0,1,-390.872,-374.756) matrix(28,0,0,28,460.691,568.547)"/>
  <path fill="#fff" fill-rule="nonzero" d="M0.35,-0.571c-0.026,-0.031 -0.059,-0.047 -0.098,-0.047c-0.011,0 -0.022,0.002 -0.033,0.006c-0.011,0.003 -0.02,0.009 -0.029,0.017c-0.009,0.008 -0.016,0.018 -0.02,0.031c-0.006,0.013 -0.008,0.028 -0.008,0.045c0,0.03 0.009,0.053 0.027,0.07c0.018,0.016 0.042,0.031 0.071,0.046c0.017,0.009 0.035,0.019 0.053,0.03c0.018,0.011 0.034,0.025 0.049,0.041c0.015,0.016 0.027,0.035 0.036,0.057c0.009,0.022 0.014,0.048 0.014,0.078c-0,0.035 -0.006,0.065 -0.017,0.092c-0.011,0.027 -0.025,0.049 -0.044,0.068c-0.018,0.018 -0.039,0.032 -0.064,0.041c-0.025,0.009 -0.051,0.014 -0.078,0.014c-0.039,-0 -0.076,-0.008 -0.109,-0.023c-0.033,-0.015 -0.06,-0.035 -0.08,-0.058l0.065,-0.088c0.015,0.019 0.034,0.033 0.055,0.044c0.022,0.011 0.044,0.016 0.067,0.016c0.025,0 0.046,-0.009 0.063,-0.026c0.017,-0.017 0.025,-0.042 0.025,-0.073c-0,-0.031 -0.01,-0.055 -0.03,-0.073c-0.02,-0.018 -0.045,-0.035 -0.076,-0.05c-0.019,-0.009 -0.038,-0.02 -0.054,-0.031c-0.018,-0.011 -0.033,-0.025 -0.046,-0.041c-0.013,-0.015 -0.023,-0.034 -0.031,-0.055c-0.007,-0.021 -0.011,-0.046 -0.011,-0.075c-0,-0.037 0.006,-0.068 0.017,-0.095c0.012,-0.026 0.027,-0.048 0.046,-0.065c0.019,-0.017 0.041,-0.03 0.065,-0.039c0.024,-0.008 0.048,-0.012 0.073,-0.012c0.036,-0 0.068,0.006 0.096,0.017c0.029,0.012 0.053,0.029 0.072,0.052l-0.066,0.086Z" transform="matrix(1,0,0,1,-390.872,-374.756) matrix(28,0,0,28,475.139,568.547)"/>
  <path fill="#fff" fill-rule="nonzero" d="M0.35,-0.571c-0.026,-0.031 -0.059,-0.047 -0.098,-0.047c-0.011,0 -0.022,0.002 -0.033,0.006c-0.011,0.003 -0.02,0.009 -0.029,0.017c-0.009,0.008 -0.016,0.018 -0.02,0.031c-0.006,0.013 -0.008,0.028 -0.008,0.045c0,0.03 0.009,0.053 0.027,0.07c0.018,0.016 0.042,0.031 0.071,0.046c0.017,0.009 0.035,0.019 0.053,0.03c0.018,0.011 0.034,0.025 0.049,0.041c0.015,0.016 0.027,0.035 0.036,0.057c0.009,0.022 0.014,0.048 0.014,0.078c-0,0.035 -0.006,0.065 -0.017,0.092c-0.011,0.027 -0.025,0.049 -0.044,0.068c-0.018,0.018 -0.039,0.032 -0.064,0.041c-0.025,0.009 -0.051,0.014 -0.078,0.014c-0.039,-0 -0.076,-0.008 -0.109,-0.023c-0.033,-0.015 -0.06,-0.035 -0.08,-0.058l0.065,-0.088c0.015,0.019 0.034,0.033 0.055,0.044c0.022,0.011 0.044,0.016 0.067,0.016c0.025,0 0.046,-0.009 0.063,-0.026c0.017,-0.017 0.025,-0.042 0.025,-0.073c-0,-0.031 -0.01,-0.055 -0.03,-0.073c-0.02,-0.018 -0.045,-0.035 -0.076,-0.05c-0.019,-0.009 -0.038,-0.02 -0.054,-0.031c-0.018,-0.011 -0.033,-0.025 -0.046,-0.041c-0.013,-0.015 -0.023,-0.034 -0.031,-0.055c-0.007,-0.021 -0.011,-0.046 -0.011,-0.075c-0,-0.037 0.006,-0.068 0.017,-0.095c0.012,-0.026 0.027,-0.048 0.046,-0.065c0.019,-0.017 0.041,-0.03 0.065,-0.039c0.024,-0.008 0.048,-0.012 0.073,-0.012c0.036,-0 0.068,0.006 0.096,0.017c0.029,0.012 0.053,0.029 0.072,0.052l-0.066,0.086Z" transform="matrix(1,0,0,1,-390.872,-374.756) matrix(28,0,0,28,487.991,568.547)"/>
  <path fill="#fff" fill-rule="nonzero" d="M.072-.708H.192V0H.072z" transform="matrix(1,0,0,1,-390.872,-374.756) matrix(28,0,0,28,500.843,568.547)"/>
  <path fill="#fff" fill-rule="nonzero" d="M0.551,-0.355c0,0.056 -0.006,0.107 -0.018,0.152c-0.011,0.046 -0.028,0.085 -0.05,0.118c-0.022,0.033 -0.049,0.058 -0.081,0.076c-0.031,0.018 -0.067,0.027 -0.106,0.027c-0.04,-0 -0.076,-0.009 -0.107,-0.027c-0.031,-0.018 -0.058,-0.043 -0.08,-0.076c-0.022,-0.033 -0.039,-0.072 -0.051,-0.118c-0.011,-0.045 -0.017,-0.096 -0.017,-0.152c-0,-0.056 0.006,-0.107 0.017,-0.152c0.011,-0.045 0.028,-0.084 0.05,-0.117c0.022,-0.033 0.049,-0.058 0.08,-0.076c0.032,-0.017 0.068,-0.026 0.108,-0.026c0.039,0 0.075,0.009 0.106,0.026c0.032,0.018 0.059,0.043 0.081,0.076c0.022,0.033 0.039,0.072 0.05,0.117c0.012,0.045 0.018,0.096 0.018,0.152Zm-0.124,0c-0,-0.036 -0.003,-0.07 -0.009,-0.102c-0.005,-0.031 -0.014,-0.058 -0.025,-0.082c-0.011,-0.023 -0.024,-0.041 -0.041,-0.054c-0.016,-0.013 -0.035,-0.02 -0.056,-0.02c-0.022,0 -0.041,0.007 -0.058,0.02c-0.016,0.013 -0.03,0.031 -0.041,0.054c-0.011,0.023 -0.019,0.051 -0.024,0.082c-0.005,0.032 -0.008,0.066 -0.008,0.102c-0,0.036 0.003,0.07 0.008,0.101c0.005,0.032 0.013,0.06 0.024,0.083c0.011,0.023 0.025,0.042 0.041,0.055c0.017,0.013 0.036,0.02 0.058,0.02c0.022,-0 0.041,-0.007 0.057,-0.02c0.017,-0.013 0.03,-0.032 0.041,-0.055c0.012,-0.023 0.02,-0.051 0.025,-0.083c0.005,-0.031 0.008,-0.065 0.008,-0.101Z" transform="matrix(1,0,0,1,-390.872,-374.756) matrix(28,0,0,28,508.515,568.547)"/>
  <path fill="#fff" fill-rule="nonzero" d="M0.382,-0l-0.201,-0.5l-0.003,0l0.002,0.5l-0.108,-0l0,-0.708l0.137,0l0.199,0.503l0.003,-0l-0.001,-0.503l0.104,0l0,0.708l-0.132,-0Z" transform="matrix(1,0,0,1,-390.872,-374.756) matrix(28,0,0,28,525.343,568.547)"/>
</svg>
