<svg xmlns="http://www.w3.org/2000/svg" xml:space="preserve" fill-rule="evenodd" stroke-linejoin="round" stroke-miterlimit="2" clip-rule="evenodd" viewBox="0 0 189 277">
  <path fill="#476375" d="M0,87.034l150.748,-87.034c50.084,88.364 50.084,188.616 0,276.98l-150.729,-87.023c8.39,-15.271 13.163,-32.805 13.163,-51.444c0,-18.651 -4.779,-36.195 -13.182,-51.479Z"/>
  <path fill="#fff" fill-rule="nonzero" d="M49.476,132.112l-0.98,-4.2l-5.208,0l-1.008,4.2l-3.36,0l4.928,-19.824l4.284,0l4.844,19.824l-3.5,0Zm-3.5,-16.66l-0.112,0l-2.156,9.828l4.368,0l-2.1,-9.828Z"/>
  <path fill="#fff" fill-rule="nonzero" d="M67.144,125.084c0,1.036 -0.112,2.016 -0.336,2.94c-0.224,0.924 -0.588,1.708 -1.092,2.408c-0.504,0.672 -1.148,1.204 -1.96,1.596c-0.784,0.392 -1.736,0.588 -2.884,0.588c-1.148,0 -2.1,-0.196 -2.884,-0.588c-0.784,-0.392 -1.428,-0.924 -1.932,-1.596c-0.476,-0.7 -0.84,-1.484 -1.064,-2.408c-0.196,-0.924 -0.308,-1.904 -0.308,-2.94l-0,-12.796l3.36,0l-0,12.488c-0,0.616 0.056,1.204 0.14,1.764c0.084,0.588 0.224,1.092 0.448,1.512c0.196,0.42 0.504,0.756 0.868,1.008c0.364,0.252 0.84,0.392 1.428,0.392c0.588,0 1.064,-0.14 1.428,-0.392c0.364,-0.252 0.672,-0.588 0.868,-1.008c0.224,-0.42 0.392,-0.924 0.476,-1.512c0.084,-0.56 0.112,-1.148 0.112,-1.764l0,-12.488l3.332,0l0,12.796Z"/>
  <path fill="#fff" fill-rule="nonzero" d="M76.104,115.144l0,16.968l-3.304,0l0,-16.968l-3.724,0l0,-2.856l10.752,0l0,2.856l-3.724,0Z"/>
  <path fill="#fff" fill-rule="nonzero" d="M91.336,132.112l0,-8.792l-5.936,0l0,8.792l-3.332,0l0,-19.824l3.332,0l0,8.036l5.936,0l0,-8.036l3.332,0l0,19.824l-3.332,0Z"/>
  <path fill="#fff" fill-rule="nonzero" d="M98.98,132.112l0,-19.824l8.876,0l0,2.968l-5.656,0l0,5.264l5.236,0l0,2.744l-5.236,0l0,5.852l5.936,0l0,2.996l-9.156,0Z"/>
  <path fill="#fff" fill-rule="nonzero" d="M120.148,132.112l-5.628,-14l-0.084,0l0.056,14l-3.024,0l0,-19.824l3.836,0l5.572,14.084l0.084,0l-0.028,-14.084l2.912,0l0,19.824l-3.696,0Z"/>
  <path fill="#fff" fill-rule="nonzero" d="M133.112,115.144l0,16.968l-3.304,0l0,-16.968l-3.724,0l0,-2.856l10.752,0l0,2.856l-3.724,0Z"/>
  <path fill="#fff" fill-rule="nonzero" d="M139.076 112.288H142.436V132.112H139.076z"/>
  <path fill="#fff" fill-rule="nonzero" d="M158.256,129.984c-0.532,0.784 -1.176,1.428 -2.016,1.904c-0.784,0.476 -1.82,0.728 -3.052,0.728c-1.12,0 -2.128,-0.252 -3.024,-0.784c-0.924,-0.532 -1.68,-1.26 -2.324,-2.184c-0.616,-0.924 -1.092,-2.016 -1.456,-3.276c-0.336,-1.26 -0.504,-2.66 -0.504,-4.172c0,-1.512 0.168,-2.912 0.532,-4.172c0.336,-1.288 0.812,-2.408 1.456,-3.332c0.644,-0.896 1.4,-1.624 2.324,-2.156c0.896,-0.504 1.904,-0.756 2.996,-0.756c1.148,-0 2.128,0.196 2.996,0.616c0.868,0.42 1.568,1.036 2.1,1.82l-1.932,2.352c-0.756,-1.092 -1.764,-1.652 -2.968,-1.652c-0.672,-0 -1.26,0.196 -1.764,0.588c-0.504,0.364 -0.924,0.896 -1.26,1.54c-0.336,0.644 -0.588,1.428 -0.756,2.324c-0.168,0.868 -0.252,1.82 -0.252,2.828c0,0.98 0.084,1.932 0.252,2.8c0.168,0.896 0.42,1.68 0.756,2.324c0.336,0.644 0.756,1.176 1.26,1.54c0.532,0.392 1.12,0.588 1.82,0.588c0.644,0 1.204,-0.168 1.708,-0.504c0.476,-0.336 0.868,-0.756 1.176,-1.232l1.932,2.268Z"/>
  <path fill="#fff" fill-rule="nonzero" d="M40.012,160.112l-0.98,-4.2l-5.208,0l-1.008,4.2l-3.36,0l4.928,-19.824l4.284,0l4.844,19.824l-3.5,0Zm-3.5,-16.66l-0.112,0l-2.156,9.828l4.368,0l-2.1,-9.828Z"/>
  <path fill="#fff" fill-rule="nonzero" d="M53.648,144.124c-0.728,-0.868 -1.652,-1.316 -2.744,-1.316c-0.308,0 -0.616,0.056 -0.924,0.168c-0.308,0.084 -0.56,0.252 -0.812,0.476c-0.252,0.224 -0.448,0.504 -0.56,0.868c-0.168,0.364 -0.224,0.784 -0.224,1.26c0,0.84 0.252,1.484 0.756,1.96c0.504,0.448 1.176,0.868 1.988,1.288c0.476,0.252 0.98,0.532 1.484,0.84c0.504,0.308 0.952,0.7 1.372,1.148c0.42,0.448 0.756,0.98 1.008,1.596c0.252,0.616 0.392,1.344 0.392,2.184c0,0.98 -0.168,1.82 -0.476,2.576c-0.308,0.756 -0.7,1.372 -1.232,1.904c-0.504,0.504 -1.092,0.896 -1.792,1.148c-0.7,0.252 -1.428,0.392 -2.184,0.392c-1.092,0 -2.128,-0.224 -3.052,-0.644c-0.924,-0.42 -1.68,-0.98 -2.24,-1.624l1.82,-2.464c0.42,0.532 0.952,0.924 1.54,1.232c0.616,0.308 1.232,0.448 1.876,0.448c0.7,0 1.288,-0.252 1.764,-0.728c0.476,-0.476 0.7,-1.176 0.7,-2.044c0,-0.868 -0.28,-1.54 -0.84,-2.044c-0.56,-0.504 -1.26,-0.98 -2.128,-1.4c-0.532,-0.252 -1.064,-0.56 -1.512,-0.868c-0.504,-0.308 -0.924,-0.7 -1.288,-1.148c-0.364,-0.42 -0.644,-0.952 -0.868,-1.54c-0.196,-0.588 -0.308,-1.288 -0.308,-2.1c0,-1.036 0.168,-1.904 0.476,-2.66c0.336,-0.728 0.756,-1.344 1.288,-1.82c0.532,-0.476 1.148,-0.84 1.82,-1.092c0.672,-0.224 1.344,-0.336 2.044,-0.336c1.008,0 1.904,0.168 2.688,0.476c0.812,0.336 1.484,0.812 2.016,1.456l-1.848,2.408Z"/>
  <path fill="#fff" fill-rule="nonzero" d="M66.5,144.124c-0.728,-0.868 -1.652,-1.316 -2.744,-1.316c-0.308,0 -0.616,0.056 -0.924,0.168c-0.308,0.084 -0.56,0.252 -0.812,0.476c-0.252,0.224 -0.448,0.504 -0.56,0.868c-0.168,0.364 -0.224,0.784 -0.224,1.26c0,0.84 0.252,1.484 0.756,1.96c0.504,0.448 1.176,0.868 1.988,1.288c0.476,0.252 0.98,0.532 1.484,0.84c0.504,0.308 0.952,0.7 1.372,1.148c0.42,0.448 0.756,0.98 1.008,1.596c0.252,0.616 0.392,1.344 0.392,2.184c0,0.98 -0.168,1.82 -0.476,2.576c-0.308,0.756 -0.7,1.372 -1.232,1.904c-0.504,0.504 -1.092,0.896 -1.792,1.148c-0.7,0.252 -1.428,0.392 -2.184,0.392c-1.092,0 -2.128,-0.224 -3.052,-0.644c-0.924,-0.42 -1.68,-0.98 -2.24,-1.624l1.82,-2.464c0.42,0.532 0.952,0.924 1.54,1.232c0.616,0.308 1.232,0.448 1.876,0.448c0.7,0 1.288,-0.252 1.764,-0.728c0.476,-0.476 0.7,-1.176 0.7,-2.044c0,-0.868 -0.28,-1.54 -0.84,-2.044c-0.56,-0.504 -1.26,-0.98 -2.128,-1.4c-0.532,-0.252 -1.064,-0.56 -1.512,-0.868c-0.504,-0.308 -0.924,-0.7 -1.288,-1.148c-0.364,-0.42 -0.644,-0.952 -0.868,-1.54c-0.196,-0.588 -0.308,-1.288 -0.308,-2.1c0,-1.036 0.168,-1.904 0.476,-2.66c0.336,-0.728 0.756,-1.344 1.288,-1.82c0.532,-0.476 1.148,-0.84 1.82,-1.092c0.672,-0.224 1.344,-0.336 2.044,-0.336c1.008,0 1.904,0.168 2.688,0.476c0.812,0.336 1.484,0.812 2.016,1.456l-1.848,2.408Z"/>
  <path fill="#fff" fill-rule="nonzero" d="M71.568,160.112l0,-19.824l8.876,0l0,2.968l-5.656,0l0,5.264l5.236,0l0,2.744l-5.236,0l0,5.852l5.936,0l0,2.996l-9.156,0Z"/>
  <path fill="#fff" fill-rule="nonzero" d="M91.84,144.124c-0.728,-0.868 -1.652,-1.316 -2.744,-1.316c-0.308,0 -0.616,0.056 -0.924,0.168c-0.308,0.084 -0.56,0.252 -0.812,0.476c-0.252,0.224 -0.448,0.504 -0.56,0.868c-0.168,0.364 -0.224,0.784 -0.224,1.26c0,0.84 0.252,1.484 0.756,1.96c0.504,0.448 1.176,0.868 1.988,1.288c0.476,0.252 0.98,0.532 1.484,0.84c0.504,0.308 0.952,0.7 1.372,1.148c0.42,0.448 0.756,0.98 1.008,1.596c0.252,0.616 0.392,1.344 0.392,2.184c0,0.98 -0.168,1.82 -0.476,2.576c-0.308,0.756 -0.7,1.372 -1.232,1.904c-0.504,0.504 -1.092,0.896 -1.792,1.148c-0.7,0.252 -1.428,0.392 -2.184,0.392c-1.092,0 -2.128,-0.224 -3.052,-0.644c-0.924,-0.42 -1.68,-0.98 -2.24,-1.624l1.82,-2.464c0.42,0.532 0.952,0.924 1.54,1.232c0.616,0.308 1.232,0.448 1.876,0.448c0.7,0 1.288,-0.252 1.764,-0.728c0.476,-0.476 0.7,-1.176 0.7,-2.044c0,-0.868 -0.28,-1.54 -0.84,-2.044c-0.56,-0.504 -1.26,-0.98 -2.128,-1.4c-0.532,-0.252 -1.064,-0.56 -1.512,-0.868c-0.504,-0.308 -0.924,-0.7 -1.288,-1.148c-0.364,-0.42 -0.644,-0.952 -0.868,-1.54c-0.196,-0.588 -0.308,-1.288 -0.308,-2.1c0,-1.036 0.168,-1.904 0.476,-2.66c0.336,-0.728 0.756,-1.344 1.288,-1.82c0.532,-0.476 1.148,-0.84 1.82,-1.092c0.672,-0.224 1.344,-0.336 2.044,-0.336c1.008,0 1.904,0.168 2.688,0.476c0.812,0.336 1.484,0.812 2.016,1.456l-1.848,2.408Z"/>
  <path fill="#fff" fill-rule="nonzero" d="M104.692,144.124c-0.728,-0.868 -1.652,-1.316 -2.744,-1.316c-0.308,0 -0.616,0.056 -0.924,0.168c-0.308,0.084 -0.56,0.252 -0.812,0.476c-0.252,0.224 -0.448,0.504 -0.56,0.868c-0.168,0.364 -0.224,0.784 -0.224,1.26c0,0.84 0.252,1.484 0.756,1.96c0.504,0.448 1.176,0.868 1.988,1.288c0.476,0.252 0.98,0.532 1.484,0.84c0.504,0.308 0.952,0.7 1.372,1.148c0.42,0.448 0.756,0.98 1.008,1.596c0.252,0.616 0.392,1.344 0.392,2.184c0,0.98 -0.168,1.82 -0.476,2.576c-0.308,0.756 -0.7,1.372 -1.232,1.904c-0.504,0.504 -1.092,0.896 -1.792,1.148c-0.7,0.252 -1.428,0.392 -2.184,0.392c-1.092,0 -2.128,-0.224 -3.052,-0.644c-0.924,-0.42 -1.68,-0.98 -2.24,-1.624l1.82,-2.464c0.42,0.532 0.952,0.924 1.54,1.232c0.616,0.308 1.232,0.448 1.876,0.448c0.7,0 1.288,-0.252 1.764,-0.728c0.476,-0.476 0.7,-1.176 0.7,-2.044c0,-0.868 -0.28,-1.54 -0.84,-2.044c-0.56,-0.504 -1.26,-0.98 -2.128,-1.4c-0.532,-0.252 -1.064,-0.56 -1.512,-0.868c-0.504,-0.308 -0.924,-0.7 -1.288,-1.148c-0.364,-0.42 -0.644,-0.952 -0.868,-1.54c-0.196,-0.588 -0.308,-1.288 -0.308,-2.1c0,-1.036 0.168,-1.904 0.476,-2.66c0.336,-0.728 0.756,-1.344 1.288,-1.82c0.532,-0.476 1.148,-0.84 1.82,-1.092c0.672,-0.224 1.344,-0.336 2.044,-0.336c1.008,0 1.904,0.168 2.688,0.476c0.812,0.336 1.484,0.812 2.016,1.456l-1.848,2.408Z"/>
  <path fill="#fff" fill-rule="nonzero" d="M123.368,160.112l0.056,-15.232l-0.084,0l-3.976,15.232l-2.632,0l-3.892,-15.232l-0.084,0l0.056,15.232l-3.052,0l0,-19.824l4.508,0l3.808,14.504l0.112,0l3.724,-14.504l4.732,0l0,19.824l-3.276,0Z"/>
  <path fill="#fff" fill-rule="nonzero" d="M130.928,160.112l0,-19.824l8.876,0l0,2.968l-5.656,0l0,5.264l5.236,0l0,2.744l-5.236,0l0,5.852l5.936,0l0,2.996l-9.156,0Z"/>
  <path fill="#fff" fill-rule="nonzero" d="M152.096,160.112l-5.628,-14l-0.084,0l0.056,14l-3.024,0l0,-19.824l3.836,0l5.572,14.084l0.084,0l-0.028,-14.084l2.912,0l0,19.824l-3.696,0Z"/>
  <path fill="#fff" fill-rule="nonzero" d="M165.06,143.144l0,16.968l-3.304,0l0,-16.968l-3.724,0l0,-2.856l10.752,0l0,2.856l-3.724,0Z"/>
</svg>
