<svg xmlns="http://www.w3.org/2000/svg" xml:space="preserve" fill-rule="evenodd" stroke-linejoin="round" stroke-miterlimit="2" clip-rule="evenodd" viewBox="0 0 189 277">
  <path fill="#5b7e96" d="M0,87.034l150.748,-87.034c50.084,88.364 50.084,188.616 0,276.98l-150.729,-87.023c8.39,-15.271 13.163,-32.805 13.163,-51.444c-0,-18.651 -4.779,-36.195 -13.182,-51.479Z"/>
  <path fill="#fff" fill-rule="nonzero" d="M0.379,-0l-0.035,-0.15l-0.186,0l-0.036,0.15l-0.12,-0l0.176,-0.708l0.153,0l0.173,0.708l-0.125,-0Zm-0.125,-0.595l-0.004,0l-0.077,0.351l0.156,-0l-0.075,-0.351Z" transform="matrix(1,0,0,1,-766.896,-374.465) matrix(28,0,0,28,805.76,506.577)"/>
  <path fill="#fff" fill-rule="nonzero" d="M0.506,-0.251c0,0.037 -0.004,0.072 -0.012,0.105c-0.008,0.033 -0.021,0.061 -0.039,0.086c-0.018,0.024 -0.041,0.043 -0.07,0.057c-0.028,0.014 -0.062,0.021 -0.103,0.021c-0.041,-0 -0.075,-0.007 -0.103,-0.021c-0.028,-0.014 -0.051,-0.033 -0.069,-0.057c-0.017,-0.025 -0.03,-0.053 -0.038,-0.086c-0.007,-0.033 -0.011,-0.068 -0.011,-0.105l-0,-0.457l0.12,0l0,0.446c0,0.022 0.002,0.043 0.005,0.063c0.003,0.021 0.008,0.039 0.016,0.054c0.007,0.015 0.018,0.027 0.031,0.036c0.013,0.009 0.03,0.014 0.051,0.014c0.021,-0 0.038,-0.005 0.051,-0.014c0.013,-0.009 0.024,-0.021 0.031,-0.036c0.008,-0.015 0.014,-0.033 0.017,-0.054c0.003,-0.02 0.004,-0.041 0.004,-0.063l0,-0.446l0.119,0l0,0.457Z" transform="matrix(1,0,0,1,-766.896,-374.465) matrix(28,0,0,28,819.872,506.577)"/>
  <path fill="#fff" fill-rule="nonzero" d="M0.249,-0.606l0,0.606l-0.118,-0l0,-0.606l-0.133,0l0,-0.102l0.384,0l0,0.102l-0.133,0Z" transform="matrix(1,0,0,1,-766.896,-374.465) matrix(28,0,0,28,836.028,506.577)"/>
  <path fill="#fff" fill-rule="nonzero" d="M0.403,-0l0,-0.314l-0.212,0l-0,0.314l-0.119,-0l-0,-0.708l0.119,0l-0,0.287l0.212,-0l0,-0.287l0.119,0l0,0.708l-0.119,-0Z" transform="matrix(1,0,0,1,-766.896,-374.465) matrix(28,0,0,28,846.948,506.577)"/>
  <path fill="#fff" fill-rule="nonzero" d="M0.072,-0l-0,-0.708l0.317,0l0,0.106l-0.202,0l0,0.188l0.187,0l0,0.098l-0.187,-0l0,0.209l0.212,-0l0,0.107l-0.327,-0Z" transform="matrix(1,0,0,1,-766.896,-374.465) matrix(28,0,0,28,863.86,506.577)"/>
  <path fill="#fff" fill-rule="nonzero" d="M0.382,-0l-0.201,-0.5l-0.003,0l0.002,0.5l-0.108,-0l0,-0.708l0.137,0l0.199,0.503l0.003,-0l-0.001,-0.503l0.104,0l0,0.708l-0.132,-0Z" transform="matrix(1,0,0,1,-766.896,-374.465) matrix(28,0,0,28,876.348,506.577)"/>
  <path fill="#fff" fill-rule="nonzero" d="M0.249,-0.606l0,0.606l-0.118,-0l0,-0.606l-0.133,0l0,-0.102l0.384,0l0,0.102l-0.133,0Z" transform="matrix(1,0,0,1,-766.896,-374.465) matrix(28,0,0,28,893.036,506.577)"/>
  <path fill="#fff" fill-rule="nonzero" d="M.072-.708H.192V0H.072z" transform="matrix(1,0,0,1,-766.896,-374.465) matrix(28,0,0,28,903.956,506.577)"/>
  <path fill="#fff" fill-rule="nonzero" d="M0.483,-0.076c-0.019,0.028 -0.042,0.051 -0.072,0.068c-0.028,0.017 -0.065,0.026 -0.109,0.026c-0.04,-0 -0.076,-0.009 -0.108,-0.028c-0.033,-0.019 -0.06,-0.045 -0.083,-0.078c-0.022,-0.033 -0.039,-0.072 -0.052,-0.117c-0.012,-0.045 -0.018,-0.095 -0.018,-0.149c0,-0.054 0.006,-0.104 0.019,-0.149c0.012,-0.046 0.029,-0.086 0.052,-0.119c0.023,-0.032 0.05,-0.058 0.083,-0.077c0.032,-0.018 0.068,-0.027 0.107,-0.027c0.041,0 0.076,0.007 0.107,0.022c0.031,0.015 0.056,0.037 0.075,0.065l-0.069,0.084c-0.027,-0.039 -0.063,-0.059 -0.106,-0.059c-0.024,0 -0.045,0.007 -0.063,0.021c-0.018,0.013 -0.033,0.032 -0.045,0.055c-0.012,0.023 -0.021,0.051 -0.027,0.083c-0.006,0.031 -0.009,0.065 -0.009,0.101c0,0.035 0.003,0.069 0.009,0.1c0.006,0.032 0.015,0.06 0.027,0.083c0.012,0.023 0.027,0.042 0.045,0.055c0.019,0.014 0.04,0.021 0.065,0.021c0.023,-0 0.043,-0.006 0.061,-0.018c0.017,-0.012 0.031,-0.027 0.042,-0.044l0.069,0.081Z" transform="matrix(1,0,0,1,-766.896,-374.465) matrix(28,0,0,28,911.628,506.577)"/>
  <path fill="#fff" fill-rule="nonzero" d="M0.379,-0l-0.035,-0.15l-0.186,0l-0.036,0.15l-0.12,-0l0.176,-0.708l0.153,0l0.173,0.708l-0.125,-0Zm-0.125,-0.595l-0.004,0l-0.077,0.351l0.156,-0l-0.075,-0.351Z" transform="matrix(1,0,0,1,-766.896,-374.465) matrix(28,0,0,28,796.296,534.577)"/>
  <path fill="#fff" fill-rule="nonzero" d="M0.35,-0.571c-0.026,-0.031 -0.059,-0.047 -0.098,-0.047c-0.011,0 -0.022,0.002 -0.033,0.006c-0.011,0.003 -0.02,0.009 -0.029,0.017c-0.009,0.008 -0.016,0.018 -0.02,0.031c-0.006,0.013 -0.008,0.028 -0.008,0.045c0,0.03 0.009,0.053 0.027,0.07c0.018,0.016 0.042,0.031 0.071,0.046c0.017,0.009 0.035,0.019 0.053,0.03c0.018,0.011 0.034,0.025 0.049,0.041c0.015,0.016 0.027,0.035 0.036,0.057c0.009,0.022 0.014,0.048 0.014,0.078c-0,0.035 -0.006,0.065 -0.017,0.092c-0.011,0.027 -0.025,0.049 -0.044,0.068c-0.018,0.018 -0.039,0.032 -0.064,0.041c-0.025,0.009 -0.051,0.014 -0.078,0.014c-0.039,-0 -0.076,-0.008 -0.109,-0.023c-0.033,-0.015 -0.06,-0.035 -0.08,-0.058l0.065,-0.088c0.015,0.019 0.034,0.033 0.055,0.044c0.022,0.011 0.044,0.016 0.067,0.016c0.025,0 0.046,-0.009 0.063,-0.026c0.017,-0.017 0.025,-0.042 0.025,-0.073c-0,-0.031 -0.01,-0.055 -0.03,-0.073c-0.02,-0.018 -0.045,-0.035 -0.076,-0.05c-0.019,-0.009 -0.038,-0.02 -0.054,-0.031c-0.018,-0.011 -0.033,-0.025 -0.046,-0.041c-0.013,-0.015 -0.023,-0.034 -0.031,-0.055c-0.007,-0.021 -0.011,-0.046 -0.011,-0.075c-0,-0.037 0.006,-0.068 0.017,-0.095c0.012,-0.026 0.027,-0.048 0.046,-0.065c0.019,-0.017 0.041,-0.03 0.065,-0.039c0.024,-0.008 0.048,-0.012 0.073,-0.012c0.036,-0 0.068,0.006 0.096,0.017c0.029,0.012 0.053,0.029 0.072,0.052l-0.066,0.086Z" transform="matrix(1,0,0,1,-766.896,-374.465) matrix(28,0,0,28,810.744,534.577)"/>
  <path fill="#fff" fill-rule="nonzero" d="M0.35,-0.571c-0.026,-0.031 -0.059,-0.047 -0.098,-0.047c-0.011,0 -0.022,0.002 -0.033,0.006c-0.011,0.003 -0.02,0.009 -0.029,0.017c-0.009,0.008 -0.016,0.018 -0.02,0.031c-0.006,0.013 -0.008,0.028 -0.008,0.045c0,0.03 0.009,0.053 0.027,0.07c0.018,0.016 0.042,0.031 0.071,0.046c0.017,0.009 0.035,0.019 0.053,0.03c0.018,0.011 0.034,0.025 0.049,0.041c0.015,0.016 0.027,0.035 0.036,0.057c0.009,0.022 0.014,0.048 0.014,0.078c-0,0.035 -0.006,0.065 -0.017,0.092c-0.011,0.027 -0.025,0.049 -0.044,0.068c-0.018,0.018 -0.039,0.032 -0.064,0.041c-0.025,0.009 -0.051,0.014 -0.078,0.014c-0.039,-0 -0.076,-0.008 -0.109,-0.023c-0.033,-0.015 -0.06,-0.035 -0.08,-0.058l0.065,-0.088c0.015,0.019 0.034,0.033 0.055,0.044c0.022,0.011 0.044,0.016 0.067,0.016c0.025,0 0.046,-0.009 0.063,-0.026c0.017,-0.017 0.025,-0.042 0.025,-0.073c-0,-0.031 -0.01,-0.055 -0.03,-0.073c-0.02,-0.018 -0.045,-0.035 -0.076,-0.05c-0.019,-0.009 -0.038,-0.02 -0.054,-0.031c-0.018,-0.011 -0.033,-0.025 -0.046,-0.041c-0.013,-0.015 -0.023,-0.034 -0.031,-0.055c-0.007,-0.021 -0.011,-0.046 -0.011,-0.075c-0,-0.037 0.006,-0.068 0.017,-0.095c0.012,-0.026 0.027,-0.048 0.046,-0.065c0.019,-0.017 0.041,-0.03 0.065,-0.039c0.024,-0.008 0.048,-0.012 0.073,-0.012c0.036,-0 0.068,0.006 0.096,0.017c0.029,0.012 0.053,0.029 0.072,0.052l-0.066,0.086Z" transform="matrix(1,0,0,1,-766.896,-374.465) matrix(28,0,0,28,823.596,534.577)"/>
  <path fill="#fff" fill-rule="nonzero" d="M0.072,-0l-0,-0.708l0.317,0l0,0.106l-0.202,0l0,0.188l0.187,0l0,0.098l-0.187,-0l0,0.209l0.212,-0l0,0.107l-0.327,-0Z" transform="matrix(1,0,0,1,-766.896,-374.465) matrix(28,0,0,28,836.448,534.577)"/>
  <path fill="#fff" fill-rule="nonzero" d="M0.35,-0.571c-0.026,-0.031 -0.059,-0.047 -0.098,-0.047c-0.011,0 -0.022,0.002 -0.033,0.006c-0.011,0.003 -0.02,0.009 -0.029,0.017c-0.009,0.008 -0.016,0.018 -0.02,0.031c-0.006,0.013 -0.008,0.028 -0.008,0.045c0,0.03 0.009,0.053 0.027,0.07c0.018,0.016 0.042,0.031 0.071,0.046c0.017,0.009 0.035,0.019 0.053,0.03c0.018,0.011 0.034,0.025 0.049,0.041c0.015,0.016 0.027,0.035 0.036,0.057c0.009,0.022 0.014,0.048 0.014,0.078c-0,0.035 -0.006,0.065 -0.017,0.092c-0.011,0.027 -0.025,0.049 -0.044,0.068c-0.018,0.018 -0.039,0.032 -0.064,0.041c-0.025,0.009 -0.051,0.014 -0.078,0.014c-0.039,-0 -0.076,-0.008 -0.109,-0.023c-0.033,-0.015 -0.06,-0.035 -0.08,-0.058l0.065,-0.088c0.015,0.019 0.034,0.033 0.055,0.044c0.022,0.011 0.044,0.016 0.067,0.016c0.025,0 0.046,-0.009 0.063,-0.026c0.017,-0.017 0.025,-0.042 0.025,-0.073c-0,-0.031 -0.01,-0.055 -0.03,-0.073c-0.02,-0.018 -0.045,-0.035 -0.076,-0.05c-0.019,-0.009 -0.038,-0.02 -0.054,-0.031c-0.018,-0.011 -0.033,-0.025 -0.046,-0.041c-0.013,-0.015 -0.023,-0.034 -0.031,-0.055c-0.007,-0.021 -0.011,-0.046 -0.011,-0.075c-0,-0.037 0.006,-0.068 0.017,-0.095c0.012,-0.026 0.027,-0.048 0.046,-0.065c0.019,-0.017 0.041,-0.03 0.065,-0.039c0.024,-0.008 0.048,-0.012 0.073,-0.012c0.036,-0 0.068,0.006 0.096,0.017c0.029,0.012 0.053,0.029 0.072,0.052l-0.066,0.086Z" transform="matrix(1,0,0,1,-766.896,-374.465) matrix(28,0,0,28,848.936,534.577)"/>
  <path fill="#fff" fill-rule="nonzero" d="M0.35,-0.571c-0.026,-0.031 -0.059,-0.047 -0.098,-0.047c-0.011,0 -0.022,0.002 -0.033,0.006c-0.011,0.003 -0.02,0.009 -0.029,0.017c-0.009,0.008 -0.016,0.018 -0.02,0.031c-0.006,0.013 -0.008,0.028 -0.008,0.045c0,0.03 0.009,0.053 0.027,0.07c0.018,0.016 0.042,0.031 0.071,0.046c0.017,0.009 0.035,0.019 0.053,0.03c0.018,0.011 0.034,0.025 0.049,0.041c0.015,0.016 0.027,0.035 0.036,0.057c0.009,0.022 0.014,0.048 0.014,0.078c-0,0.035 -0.006,0.065 -0.017,0.092c-0.011,0.027 -0.025,0.049 -0.044,0.068c-0.018,0.018 -0.039,0.032 -0.064,0.041c-0.025,0.009 -0.051,0.014 -0.078,0.014c-0.039,-0 -0.076,-0.008 -0.109,-0.023c-0.033,-0.015 -0.06,-0.035 -0.08,-0.058l0.065,-0.088c0.015,0.019 0.034,0.033 0.055,0.044c0.022,0.011 0.044,0.016 0.067,0.016c0.025,0 0.046,-0.009 0.063,-0.026c0.017,-0.017 0.025,-0.042 0.025,-0.073c-0,-0.031 -0.01,-0.055 -0.03,-0.073c-0.02,-0.018 -0.045,-0.035 -0.076,-0.05c-0.019,-0.009 -0.038,-0.02 -0.054,-0.031c-0.018,-0.011 -0.033,-0.025 -0.046,-0.041c-0.013,-0.015 -0.023,-0.034 -0.031,-0.055c-0.007,-0.021 -0.011,-0.046 -0.011,-0.075c-0,-0.037 0.006,-0.068 0.017,-0.095c0.012,-0.026 0.027,-0.048 0.046,-0.065c0.019,-0.017 0.041,-0.03 0.065,-0.039c0.024,-0.008 0.048,-0.012 0.073,-0.012c0.036,-0 0.068,0.006 0.096,0.017c0.029,0.012 0.053,0.029 0.072,0.052l-0.066,0.086Z" transform="matrix(1,0,0,1,-766.896,-374.465) matrix(28,0,0,28,861.788,534.577)"/>
  <path fill="#fff" fill-rule="nonzero" d="M0.558,-0l0.002,-0.544l-0.003,0l-0.142,0.544l-0.094,-0l-0.139,-0.544l-0.003,0l0.002,0.544l-0.109,-0l-0,-0.708l0.161,0l0.136,0.518l0.004,-0l0.133,-0.518l0.169,0l0,0.708l-0.117,-0Z" transform="matrix(1,0,0,1,-766.896,-374.465) matrix(28,0,0,28,874.64,534.577)"/>
  <path fill="#fff" fill-rule="nonzero" d="M0.072,-0l-0,-0.708l0.317,0l0,0.106l-0.202,0l0,0.188l0.187,0l0,0.098l-0.187,-0l0,0.209l0.212,-0l0,0.107l-0.327,-0Z" transform="matrix(1,0,0,1,-766.896,-374.465) matrix(28,0,0,28,895.808,534.577)"/>
  <path fill="#fff" fill-rule="nonzero" d="M0.382,-0l-0.201,-0.5l-0.003,0l0.002,0.5l-0.108,-0l0,-0.708l0.137,0l0.199,0.503l0.003,-0l-0.001,-0.503l0.104,0l0,0.708l-0.132,-0Z" transform="matrix(1,0,0,1,-766.896,-374.465) matrix(28,0,0,28,908.296,534.577)"/>
  <path fill="#fff" fill-rule="nonzero" d="M0.249,-0.606l0,0.606l-0.118,-0l0,-0.606l-0.133,0l0,-0.102l0.384,0l0,0.102l-0.133,0Z" transform="matrix(1,0,0,1,-766.896,-374.465) matrix(28,0,0,28,924.984,534.577)"/>
</svg>
