<svg xmlns="http://www.w3.org/2000/svg" xml:space="preserve" fill-rule="evenodd" stroke-linejoin="round" stroke-miterlimit="2" clip-rule="evenodd" viewBox="0 0 240 226">
  <path fill="#7baed4" d="M0,174.28l0,-174.28c101.567,0.809 188.388,50.935 239.872,138.491l-150.759,87.041c-18.451,-30.139 -51.4,-50.467 -89.113,-51.252Z"/>
  <path fill="#fff" fill-rule="nonzero" d="M.072-.708H.192V0H.072z" transform="matrix(1,0,0,1,-675.272,-231.644) matrix(28,0,0,28,692.332,346.669)"/>
  <path fill="#fff" fill-rule="nonzero" d="M0.382,-0l-0.201,-0.5l-0.003,0l0.002,0.5l-0.108,-0l0,-0.708l0.137,0l0.199,0.503l0.003,-0l-0.001,-0.503l0.104,0l0,0.708l-0.132,-0Z" transform="matrix(1,0,0,1,-675.272,-231.644) matrix(28,0,0,28,699.724,346.669)"/>
  <path fill="#fff" fill-rule="nonzero" d="M0.293,-0c-0.039,-0 -0.073,-0.008 -0.104,-0.025c-0.031,-0.016 -0.058,-0.04 -0.08,-0.071c-0.022,-0.031 -0.039,-0.068 -0.05,-0.112c-0.012,-0.045 -0.018,-0.095 -0.018,-0.151c0,-0.055 0.006,-0.105 0.018,-0.15c0.012,-0.045 0.029,-0.084 0.052,-0.116c0.022,-0.032 0.049,-0.057 0.081,-0.075c0.031,-0.017 0.066,-0.026 0.105,-0.026c0.039,0 0.074,0.009 0.105,0.026c0.031,0.018 0.058,0.043 0.08,0.075c0.022,0.032 0.039,0.07 0.051,0.114c0.012,0.044 0.018,0.093 0.018,0.146c0,0.028 -0.003,0.056 -0.008,0.083c-0.005,0.028 -0.012,0.053 -0.021,0.076c-0.009,0.023 -0.019,0.044 -0.031,0.061c-0.011,0.017 -0.023,0.03 -0.036,0.039l0,0.004l0.126,-0.002l0,0.104l-0.288,-0Zm0.135,-0.36c0,-0.035 -0.003,-0.068 -0.008,-0.098c-0.006,-0.031 -0.015,-0.057 -0.026,-0.08c-0.011,-0.022 -0.025,-0.04 -0.041,-0.053c-0.017,-0.013 -0.035,-0.019 -0.056,-0.019c-0.021,0 -0.04,0.006 -0.056,0.019c-0.017,0.013 -0.031,0.031 -0.042,0.053c-0.011,0.023 -0.02,0.049 -0.025,0.08c-0.006,0.03 -0.009,0.063 -0.009,0.098c0,0.036 0.003,0.069 0.009,0.099c0.006,0.031 0.015,0.057 0.026,0.08c0.011,0.022 0.025,0.04 0.042,0.053c0.016,0.013 0.035,0.019 0.056,0.019c0.021,-0 0.04,-0.007 0.057,-0.02c0.016,-0.014 0.03,-0.032 0.041,-0.055c0.011,-0.023 0.019,-0.05 0.024,-0.08c0.005,-0.03 0.008,-0.062 0.008,-0.096Z" transform="matrix(1,0,0,1,-675.272,-231.644) matrix(28,0,0,28,716.132,346.669)"/>
  <path fill="#fff" fill-rule="nonzero" d="M0.506,-0.251c0,0.037 -0.004,0.072 -0.012,0.105c-0.008,0.033 -0.021,0.061 -0.039,0.086c-0.018,0.024 -0.041,0.043 -0.07,0.057c-0.028,0.014 -0.062,0.021 -0.103,0.021c-0.041,-0 -0.075,-0.007 -0.103,-0.021c-0.028,-0.014 -0.051,-0.033 -0.069,-0.057c-0.017,-0.025 -0.03,-0.053 -0.038,-0.086c-0.007,-0.033 -0.011,-0.068 -0.011,-0.105l-0,-0.457l0.12,0l0,0.446c0,0.022 0.002,0.043 0.005,0.063c0.003,0.021 0.008,0.039 0.016,0.054c0.007,0.015 0.018,0.027 0.031,0.036c0.013,0.009 0.03,0.014 0.051,0.014c0.021,-0 0.038,-0.005 0.051,-0.014c0.013,-0.009 0.024,-0.021 0.031,-0.036c0.008,-0.015 0.014,-0.033 0.017,-0.054c0.003,-0.02 0.004,-0.041 0.004,-0.063l0,-0.446l0.119,0l0,0.457Z" transform="matrix(1,0,0,1,-675.272,-231.644) matrix(28,0,0,28,732.876,346.669)"/>
  <path fill="#fff" fill-rule="nonzero" d="M.072-.708H.192V0H.072z" transform="matrix(1,0,0,1,-675.272,-231.644) matrix(28,0,0,28,748.752,346.669)"/>
  <path fill="#fff" fill-rule="nonzero" d="M0.365,-0l-0.11,-0.302l-0.067,0l0,0.302l-0.116,-0l0,-0.708l0.202,0c0.029,0 0.056,0.004 0.081,0.011c0.025,0.008 0.046,0.02 0.063,0.037c0.018,0.017 0.032,0.038 0.042,0.063c0.01,0.025 0.015,0.056 0.015,0.091c-0,0.027 -0.004,0.051 -0.011,0.073c-0.007,0.021 -0.015,0.038 -0.026,0.053c-0.011,0.015 -0.023,0.027 -0.035,0.036c-0.014,0.008 -0.026,0.015 -0.039,0.018l0.127,0.326l-0.126,-0Zm-0.008,-0.5c-0,-0.021 -0.003,-0.039 -0.009,-0.053c-0.006,-0.014 -0.014,-0.025 -0.024,-0.033c-0.009,-0.008 -0.02,-0.014 -0.032,-0.017c-0.012,-0.003 -0.024,-0.005 -0.036,-0.005l-0.068,0l0,0.218l0.068,0c0.029,0 0.053,-0.009 0.073,-0.027c0.018,-0.019 0.028,-0.046 0.028,-0.083Z" transform="matrix(1,0,0,1,-675.272,-231.644) matrix(28,0,0,28,756.144,346.669)"/>
  <path fill="#fff" fill-rule="nonzero" d="M0.289,-0.271l0,0.271l-0.118,-0l0,-0.271l-0.177,-0.437l0.13,0l0.106,0.316l0.003,-0.002l0.108,-0.314l0.127,0l-0.179,0.437Z" transform="matrix(1,0,0,1,-675.272,-231.644) matrix(28,0,0,28,770.508,346.669)"/>
  <path fill="#fff" fill-rule="nonzero" d="M.033-.313H.205V-.225H.033z" transform="matrix(1,0,0,1,-675.272,-231.644) matrix(28,0,0,28,781.764,346.669)"/>
  <path fill="#fff" fill-rule="nonzero" d="M0.481,-0.198c0,0.037 -0.006,0.069 -0.018,0.094c-0.013,0.025 -0.028,0.045 -0.047,0.061c-0.019,0.015 -0.041,0.026 -0.065,0.033c-0.023,0.007 -0.046,0.01 -0.069,0.01l-0.21,0l0,-0.708l0.188,0c0.021,0 0.043,0.002 0.066,0.007c0.023,0.005 0.045,0.014 0.064,0.027c0.019,0.013 0.035,0.031 0.048,0.054c0.013,0.023 0.019,0.053 0.019,0.09c0,0.044 -0.009,0.079 -0.028,0.104c-0.019,0.025 -0.04,0.043 -0.065,0.053l0,0.002c0.013,0.003 0.027,0.009 0.041,0.017c0.013,0.008 0.026,0.019 0.037,0.033c0.011,0.015 0.021,0.032 0.028,0.052c0.007,0.021 0.011,0.044 0.011,0.071Zm-0.132,-0.313c0,-0.018 -0.003,-0.033 -0.008,-0.046c-0.006,-0.012 -0.013,-0.022 -0.022,-0.03c-0.009,-0.007 -0.02,-0.013 -0.032,-0.016c-0.012,-0.003 -0.024,-0.005 -0.036,-0.005l-0.066,0l0,0.197l0.068,0c0.012,0 0.023,-0.002 0.035,-0.006c0.011,-0.003 0.022,-0.009 0.031,-0.017c0.009,-0.008 0.016,-0.018 0.022,-0.031c0.005,-0.013 0.008,-0.028 0.008,-0.046Zm0.017,0.303c0,-0.021 -0.003,-0.038 -0.01,-0.052c-0.007,-0.015 -0.015,-0.026 -0.026,-0.035c-0.01,-0.009 -0.022,-0.016 -0.035,-0.02c-0.012,-0.004 -0.025,-0.006 -0.037,-0.006l-0.073,0l0,0.221l0.076,0c0.014,0 0.028,-0.002 0.04,-0.006c0.013,-0.005 0.024,-0.011 0.034,-0.02c0.009,-0.009 0.017,-0.021 0.023,-0.034c0.005,-0.013 0.008,-0.029 0.008,-0.048Z" transform="matrix(1,0,0,1,-675.272,-231.644) matrix(28,0,0,28,788.428,346.669)"/>
  <path fill="#fff" fill-rule="nonzero" d="M0.379,-0l-0.035,-0.15l-0.186,0l-0.036,0.15l-0.12,-0l0.176,-0.708l0.153,0l0.173,0.708l-0.125,-0Zm-0.125,-0.595l-0.004,0l-0.077,0.351l0.156,-0l-0.075,-0.351Z" transform="matrix(1,0,0,1,-675.272,-231.644) matrix(28,0,0,28,802.96,346.669)"/>
  <path fill="#fff" fill-rule="nonzero" d="M0.35,-0.571c-0.026,-0.031 -0.059,-0.047 -0.098,-0.047c-0.011,0 -0.022,0.002 -0.033,0.006c-0.011,0.003 -0.02,0.009 -0.029,0.017c-0.009,0.008 -0.016,0.018 -0.02,0.031c-0.006,0.013 -0.008,0.028 -0.008,0.045c0,0.03 0.009,0.053 0.027,0.07c0.018,0.016 0.042,0.031 0.071,0.046c0.017,0.009 0.035,0.019 0.053,0.03c0.018,0.011 0.034,0.025 0.049,0.041c0.015,0.016 0.027,0.035 0.036,0.057c0.009,0.022 0.014,0.048 0.014,0.078c-0,0.035 -0.006,0.065 -0.017,0.092c-0.011,0.027 -0.025,0.049 -0.044,0.068c-0.018,0.018 -0.039,0.032 -0.064,0.041c-0.025,0.009 -0.051,0.014 -0.078,0.014c-0.039,-0 -0.076,-0.008 -0.109,-0.023c-0.033,-0.015 -0.06,-0.035 -0.08,-0.058l0.065,-0.088c0.015,0.019 0.034,0.033 0.055,0.044c0.022,0.011 0.044,0.016 0.067,0.016c0.025,0 0.046,-0.009 0.063,-0.026c0.017,-0.017 0.025,-0.042 0.025,-0.073c-0,-0.031 -0.01,-0.055 -0.03,-0.073c-0.02,-0.018 -0.045,-0.035 -0.076,-0.05c-0.019,-0.009 -0.038,-0.02 -0.054,-0.031c-0.018,-0.011 -0.033,-0.025 -0.046,-0.041c-0.013,-0.015 -0.023,-0.034 -0.031,-0.055c-0.007,-0.021 -0.011,-0.046 -0.011,-0.075c-0,-0.037 0.006,-0.068 0.017,-0.095c0.012,-0.026 0.027,-0.048 0.046,-0.065c0.019,-0.017 0.041,-0.03 0.065,-0.039c0.024,-0.008 0.048,-0.012 0.073,-0.012c0.036,-0 0.068,0.006 0.096,0.017c0.029,0.012 0.053,0.029 0.072,0.052l-0.066,0.086Z" transform="matrix(1,0,0,1,-675.272,-231.644) matrix(28,0,0,28,817.128,346.669)"/>
  <path fill="#fff" fill-rule="nonzero" d="M0.072,-0l-0,-0.708l0.317,0l0,0.106l-0.202,0l0,0.188l0.187,0l0,0.098l-0.187,-0l0,0.209l0.212,-0l0,0.107l-0.327,-0Z" transform="matrix(1,0,0,1,-675.272,-231.644) matrix(28,0,0,28,829.7,346.669)"/>
  <path fill="#fff" fill-rule="nonzero" d="M0.527,-0.353c0,0.112 -0.024,0.199 -0.071,0.26c-0.047,0.062 -0.116,0.093 -0.207,0.093l-0.177,-0l-0,-0.708l0.178,0c0.091,0 0.159,0.031 0.207,0.093c0.046,0.063 0.07,0.15 0.07,0.262Zm-0.12,0c-0,-0.042 -0.004,-0.079 -0.012,-0.11c-0.007,-0.031 -0.018,-0.057 -0.032,-0.078c-0.014,-0.021 -0.031,-0.036 -0.05,-0.047c-0.019,-0.01 -0.04,-0.015 -0.063,-0.015l-0.057,0l0,0.498l0.057,-0c0.023,-0 0.044,-0.005 0.063,-0.016c0.019,-0.01 0.036,-0.025 0.05,-0.046c0.014,-0.021 0.025,-0.047 0.033,-0.078c0.007,-0.031 0.011,-0.067 0.011,-0.108Z" transform="matrix(1,0,0,1,-675.272,-231.644) matrix(28,0,0,28,841.908,346.669)"/>
  <path fill="#fff" fill-rule="nonzero" d="M0.072,-0l-0,-0.708l0.121,0l0,0.597l0.195,-0l0,0.111l-0.316,-0Z" transform="matrix(1,0,0,1,-675.272,-231.644) matrix(28,0,0,28,721.396,374.669)"/>
  <path fill="#fff" fill-rule="nonzero" d="M0.072,-0l-0,-0.708l0.317,0l0,0.106l-0.202,0l0,0.188l0.187,0l0,0.098l-0.187,-0l0,0.209l0.212,-0l0,0.107l-0.327,-0Z" transform="matrix(1,0,0,1,-675.272,-231.644) matrix(28,0,0,28,732.428,374.669)"/>
  <path fill="#fff" fill-rule="nonzero" d="M0.379,-0l-0.035,-0.15l-0.186,0l-0.036,0.15l-0.12,-0l0.176,-0.708l0.153,0l0.173,0.708l-0.125,-0Zm-0.125,-0.595l-0.004,0l-0.077,0.351l0.156,-0l-0.075,-0.351Z" transform="matrix(1,0,0,1,-675.272,-231.644) matrix(28,0,0,28,744.636,374.669)"/>
  <path fill="#fff" fill-rule="nonzero" d="M0.365,-0l-0.11,-0.302l-0.067,0l0,0.302l-0.116,-0l0,-0.708l0.202,0c0.029,0 0.056,0.004 0.081,0.011c0.025,0.008 0.046,0.02 0.063,0.037c0.018,0.017 0.032,0.038 0.042,0.063c0.01,0.025 0.015,0.056 0.015,0.091c-0,0.027 -0.004,0.051 -0.011,0.073c-0.007,0.021 -0.015,0.038 -0.026,0.053c-0.011,0.015 -0.023,0.027 -0.035,0.036c-0.014,0.008 -0.026,0.015 -0.039,0.018l0.127,0.326l-0.126,-0Zm-0.008,-0.5c-0,-0.021 -0.003,-0.039 -0.009,-0.053c-0.006,-0.014 -0.014,-0.025 -0.024,-0.033c-0.009,-0.008 -0.02,-0.014 -0.032,-0.017c-0.012,-0.003 -0.024,-0.005 -0.036,-0.005l-0.068,0l0,0.218l0.068,0c0.029,0 0.053,-0.009 0.073,-0.027c0.018,-0.019 0.028,-0.046 0.028,-0.083Z" transform="matrix(1,0,0,1,-675.272,-231.644) matrix(28,0,0,28,758.804,374.669)"/>
  <path fill="#fff" fill-rule="nonzero" d="M0.382,-0l-0.201,-0.5l-0.003,0l0.002,0.5l-0.108,-0l0,-0.708l0.137,0l0.199,0.503l0.003,-0l-0.001,-0.503l0.104,0l0,0.708l-0.132,-0Z" transform="matrix(1,0,0,1,-675.272,-231.644) matrix(28,0,0,28,773.168,374.669)"/>
  <path fill="#fff" fill-rule="nonzero" d="M.072-.708H.192V0H.072z" transform="matrix(1,0,0,1,-675.272,-231.644) matrix(28,0,0,28,789.576,374.669)"/>
  <path fill="#fff" fill-rule="nonzero" d="M0.382,-0l-0.201,-0.5l-0.003,0l0.002,0.5l-0.108,-0l0,-0.708l0.137,0l0.199,0.503l0.003,-0l-0.001,-0.503l0.104,0l0,0.708l-0.132,-0Z" transform="matrix(1,0,0,1,-675.272,-231.644) matrix(28,0,0,28,796.968,374.669)"/>
  <path fill="#fff" fill-rule="nonzero" d="M0.493,-0.043c-0.021,0.017 -0.047,0.031 -0.077,0.042c-0.029,0.011 -0.065,0.016 -0.106,0.016c-0.042,-0 -0.08,-0.009 -0.113,-0.027c-0.033,-0.017 -0.062,-0.042 -0.085,-0.075c-0.023,-0.033 -0.04,-0.072 -0.053,-0.117c-0.012,-0.045 -0.018,-0.096 -0.018,-0.151c0,-0.054 0.006,-0.104 0.018,-0.149c0.012,-0.045 0.029,-0.085 0.052,-0.118c0.023,-0.032 0.05,-0.058 0.082,-0.077c0.032,-0.018 0.068,-0.027 0.108,-0.027c0.042,0 0.078,0.007 0.109,0.022c0.031,0.015 0.056,0.037 0.075,0.064l-0.069,0.084c-0.027,-0.039 -0.063,-0.058 -0.108,-0.058c-0.025,0 -0.046,0.007 -0.065,0.021c-0.018,0.014 -0.033,0.033 -0.045,0.056c-0.012,0.024 -0.021,0.052 -0.027,0.083c-0.006,0.031 -0.009,0.064 -0.009,0.099c0,0.036 0.003,0.07 0.009,0.101c0.006,0.032 0.015,0.06 0.027,0.083c0.012,0.024 0.027,0.043 0.045,0.056c0.019,0.013 0.041,0.02 0.066,0.02c0.016,-0 0.031,-0.002 0.043,-0.006c0.014,-0.003 0.024,-0.008 0.032,-0.014l0,-0.183l-0.086,-0l0,-0.104l0.195,-0l0,0.359Z" transform="matrix(1,0,0,1,-675.272,-231.644) matrix(28,0,0,28,813.376,374.669)"/>
</svg>
