<svg xmlns="http://www.w3.org/2000/svg" xml:space="preserve" fill-rule="evenodd" stroke-linejoin="round" stroke-miterlimit="2" clip-rule="evenodd" viewBox="0 0 189 277">
  <path fill="#5a90aa" d="M37.373,276.49c-49.883,-88.227 -49.831,-188.283 0.159,-276.49l150.613,86.956c-8.356,15.218 -13.095,32.693 -13.095,51.266c0,18.558 4.731,36.019 13.075,51.231l-150.752,87.037Z"/>
  <path fill="#fff" fill-rule="nonzero" d="M17.96,103.821l-0,-19.824l8.876,0l-0,2.968l-5.656,0l-0,5.264l5.236,0l-0,2.744l-5.236,0l-0,5.852l5.936,0l-0,2.996l-9.156,0Z"/>
  <path fill="#fff" fill-rule="nonzero" d="M39.128,103.821l-5.628,-14l-0.084,0l0.056,14l-3.024,0l-0,-19.824l3.836,0l5.572,14.084l0.084,0l-0.028,-14.084l2.912,0l-0,19.824l-3.696,0Z"/>
  <path fill="#fff" fill-rule="nonzero" d="M58.924,102.617c-0.588,0.476 -1.316,0.868 -2.156,1.176c-0.812,0.308 -1.82,0.448 -2.968,0.448c-1.176,0 -2.24,-0.252 -3.164,-0.756c-0.924,-0.476 -1.736,-1.176 -2.38,-2.1c-0.644,-0.924 -1.12,-2.016 -1.484,-3.276c-0.336,-1.26 -0.504,-2.688 -0.504,-4.228c0,-1.512 0.168,-2.912 0.504,-4.172c0.336,-1.26 0.812,-2.38 1.456,-3.304c0.644,-0.896 1.4,-1.624 2.296,-2.156c0.896,-0.504 1.904,-0.756 3.024,-0.756c1.176,0 2.184,0.196 3.052,0.616c0.868,0.42 1.568,1.036 2.1,1.792l-1.932,2.352c-0.756,-1.092 -1.764,-1.624 -3.024,-1.624c-0.7,0 -1.288,0.196 -1.82,0.588c-0.504,0.392 -0.924,0.924 -1.26,1.568c-0.336,0.672 -0.588,1.456 -0.756,2.324c-0.168,0.868 -0.252,1.792 -0.252,2.772c0,1.008 0.084,1.96 0.252,2.828c0.168,0.896 0.42,1.68 0.756,2.324c0.336,0.672 0.756,1.204 1.26,1.568c0.532,0.364 1.148,0.56 1.848,0.56c0.448,0 0.868,-0.056 1.204,-0.168c0.392,-0.084 0.672,-0.224 0.896,-0.392l0,-5.124l-2.408,0l0,-2.912l5.46,0l0,10.052Z"/>
  <path fill="#fff" fill-rule="nonzero" d="M71.384,103.821l-0.98,-4.2l-5.208,0l-1.008,4.2l-3.36,0l4.928,-19.824l4.284,0l4.844,19.824l-3.5,0Zm-3.5,-16.66l-0.112,0l-2.156,9.828l4.368,0l-2.1,-9.828Z"/>
  <path fill="#fff" fill-rule="nonzero" d="M88.856,102.617c-0.588,0.476 -1.316,0.868 -2.156,1.176c-0.812,0.308 -1.82,0.448 -2.968,0.448c-1.176,0 -2.24,-0.252 -3.164,-0.756c-0.924,-0.476 -1.736,-1.176 -2.38,-2.1c-0.644,-0.924 -1.12,-2.016 -1.484,-3.276c-0.336,-1.26 -0.504,-2.688 -0.504,-4.228c-0,-1.512 0.168,-2.912 0.504,-4.172c0.336,-1.26 0.812,-2.38 1.456,-3.304c0.644,-0.896 1.4,-1.624 2.296,-2.156c0.896,-0.504 1.904,-0.756 3.024,-0.756c1.176,0 2.184,0.196 3.052,0.616c0.868,0.42 1.568,1.036 2.1,1.792l-1.932,2.352c-0.756,-1.092 -1.764,-1.624 -3.024,-1.624c-0.7,0 -1.288,0.196 -1.82,0.588c-0.504,0.392 -0.924,0.924 -1.26,1.568c-0.336,0.672 -0.588,1.456 -0.756,2.324c-0.168,0.868 -0.252,1.792 -0.252,2.772c-0,1.008 0.084,1.96 0.252,2.828c0.168,0.896 0.42,1.68 0.756,2.324c0.336,0.672 0.756,1.204 1.26,1.568c0.532,0.364 1.148,0.56 1.848,0.56c0.448,0 0.868,-0.056 1.204,-0.168c0.392,-0.084 0.672,-0.224 0.896,-0.392l-0,-5.124l-2.408,0l-0,-2.912l5.46,0l-0,10.052Z"/>
  <path fill="#fff" fill-rule="nonzero" d="M92.72,103.821l0,-19.824l8.876,0l0,2.968l-5.656,0l0,5.264l5.236,0l0,2.744l-5.236,0l0,5.852l5.936,0l0,2.996l-9.156,0Z"/>
  <path fill="#fff" fill-rule="nonzero" d="M118.816,103.821l0.056,-15.232l-0.084,0l-3.976,15.232l-2.632,0l-3.892,-15.232l-0.084,0l0.056,15.232l-3.052,0l0,-19.824l4.508,0l3.808,14.504l0.112,0l3.724,-14.504l4.732,0l0,19.824l-3.276,0Z"/>
  <path fill="#fff" fill-rule="nonzero" d="M126.376,103.821l-0,-19.824l8.876,0l-0,2.968l-5.656,0l-0,5.264l5.236,0l-0,2.744l-5.236,0l-0,5.852l5.936,0l-0,2.996l-9.156,0Z"/>
  <path fill="#fff" fill-rule="nonzero" d="M147.544,103.821l-5.628,-14l-0.084,0l0.056,14l-3.024,0l0,-19.824l3.836,0l5.572,14.084l0.084,0l-0.028,-14.084l2.912,0l-0,19.824l-3.696,0Z"/>
  <path fill="#fff" fill-rule="nonzero" d="M160.508,86.853l0,16.968l-3.304,0l0,-16.968l-3.724,0l-0,-2.856l10.752,0l-0,2.856l-3.724,0Z"/>
  <path fill="#fff" fill-rule="nonzero" d="M45.708,116.843l-0,16.968l-3.304,0l-0,-16.968l-3.724,0l0,-2.856l10.752,0l-0,2.856l-3.724,0Z"/>
  <path fill="#fff" fill-rule="nonzero" d="M60.94,133.811l0,-8.792l-5.936,0l0,8.792l-3.332,0l0,-19.824l3.332,0l0,8.036l5.936,0l0,-8.036l3.332,0l0,19.824l-3.332,0Z"/>
  <path fill="#fff" fill-rule="nonzero" d="M76.788,133.811l-3.08,-8.456l-1.876,0l-0,8.456l-3.248,0l0,-19.824l5.656,0c0.812,0 1.568,0.112 2.268,0.308c0.7,0.224 1.288,0.56 1.764,1.036c0.504,0.476 0.896,1.064 1.176,1.764c0.28,0.7 0.42,1.568 0.42,2.548c-0,0.756 -0.112,1.428 -0.308,2.044c-0.196,0.588 -0.42,1.064 -0.728,1.484c-0.308,0.42 -0.644,0.756 -0.98,1.008c-0.392,0.224 -0.728,0.42 -1.092,0.504l3.556,9.128l-3.528,0Zm-0.224,-14c0,-0.588 -0.084,-1.092 -0.252,-1.484c-0.168,-0.392 -0.392,-0.7 -0.672,-0.924c-0.252,-0.224 -0.56,-0.392 -0.896,-0.476c-0.336,-0.084 -0.672,-0.14 -1.008,-0.14l-1.904,0l-0,6.104l1.904,0c0.812,0 1.484,-0.252 2.044,-0.756c0.504,-0.532 0.784,-1.288 0.784,-2.324Z"/>
  <path fill="#fff" fill-rule="nonzero" d="M96.64,123.871c-0,1.568 -0.168,2.996 -0.504,4.256c-0.308,1.288 -0.784,2.38 -1.4,3.304c-0.616,0.924 -1.372,1.624 -2.268,2.128c-0.868,0.504 -1.876,0.756 -2.968,0.756c-1.12,0 -2.128,-0.252 -2.996,-0.756c-0.868,-0.504 -1.624,-1.204 -2.24,-2.128c-0.616,-0.924 -1.092,-2.016 -1.428,-3.304c-0.308,-1.26 -0.476,-2.688 -0.476,-4.256c-0,-1.568 0.168,-2.996 0.476,-4.256c0.308,-1.26 0.784,-2.352 1.4,-3.276c0.616,-0.924 1.372,-1.624 2.24,-2.128c0.896,-0.476 1.904,-0.728 3.024,-0.728c1.092,-0 2.1,0.252 2.968,0.728c0.896,0.504 1.652,1.204 2.268,2.128c0.616,0.924 1.092,2.016 1.4,3.276c0.336,1.26 0.504,2.688 0.504,4.256Zm-3.472,0c-0,-1.008 -0.084,-1.96 -0.252,-2.856c-0.14,-0.868 -0.392,-1.624 -0.7,-2.296c-0.308,-0.644 -0.672,-1.148 -1.148,-1.512c-0.448,-0.364 -0.98,-0.56 -1.568,-0.56c-0.616,0 -1.148,0.196 -1.624,0.56c-0.448,0.364 -0.84,0.868 -1.148,1.512c-0.308,0.644 -0.532,1.428 -0.672,2.296c-0.14,0.896 -0.224,1.848 -0.224,2.856c-0,1.008 0.084,1.96 0.224,2.828c0.14,0.896 0.364,1.68 0.672,2.324c0.308,0.644 0.7,1.176 1.148,1.54c0.476,0.364 1.008,0.56 1.624,0.56c0.616,0 1.148,-0.196 1.596,-0.56c0.476,-0.364 0.84,-0.896 1.148,-1.54c0.336,-0.644 0.56,-1.428 0.7,-2.324c0.14,-0.868 0.224,-1.82 0.224,-2.828Z"/>
  <path fill="#fff" fill-rule="nonzero" d="M112.208,126.783c-0,1.036 -0.112,2.016 -0.336,2.94c-0.224,0.924 -0.588,1.708 -1.092,2.408c-0.504,0.672 -1.148,1.204 -1.96,1.596c-0.784,0.392 -1.736,0.588 -2.884,0.588c-1.148,0 -2.1,-0.196 -2.884,-0.588c-0.784,-0.392 -1.428,-0.924 -1.932,-1.596c-0.476,-0.7 -0.84,-1.484 -1.064,-2.408c-0.196,-0.924 -0.308,-1.904 -0.308,-2.94l-0,-12.796l3.36,0l-0,12.488c-0,0.616 0.056,1.204 0.14,1.764c0.084,0.588 0.224,1.092 0.448,1.512c0.196,0.42 0.504,0.756 0.868,1.008c0.364,0.252 0.84,0.392 1.428,0.392c0.588,0 1.064,-0.14 1.428,-0.392c0.364,-0.252 0.672,-0.588 0.868,-1.008c0.224,-0.42 0.392,-0.924 0.476,-1.512c0.084,-0.56 0.112,-1.148 0.112,-1.764l-0,-12.488l3.332,0l0,12.796Z"/>
  <path fill="#fff" fill-rule="nonzero" d="M128,132.607c-0.588,0.476 -1.316,0.868 -2.156,1.176c-0.812,0.308 -1.82,0.448 -2.968,0.448c-1.176,0 -2.24,-0.252 -3.164,-0.756c-0.924,-0.476 -1.736,-1.176 -2.38,-2.1c-0.644,-0.924 -1.12,-2.016 -1.484,-3.276c-0.336,-1.26 -0.504,-2.688 -0.504,-4.228c-0,-1.512 0.168,-2.912 0.504,-4.172c0.336,-1.26 0.812,-2.38 1.456,-3.304c0.644,-0.896 1.4,-1.624 2.296,-2.156c0.896,-0.504 1.904,-0.756 3.024,-0.756c1.176,0 2.184,0.196 3.052,0.616c0.868,0.42 1.568,1.036 2.1,1.792l-1.932,2.352c-0.756,-1.092 -1.764,-1.624 -3.024,-1.624c-0.7,0 -1.288,0.196 -1.82,0.588c-0.504,0.392 -0.924,0.924 -1.26,1.568c-0.336,0.672 -0.588,1.456 -0.756,2.324c-0.168,0.868 -0.252,1.792 -0.252,2.772c-0,1.008 0.084,1.96 0.252,2.828c0.168,0.896 0.42,1.68 0.756,2.324c0.336,0.672 0.756,1.204 1.26,1.568c0.532,0.364 1.148,0.56 1.848,0.56c0.448,0 0.868,-0.056 1.204,-0.168c0.392,-0.084 0.672,-0.224 0.896,-0.392l-0,-5.124l-2.408,0l-0,-2.912l5.46,0l-0,10.052Z"/>
  <path fill="#fff" fill-rule="nonzero" d="M141.132,133.811l0,-8.792l-5.936,0l0,8.792l-3.332,0l0,-19.824l3.332,0l0,8.036l5.936,0l0,-8.036l3.332,0l0,19.824l-3.332,0Z"/>
  <path fill="#fff" fill-rule="nonzero" d="M62.284,161.673c-0.532,0.784 -1.176,1.428 -2.016,1.904c-0.784,0.476 -1.82,0.728 -3.052,0.728c-1.12,0 -2.128,-0.252 -3.024,-0.784c-0.924,-0.532 -1.68,-1.26 -2.324,-2.184c-0.616,-0.924 -1.092,-2.016 -1.456,-3.276c-0.336,-1.26 -0.504,-2.66 -0.504,-4.172c-0,-1.512 0.168,-2.912 0.532,-4.172c0.336,-1.288 0.812,-2.408 1.456,-3.332c0.644,-0.896 1.4,-1.624 2.324,-2.156c0.896,-0.504 1.904,-0.756 2.996,-0.756c1.148,0 2.128,0.196 2.996,0.616c0.868,0.42 1.568,1.036 2.1,1.82l-1.932,2.352c-0.756,-1.092 -1.764,-1.652 -2.968,-1.652c-0.672,0 -1.26,0.196 -1.764,0.588c-0.504,0.364 -0.924,0.896 -1.26,1.54c-0.336,0.644 -0.588,1.428 -0.756,2.324c-0.168,0.868 -0.252,1.82 -0.252,2.828c-0,0.98 0.084,1.932 0.252,2.8c0.168,0.896 0.42,1.68 0.756,2.324c0.336,0.644 0.756,1.176 1.26,1.54c0.532,0.392 1.12,0.588 1.82,0.588c0.644,0 1.204,-0.168 1.708,-0.504c0.476,-0.336 0.868,-0.756 1.176,-1.232l1.932,2.268Z"/>
  <path fill="#fff" fill-rule="nonzero" d="M74.212,163.801l0,-8.792l-5.936,0l-0,8.792l-3.332,0l-0,-19.824l3.332,0l-0,8.036l5.936,0l-0,-8.036l3.332,0l-0,19.824l-3.332,0Z"/>
  <path fill="#fff" fill-rule="nonzero" d="M95.268,153.861c-0,1.568 -0.168,2.996 -0.504,4.256c-0.308,1.288 -0.784,2.38 -1.4,3.304c-0.616,0.924 -1.372,1.624 -2.268,2.128c-0.868,0.504 -1.876,0.756 -2.968,0.756c-1.12,0 -2.128,-0.252 -2.996,-0.756c-0.868,-0.504 -1.624,-1.204 -2.24,-2.128c-0.616,-0.924 -1.092,-2.016 -1.428,-3.304c-0.308,-1.26 -0.476,-2.688 -0.476,-4.256c-0,-1.568 0.168,-2.996 0.476,-4.256c0.308,-1.26 0.784,-2.352 1.4,-3.276c0.616,-0.924 1.372,-1.624 2.24,-2.128c0.896,-0.476 1.904,-0.728 3.024,-0.728c1.092,0 2.1,0.252 2.968,0.728c0.896,0.504 1.652,1.204 2.268,2.128c0.616,0.924 1.092,2.016 1.4,3.276c0.336,1.26 0.504,2.688 0.504,4.256Zm-3.472,0c-0,-1.008 -0.084,-1.96 -0.252,-2.856c-0.14,-0.868 -0.392,-1.624 -0.7,-2.296c-0.308,-0.644 -0.672,-1.148 -1.148,-1.512c-0.448,-0.364 -0.98,-0.56 -1.568,-0.56c-0.616,0 -1.148,0.196 -1.624,0.56c-0.448,0.364 -0.84,0.868 -1.148,1.512c-0.308,0.644 -0.532,1.428 -0.672,2.296c-0.14,0.896 -0.224,1.848 -0.224,2.856c-0,1.008 0.084,1.96 0.224,2.828c0.14,0.896 0.364,1.68 0.672,2.324c0.308,0.644 0.7,1.176 1.148,1.54c0.476,0.364 1.008,0.56 1.624,0.56c0.616,0 1.148,-0.196 1.596,-0.56c0.476,-0.364 0.84,-0.896 1.148,-1.54c0.336,-0.644 0.56,-1.428 0.7,-2.324c0.14,-0.868 0.224,-1.82 0.224,-2.828Z"/>
  <path fill="#fff" fill-rule="nonzero" d="M98.684 143.977H102.044V163.801H98.684z"/>
  <path fill="#fff" fill-rule="nonzero" d="M117.864,161.673c-0.532,0.784 -1.176,1.428 -2.016,1.904c-0.784,0.476 -1.82,0.728 -3.052,0.728c-1.12,0 -2.128,-0.252 -3.024,-0.784c-0.924,-0.532 -1.68,-1.26 -2.324,-2.184c-0.616,-0.924 -1.092,-2.016 -1.456,-3.276c-0.336,-1.26 -0.504,-2.66 -0.504,-4.172c-0,-1.512 0.168,-2.912 0.532,-4.172c0.336,-1.288 0.812,-2.408 1.456,-3.332c0.644,-0.896 1.4,-1.624 2.324,-2.156c0.896,-0.504 1.904,-0.756 2.996,-0.756c1.148,0 2.128,0.196 2.996,0.616c0.868,0.42 1.568,1.036 2.1,1.82l-1.932,2.352c-0.756,-1.092 -1.764,-1.652 -2.968,-1.652c-0.672,0 -1.26,0.196 -1.764,0.588c-0.504,0.364 -0.924,0.896 -1.26,1.54c-0.336,0.644 -0.588,1.428 -0.756,2.324c-0.168,0.868 -0.252,1.82 -0.252,2.828c0,0.98 0.084,1.932 0.252,2.8c0.168,0.896 0.42,1.68 0.756,2.324c0.336,0.644 0.756,1.176 1.26,1.54c0.532,0.392 1.12,0.588 1.82,0.588c0.644,0 1.204,-0.168 1.708,-0.504c0.476,-0.336 0.868,-0.756 1.176,-1.232l1.932,2.268Z"/>
  <path fill="#fff" fill-rule="nonzero" d="M120.524,163.801l-0,-19.824l8.876,0l-0,2.968l-5.656,0l-0,5.264l5.236,0l0,2.744l-5.236,0l0,5.852l5.936,0l0,2.996l-9.156,0Z"/>
  <path fill="#fff" fill-rule="nonzero" d="M46.548,193.791l-1.428,-2.044c-0.364,0.672 -0.896,1.26 -1.596,1.764c-0.728,0.476 -1.596,0.728 -2.688,0.728c-1.596,0 -2.856,-0.504 -3.808,-1.54c-0.952,-1.008 -1.428,-2.436 -1.428,-4.312c0,-1.372 0.336,-2.492 0.98,-3.416c0.644,-0.924 1.428,-1.652 2.38,-2.212c-0.532,-0.756 -0.896,-1.456 -1.148,-2.128c-0.252,-0.7 -0.364,-1.428 -0.364,-2.24c0,-0.756 0.112,-1.456 0.364,-2.072c0.252,-0.616 0.56,-1.148 0.98,-1.568c0.42,-0.42 0.924,-0.756 1.512,-0.98c0.588,-0.252 1.232,-0.364 1.876,-0.364c0.672,0 1.26,0.112 1.792,0.336c0.56,0.196 1.008,0.504 1.4,0.924c0.392,0.392 0.7,0.868 0.924,1.456c0.224,0.588 0.336,1.232 0.336,1.96c0,0.644 -0.112,1.204 -0.308,1.736c-0.196,0.532 -0.476,1.008 -0.812,1.428c-0.336,0.42 -0.728,0.812 -1.176,1.176c-0.448,0.364 -0.924,0.672 -1.4,0.98l2.268,3.276l1.512,-3.668l3.304,0l-2.94,6.048l3.332,4.732l-3.864,0Zm-2.828,-15.512c0,-0.672 -0.14,-1.232 -0.392,-1.652c-0.252,-0.42 -0.644,-0.644 -1.148,-0.644c-0.476,0 -0.896,0.224 -1.204,0.7c-0.308,0.476 -0.448,1.036 -0.448,1.708c0,0.588 0.084,1.12 0.28,1.596c0.196,0.476 0.448,0.98 0.84,1.512c0.532,-0.364 1.036,-0.812 1.456,-1.316c0.42,-0.532 0.616,-1.148 0.616,-1.904Zm-3.276,6.692c-0.42,0.252 -0.784,0.644 -1.148,1.176c-0.364,0.532 -0.532,1.204 -0.532,2.044c0,0.98 0.224,1.764 0.644,2.352c0.448,0.56 1.036,0.84 1.736,0.84c0.588,0 1.092,-0.196 1.484,-0.616c0.392,-0.42 0.672,-0.896 0.84,-1.372l-3.024,-4.424Z"/>
  <path fill="#fff" fill-rule="nonzero" d="M69.931,179.819c-0,1.008 -0.14,1.904 -0.448,2.632c-0.308,0.784 -0.728,1.4 -1.232,1.904c-0.504,0.504 -1.064,0.868 -1.736,1.12c-0.644,0.252 -1.316,0.364 -1.988,0.364l-2.352,0l-0,7.952l-3.304,0l-0,-19.824l5.488,0c0.616,0 1.26,0.084 1.932,0.28c0.672,0.196 1.288,0.504 1.82,0.952c0.532,0.476 0.952,1.064 1.316,1.82c0.336,0.756 0.504,1.68 0.504,2.8Zm-3.164,0.056c-0,-1.064 -0.252,-1.848 -0.756,-2.324c-0.504,-0.476 -1.148,-0.728 -1.932,-0.728l-1.904,0l-0,6.272l1.904,0c0.784,0 1.428,-0.28 1.932,-0.812c0.504,-0.56 0.756,-1.372 0.756,-2.408Z"/>
  <path fill="#fff" fill-rule="nonzero" d="M80.431,193.791l-0.98,-4.2l-5.208,0l-1.008,4.2l-3.36,0l4.928,-19.824l4.284,0l4.844,19.824l-3.5,0Zm-3.5,-16.66l-0.112,0l-2.156,9.828l4.368,0l-2.1,-9.828Z"/>
  <path fill="#fff" fill-rule="nonzero" d="M94.067,177.803c-0.728,-0.868 -1.652,-1.316 -2.744,-1.316c-0.308,0 -0.616,0.056 -0.924,0.168c-0.308,0.084 -0.56,0.252 -0.812,0.476c-0.252,0.224 -0.448,0.504 -0.56,0.868c-0.168,0.364 -0.224,0.784 -0.224,1.26c0,0.84 0.252,1.484 0.756,1.96c0.504,0.448 1.176,0.868 1.988,1.288c0.476,0.252 0.98,0.532 1.484,0.84c0.504,0.308 0.952,0.7 1.372,1.148c0.42,0.448 0.756,0.98 1.008,1.596c0.252,0.616 0.392,1.344 0.392,2.184c0,0.98 -0.168,1.82 -0.476,2.576c-0.308,0.756 -0.7,1.372 -1.232,1.904c-0.504,0.504 -1.092,0.896 -1.792,1.148c-0.7,0.252 -1.428,0.392 -2.184,0.392c-1.092,0 -2.128,-0.224 -3.052,-0.644c-0.924,-0.42 -1.68,-0.98 -2.24,-1.624l1.82,-2.464c0.42,0.532 0.952,0.924 1.54,1.232c0.616,0.308 1.232,0.448 1.876,0.448c0.7,0 1.288,-0.252 1.764,-0.728c0.476,-0.476 0.7,-1.176 0.7,-2.044c0,-0.868 -0.28,-1.54 -0.84,-2.044c-0.56,-0.504 -1.26,-0.98 -2.128,-1.4c-0.532,-0.252 -1.064,-0.56 -1.512,-0.868c-0.504,-0.308 -0.924,-0.7 -1.288,-1.148c-0.364,-0.42 -0.644,-0.952 -0.868,-1.54c-0.196,-0.588 -0.308,-1.288 -0.308,-2.1c0,-1.036 0.168,-1.904 0.476,-2.66c0.336,-0.728 0.756,-1.344 1.288,-1.82c0.532,-0.476 1.148,-0.84 1.82,-1.092c0.672,-0.224 1.344,-0.336 2.044,-0.336c1.008,0 1.904,0.168 2.688,0.476c0.812,0.336 1.484,0.812 2.016,1.456l-1.848,2.408Z"/>
  <path fill="#fff" fill-rule="nonzero" d="M106.919,177.803c-0.728,-0.868 -1.652,-1.316 -2.744,-1.316c-0.308,0 -0.616,0.056 -0.924,0.168c-0.308,0.084 -0.56,0.252 -0.812,0.476c-0.252,0.224 -0.448,0.504 -0.56,0.868c-0.168,0.364 -0.224,0.784 -0.224,1.26c-0,0.84 0.252,1.484 0.756,1.96c0.504,0.448 1.176,0.868 1.988,1.288c0.476,0.252 0.98,0.532 1.484,0.84c0.504,0.308 0.952,0.7 1.372,1.148c0.42,0.448 0.756,0.98 1.008,1.596c0.252,0.616 0.392,1.344 0.392,2.184c0,0.98 -0.168,1.82 -0.476,2.576c-0.308,0.756 -0.7,1.372 -1.232,1.904c-0.504,0.504 -1.092,0.896 -1.792,1.148c-0.7,0.252 -1.428,0.392 -2.184,0.392c-1.092,0 -2.128,-0.224 -3.052,-0.644c-0.924,-0.42 -1.68,-0.98 -2.24,-1.624l1.82,-2.464c0.42,0.532 0.952,0.924 1.54,1.232c0.616,0.308 1.232,0.448 1.876,0.448c0.7,0 1.288,-0.252 1.764,-0.728c0.476,-0.476 0.7,-1.176 0.7,-2.044c0,-0.868 -0.28,-1.54 -0.84,-2.044c-0.56,-0.504 -1.26,-0.98 -2.128,-1.4c-0.532,-0.252 -1.064,-0.56 -1.512,-0.868c-0.504,-0.308 -0.924,-0.7 -1.288,-1.148c-0.364,-0.42 -0.644,-0.952 -0.868,-1.54c-0.196,-0.588 -0.308,-1.288 -0.308,-2.1c0,-1.036 0.168,-1.904 0.476,-2.66c0.336,-0.728 0.756,-1.344 1.288,-1.82c0.532,-0.476 1.148,-0.84 1.82,-1.092c0.672,-0.224 1.344,-0.336 2.044,-0.336c1.008,0 1.904,0.168 2.688,0.476c0.812,0.336 1.484,0.812 2.016,1.456l-1.848,2.408Z"/>
  <path fill="#fff" fill-rule="nonzero" d="M111.987 173.967H115.347V193.791H111.987z"/>
  <path fill="#fff" fill-rule="nonzero" d="M133.071,183.851c-0,1.568 -0.168,2.996 -0.504,4.256c-0.308,1.288 -0.784,2.38 -1.4,3.304c-0.616,0.924 -1.372,1.624 -2.268,2.128c-0.868,0.504 -1.876,0.756 -2.968,0.756c-1.12,0 -2.128,-0.252 -2.996,-0.756c-0.868,-0.504 -1.624,-1.204 -2.24,-2.128c-0.616,-0.924 -1.092,-2.016 -1.428,-3.304c-0.308,-1.26 -0.476,-2.688 -0.476,-4.256c-0,-1.568 0.168,-2.996 0.476,-4.256c0.308,-1.26 0.784,-2.352 1.4,-3.276c0.616,-0.924 1.372,-1.624 2.24,-2.128c0.896,-0.476 1.904,-0.728 3.024,-0.728c1.092,0 2.1,0.252 2.968,0.728c0.896,0.504 1.652,1.204 2.268,2.128c0.616,0.924 1.092,2.016 1.4,3.276c0.336,1.26 0.504,2.688 0.504,4.256Zm-3.472,0c-0,-1.008 -0.084,-1.96 -0.252,-2.856c-0.14,-0.868 -0.392,-1.624 -0.7,-2.296c-0.308,-0.644 -0.672,-1.148 -1.148,-1.512c-0.448,-0.364 -0.98,-0.56 -1.568,-0.56c-0.616,0 -1.148,0.196 -1.624,0.56c-0.448,0.364 -0.84,0.868 -1.148,1.512c-0.308,0.644 -0.532,1.428 -0.672,2.296c-0.14,0.896 -0.224,1.848 -0.224,2.856c-0,1.008 0.084,1.96 0.224,2.828c0.14,0.896 0.364,1.68 0.672,2.324c0.308,0.644 0.7,1.176 1.148,1.54c0.476,0.364 1.008,0.56 1.624,0.56c0.616,0 1.148,-0.196 1.596,-0.56c0.476,-0.364 0.84,-0.896 1.148,-1.54c0.336,-0.644 0.56,-1.428 0.7,-2.324c0.14,-0.868 0.224,-1.82 0.224,-2.828Z"/>
  <path fill="#fff" fill-rule="nonzero" d="M145.167,193.791l-5.628,-14l-0.084,0l0.056,14l-3.024,0l-0,-19.824l3.836,0l5.572,14.084l0.084,0l-0.028,-14.084l2.912,0l-0,19.824l-3.696,0Z"/>
</svg>
