<?xml version="1.0" encoding="UTF-8" standalone="no"?><!DOCTYPE svg PUBLIC "-//W3C//DTD SVG 1.1//EN" "http://www.w3.org/Graphics/SVG/1.1/DTD/svg11.dtd"><svg width="100%" height="100%" viewBox="0 0 564 564" version="1.1" xmlns="http://www.w3.org/2000/svg" xmlns:xlink="http://www.w3.org/1999/xlink" xml:space="preserve" xmlns:serif="http://www.serif.com/" style="fill-rule:evenodd;clip-rule:evenodd;"><rect id="Artboard1" x="0" y="0" width="563.123" height="563.123" style="fill:none;"/><clipPath id="_clip1"><rect x="0" y="0" width="563.123" height="563.123"/></clipPath><g clip-path="url(#_clip1)"><g id="Layer1"><path d="M197.017,15.694c26.787,-8.572 55.35,-13.194 84.983,-13.194c154.26,0 279.5,125.24 279.5,279.5c0,154.26 -125.24,279.5 -279.5,279.5c-154.26,0 -279.5,-125.24 -279.5,-279.5c0,-26.008 3.56,-51.192 10.236,-75.098" style="fill:none;stroke:url(#_Linear2);stroke-width:1px;"/><g><path d="M21.795,196.287c-0.334,0.445 -0.696,0.781 -1.088,1.023l-0.826,-0.79c0.392,-0.258 0.724,-0.563 0.993,-0.915c0.27,-0.353 0.478,-0.753 0.641,-1.217c0.179,-0.509 0.232,-0.927 0.145,-1.27c-0.088,-0.343 -0.286,-0.564 -0.61,-0.678c-0.278,-0.098 -0.543,-0.04 -0.779,0.158c-0.236,0.198 -0.522,0.582 -0.857,1.12c-0.351,0.568 -0.668,1.014 -0.984,1.335c-0.316,0.32 -0.63,0.533 -0.973,0.636c-0.343,0.103 -0.716,0.081 -1.132,-0.065c-0.433,-0.147 -0.786,-0.401 -1.044,-0.762c-0.258,-0.362 -0.406,-0.783 -0.445,-1.281c-0.038,-0.497 0.033,-1.039 0.243,-1.595c0.18,-0.509 0.436,-0.987 0.753,-1.401c0.317,-0.414 0.664,-0.719 1.04,-0.93l0.825,0.79c-0.752,0.469 -1.275,1.113 -1.552,1.9c-0.163,0.479 -0.201,0.882 -0.113,1.225c0.103,0.343 0.317,0.579 0.656,0.693c0.294,0.098 0.543,0.056 0.794,-0.142c0.236,-0.182 0.522,-0.55 0.872,-1.088c0.351,-0.569 0.684,-1.029 1,-1.35c0.3,-0.321 0.63,-0.549 0.974,-0.668c0.343,-0.118 0.715,-0.097 1.117,0.05c0.432,0.146 0.785,0.401 1.028,0.762c0.242,0.361 0.391,0.782 0.414,1.279c0.022,0.513 -0.064,1.055 -0.276,1.657c-0.226,0.571 -0.483,1.079 -0.816,1.524Z" style="fill:#9199a1;fill-rule:nonzero;"/><path d="M24.731,188.556l-7.299,-2.82l1.881,-4.891l1.049,0.405l-1.378,3.58l2.006,0.777l1.297,-3.379l1.049,0.405l-1.297,3.38l2.129,0.826l1.378,-3.58l1.049,0.405l-1.864,4.892Z" style="fill:#9199a1;fill-rule:nonzero;"/><path d="M27.92,180.472l-7.201,-3.036l0.549,-1.311l6.122,2.584l1.421,-3.362l1.08,0.452l-1.971,4.673Z" style="fill:#9199a1;fill-rule:nonzero;"/><path d="M31.213,172.793l-7.105,-3.267l2.189,-4.762l1.033,0.467l-1.594,3.483l1.957,0.901l1.513,-3.282l1.017,0.466l-1.513,3.283l2.081,0.95l1.594,-3.483l1.032,0.467l-2.204,4.777Z" style="fill:#9199a1;fill-rule:nonzero;"/><path d="M35.216,163.402c-0.55,0.364 -1.158,0.556 -1.842,0.561c-0.683,0.004 -1.378,-0.178 -2.102,-0.531c-0.725,-0.354 -1.276,-0.813 -1.686,-1.363c-0.411,-0.55 -0.618,-1.144 -0.654,-1.812c-0.052,-0.653 0.099,-1.333 0.436,-2.011c0.241,-0.478 0.527,-0.877 0.89,-1.228c0.363,-0.351 0.739,-0.593 1.145,-0.742l0.715,0.897c-0.406,0.195 -0.752,0.422 -1.02,0.666c-0.268,0.244 -0.49,0.551 -0.666,0.905c-0.338,0.678 -0.379,1.299 -0.124,1.893c0.254,0.594 0.789,1.084 1.606,1.485c0.831,0.417 1.544,0.538 2.167,0.393c0.624,-0.146 1.096,-0.557 1.433,-1.235c0.177,-0.354 0.276,-0.71 0.328,-1.081c0.037,-0.372 0.013,-0.776 -0.073,-1.213l1.148,0.035c0.118,0.421 0.157,0.872 0.087,1.352c-0.07,0.496 -0.218,0.974 -0.443,1.437c-0.353,0.693 -0.796,1.229 -1.345,1.592Z" style="fill:#9199a1;fill-rule:nonzero;"/><path d="M40.091,154.802l-5.849,-3.153l-1.217,2.247l-1.031,-0.56l3.106,-5.741l1.031,0.56l-1.217,2.247l5.849,3.154l-0.672,1.246Z" style="fill:#9199a1;fill-rule:nonzero;"/><path d="M52.032,134.625l-1.967,-0.311l-2.039,3.212l1.122,1.649l-0.78,1.213l-4.697,-7.187l0.622,-0.984l8.488,1.225l-0.749,1.183Zm-4.704,1.911l1.545,-2.412l-3.577,-0.586l2.032,2.998Z" style="fill:#9199a1;fill-rule:nonzero;"/><path d="M51.056,122.111l1.986,-2.778c0.492,-0.675 1.042,-1.086 1.65,-1.216c0.607,-0.129 1.226,0.02 1.84,0.449c0.614,0.43 0.962,0.979 1.03,1.601c0.067,0.622 -0.13,1.271 -0.622,1.962l-1.16,1.611l2.471,1.764l-0.826,1.166l-6.369,-4.559Zm4.868,-0.496c0.571,-0.798 0.504,-1.451 -0.186,-1.944c-0.353,-0.254 -0.694,-0.337 -1.005,-0.264c-0.312,0.072 -0.611,0.316 -0.897,0.715l-1.049,1.473l2.088,1.494l1.048,-1.474Z" style="fill:#9199a1;fill-rule:nonzero;"/><path d="M60.088,109.929l0.856,-1.104l6.195,4.775l-0.856,1.104l-2.683,-2.078l-2.443,3.174l2.683,2.078l-0.856,1.119l-6.195,-4.774l0.856,-1.119l2.592,1.998l2.442,-3.174l-2.591,-1.999Z" style="fill:#9199a1;fill-rule:nonzero;"/><path d="M73.365,106.015l-1.916,-0.559l-2.439,2.926l0.903,1.769l-0.919,1.103l-3.741,-7.715l0.745,-0.889l8.269,2.277l-0.902,1.088Zm-4.897,1.287l1.837,-2.206l-3.476,-1.035l1.639,3.241Z" style="fill:#9199a1;fill-rule:nonzero;"/><path d="M76.723,101.924c-0.471,0.287 -0.939,0.466 -1.406,0.536l-0.465,-1.048c0.468,-0.085 0.889,-0.249 1.266,-0.461c0.376,-0.226 0.722,-0.516 1.054,-0.883c0.364,-0.398 0.572,-0.767 0.624,-1.123c0.052,-0.341 -0.052,-0.622 -0.297,-0.859c-0.214,-0.19 -0.477,-0.241 -0.774,-0.152c-0.296,0.104 -0.704,0.33 -1.222,0.71c-0.534,0.395 -1.005,0.682 -1.427,0.861c-0.407,0.18 -0.796,0.251 -1.137,0.215c-0.356,-0.037 -0.695,-0.198 -1.032,-0.498c-0.337,-0.301 -0.564,-0.677 -0.665,-1.098c-0.102,-0.436 -0.079,-0.886 0.068,-1.365c0.148,-0.479 0.435,-0.94 0.83,-1.384c0.364,-0.413 0.773,-0.748 1.228,-1.005c0.454,-0.256 0.891,-0.405 1.327,-0.46l0.464,1.048c-0.872,0.157 -1.592,0.533 -2.161,1.161c-0.333,0.382 -0.525,0.736 -0.562,1.093c-0.036,0.356 0.067,0.653 0.343,0.89c0.23,0.206 0.493,0.257 0.773,0.184c0.297,-0.089 0.704,-0.315 1.222,-0.679c0.55,-0.395 1.021,-0.682 1.443,-0.862c0.406,-0.179 0.796,-0.266 1.137,-0.245c0.357,0.021 0.696,0.182 1.017,0.467c0.352,0.316 0.564,0.676 0.666,1.097c0.102,0.421 0.063,0.871 -0.115,1.349c-0.179,0.479 -0.466,0.955 -0.893,1.43c-0.395,0.428 -0.836,0.794 -1.306,1.081Z" style="fill:#9199a1;fill-rule:nonzero;"/><path d="M82.363,95.914l-5.657,-5.387l3.602,-3.792l0.825,0.774l-2.638,2.783l1.56,1.485l2.496,-2.615l0.81,0.774l-2.496,2.615l1.652,1.579l2.638,-2.782l0.825,0.774l-3.617,3.792Z" style="fill:#9199a1;fill-rule:nonzero;"/><path d="M93.445,84.728l-4.58,-4.81l-1.845,1.756l-0.809,-0.852l4.731,-4.503l0.809,0.851l-1.845,1.756l4.579,4.81l-1.04,0.992Z" style="fill:#9199a1;fill-rule:nonzero;"/><path d="M99.144,78.89c-0.638,0.129 -1.259,0.072 -1.891,-0.186c-0.632,-0.259 -1.215,-0.688 -1.749,-1.286c-0.534,-0.599 -0.896,-1.242 -1.072,-1.881c-0.176,-0.655 -0.166,-1.276 0.046,-1.894c0.197,-0.617 0.594,-1.185 1.161,-1.689c0.567,-0.503 1.162,-0.819 1.801,-0.949c0.639,-0.129 1.259,-0.072 1.891,0.186c0.617,0.259 1.2,0.688 1.75,1.286c0.549,0.599 0.895,1.242 1.071,1.897c0.176,0.654 0.165,1.291 -0.031,1.909c-0.196,0.618 -0.578,1.17 -1.145,1.674c-0.598,0.487 -1.193,0.803 -1.832,0.932Zm1.811,-3.464c-0.021,-0.637 -0.352,-1.294 -0.961,-1.987c-0.61,-0.693 -1.24,-1.092 -1.86,-1.179c-0.635,-0.104 -1.212,0.089 -1.748,0.561c-0.536,0.489 -0.793,1.043 -0.773,1.68c0.021,0.637 0.352,1.295 0.962,1.988c0.61,0.693 1.24,1.091 1.859,1.194c0.635,0.104 1.213,-0.089 1.764,-0.561c0.52,-0.504 0.778,-1.059 0.757,-1.696Z" style="fill:#9199a1;fill-rule:nonzero;"/><path d="M110.425,69.741l-4.884,-6.103l1.117,-0.898l4.154,5.191l2.847,-2.283l0.731,0.913l-3.965,3.18Z" style="fill:#9199a1;fill-rule:nonzero;"/><path d="M116.921,64.614l-4.696,-6.255l4.181,-3.147l0.684,0.912l-3.065,2.31l1.292,1.714l2.892,-2.174l0.669,0.896l-2.892,2.173l1.367,1.824l3.066,-2.311l0.683,0.912l-4.181,3.146Z" style="fill:#9199a1;fill-rule:nonzero;"/><path d="M128.689,56.079l-1.691,-1.052l-3.109,2.186l0.403,1.947l-1.178,0.819l-1.587,-8.441l0.958,-0.668l7.382,4.375l-1.178,0.834Zm-5.061,-0.051l2.34,-1.639l-3.074,-1.897l0.734,3.536Z" style="fill:#9199a1;fill-rule:nonzero;"/><path d="M137.839,50.048l-1.302,0.849l-2.478,-1.36c-0.231,-0.128 -0.448,-0.178 -0.665,-0.166c-0.202,0.028 -0.421,0.102 -0.672,0.253l-0.91,0.591l1.712,2.636l-1.177,0.773l-4.257,-6.56l2.903,-1.878c0.738,-0.485 1.424,-0.691 2.028,-0.603c0.605,0.087 1.111,0.437 1.52,1.065c0.334,0.502 0.45,1.001 0.379,1.512c-0.07,0.511 -0.326,0.973 -0.783,1.415c0.405,-0.133 0.839,-0.064 1.316,0.193l2.386,1.28Zm-4.242,-2.661c0.098,-0.309 0.041,-0.636 -0.186,-0.997c-0.227,-0.361 -0.503,-0.552 -0.829,-0.588c-0.325,-0.021 -0.7,0.113 -1.155,0.401l-1.569,1.014l1.348,2.072l1.569,-1.015c0.455,-0.288 0.724,-0.594 0.822,-0.887Z" style="fill:#9199a1;fill-rule:nonzero;"/><path d="M141.125,38.907l1.145,-0.695l4.021,6.71l-0.925,0.56l-6.403,-2.526l2.797,4.688l-1.145,0.68l-4.021,-6.711l0.91,-0.544l6.387,2.526l-2.766,-4.688Z" style="fill:#9199a1;fill-rule:nonzero;"/><path d="M156.353,30.537l0.986,-0.511l3.614,6.936l-1.127,0.588l-2.394,-4.589l-0.025,4.41l-0.846,0.436l-3.624,-2.45l2.379,4.526l-1.127,0.587l-3.614,-6.937l1.002,-0.527l4.745,3.291l0.031,-5.76Z" style="fill:#9199a1;fill-rule:nonzero;"/><path d="M165.577,34.274c-0.651,-0.057 -1.237,-0.3 -1.758,-0.712c-0.537,-0.412 -0.978,-0.994 -1.323,-1.729c-0.345,-0.736 -0.52,-1.437 -0.509,-2.12c0.011,-0.668 0.207,-1.27 0.573,-1.807c0.365,-0.538 0.9,-0.964 1.589,-1.294c0.688,-0.331 1.358,-0.46 1.994,-0.403c0.651,0.057 1.222,0.284 1.758,0.712c0.521,0.412 0.962,0.994 1.307,1.729c0.346,0.735 0.52,1.437 0.494,2.12c-0.011,0.683 -0.207,1.285 -0.573,1.807c-0.366,0.522 -0.885,0.964 -1.573,1.279c-0.673,0.33 -1.328,0.459 -1.979,0.418Zm2.717,-2.828c0.149,-0.619 0.037,-1.351 -0.369,-2.18c-0.39,-0.829 -0.878,-1.396 -1.448,-1.67c-0.57,-0.273 -1.191,-0.252 -1.833,0.048c-0.657,0.316 -1.052,0.775 -1.218,1.393c-0.15,0.619 -0.037,1.351 0.369,2.18c0.405,0.83 0.877,1.396 1.463,1.67c0.57,0.273 1.191,0.252 1.848,-0.048c0.627,-0.316 1.038,-0.775 1.188,-1.393Z" style="fill:#9199a1;fill-rule:nonzero;"/><path d="M180.225,28.13l-1.423,0.614l-2.222,-1.775c-0.215,-0.175 -0.415,-0.256 -0.617,-0.274c-0.201,-0.019 -0.435,0.039 -0.701,0.144l-1.001,0.434l1.242,2.892l-1.298,0.553l-3.081,-7.192l3.174,-1.361c0.813,-0.344 1.513,-0.426 2.1,-0.245c0.587,0.18 1.014,0.622 1.314,1.31c0.239,0.547 0.277,1.075 0.114,1.554c-0.163,0.494 -0.496,0.908 -1.014,1.257c0.42,-0.055 0.837,0.076 1.267,0.409l2.146,1.68Zm-3.734,-3.337c0.144,-0.292 0.15,-0.618 -0.015,-1.009c-0.164,-0.391 -0.409,-0.628 -0.718,-0.71c-0.309,-0.083 -0.714,-0.012 -1.214,0.197l-1.704,0.718l0.972,2.267l1.72,-0.733c0.484,-0.194 0.815,-0.452 0.959,-0.73Z" style="fill:#9199a1;fill-rule:nonzero;"/><path d="M183.288,26.907l-2.831,-7.282l4.875,-1.908l0.418,1.047l-3.579,1.386l0.775,2l3.375,-1.311l0.403,1.046l-3.375,1.312l0.835,2.125l3.578,-1.386l0.417,1.047l-4.891,1.924Z" style="fill:#9199a1;fill-rule:nonzero;"/></g></g></g><defs><linearGradient id="_Linear2" x1="0" y1="0" x2="1" y2="0" gradientUnits="userSpaceOnUse" gradientTransform="matrix(-364.5,435,-435,-364.5,439,39.5)"><stop offset="0" style="stop-color:#c8ccd0;stop-opacity:1"/><stop offset="0.48" style="stop-color:#c8ccd0;stop-opacity:0.35"/><stop offset="1" style="stop-color:#c8ccd0;stop-opacity:1"/></linearGradient></defs></svg>