<?xml version="1.0" encoding="UTF-8" standalone="no"?><!DOCTYPE svg PUBLIC "-//W3C//DTD SVG 1.1//EN" "http://www.w3.org/Graphics/SVG/1.1/DTD/svg11.dtd"><svg width="100%" height="100%" viewBox="0 0 155 200" version="1.1" xmlns="http://www.w3.org/2000/svg" xmlns:xlink="http://www.w3.org/1999/xlink" xml:space="preserve" xmlns:serif="http://www.serif.com/" style="fill-rule:evenodd;clip-rule:evenodd;"><path id="Shape" d="M34.101,2.672C74.358,9.244 112.65,25.15 145.154,50.082C150.125,53.894 153.205,59.675 153.62,65.942L153.62,65.942C154.035,72.263 151.705,78.45 147.233,82.929L147.232,82.929L38.765,191.395C34.542,195.618 29.231,197.862 23.419,197.862C17.815,197.862 12.252,195.668 8.148,191.833C3.75,187.722 1.333,182.057 1.333,175.887L1.333,22.488C1.321,10.801 11.558,1.295 23.218,1.295C24.149,1.295 25.094,1.36 26.025,1.482L34.101,2.672Z" style="fill:#77bc1f;stroke:#77bc1f;stroke-width:1.5px;"/><path id="Text" d="M24.896,72.495L24.896,84.045L27.528,84.045L27.528,79.481L31.056,84.045L34.402,84.045L30.426,79.271C31.84,78.823 32.792,77.661 32.792,75.925C32.792,73.657 31.168,72.495 29.026,72.495L24.896,72.495ZM27.528,77.619L27.528,74.595L27.836,74.595C28.83,74.595 30.02,74.665 30.02,76.107C30.02,77.549 28.83,77.619 27.836,77.619L27.528,77.619ZM41.341,80.797C41.355,80.713 41.355,80.559 41.355,80.461C41.355,77.941 39.689,76.653 37.505,76.653C35.335,76.653 33.557,78.361 33.557,80.461C33.557,82.547 35.335,84.255 37.505,84.255C39.101,84.255 40.417,83.737 41.229,82.379L39.437,81.483C38.835,82.127 38.485,82.281 37.687,82.281C37.057,82.281 36.133,81.903 36.133,80.797L41.341,80.797ZM36.203,79.425C36.245,78.767 36.721,78.263 37.575,78.263C38.303,78.263 38.821,78.669 38.933,79.425L36.203,79.425ZM45.078,76.653C43.188,76.653 41.942,77.493 41.942,78.963C41.942,80.041 42.67,80.545 43.398,80.923C44.21,81.343 44.994,81.385 44.994,81.903C44.994,82.379 44.574,82.421 44.224,82.421C43.426,82.421 42.446,81.595 42.446,81.595L41.438,83.289C41.438,83.289 42.474,84.255 44.21,84.255C45.68,84.255 47.612,83.919 47.612,81.805C47.612,80.335 46.38,79.803 45.428,79.509C44.812,79.313 44.308,79.201 44.308,78.823C44.308,78.487 44.532,78.389 45.078,78.389C45.834,78.389 46.674,78.837 46.674,78.837L47.486,77.213C47.486,77.213 46.464,76.653 45.078,76.653ZM55.613,80.797C55.627,80.713 55.627,80.559 55.627,80.461C55.627,77.941 53.961,76.653 51.777,76.653C49.607,76.653 47.829,78.361 47.829,80.461C47.829,82.547 49.607,84.255 51.777,84.255C53.373,84.255 54.689,83.737 55.501,82.379L53.709,81.483C53.107,82.127 52.757,82.281 51.959,82.281C51.329,82.281 50.405,81.903 50.405,80.797L55.613,80.797ZM50.475,79.425C50.517,78.767 50.993,78.263 51.847,78.263C52.575,78.263 53.093,78.669 53.205,79.425L50.475,79.425ZM55.696,80.461C55.696,82.561 57.166,84.255 59.266,84.255C60.246,84.255 61.086,83.821 61.618,83.233L61.646,83.233L61.646,84.045L64.096,84.045L64.096,76.863L61.618,76.863L61.618,77.549C61.03,76.975 60.232,76.653 59.266,76.653C57.166,76.653 55.696,78.361 55.696,80.461ZM58.328,80.461C58.328,79.467 59.07,78.767 60.008,78.767C60.932,78.767 61.674,79.467 61.674,80.461C61.674,81.441 60.974,82.141 60.008,82.141C59,82.141 58.328,81.441 58.328,80.461ZM65.271,84.045L67.749,84.045L67.749,80.265C67.749,80.083 67.931,78.809 69.219,78.809C70.045,78.809 70.507,79.201 70.507,79.201L71.543,77.101C71.543,77.101 70.899,76.653 69.975,76.653C68.561,76.653 67.777,77.899 67.777,77.899L67.749,77.899L67.749,76.863L65.271,76.863L65.271,84.045ZM75.483,78.683C76.225,78.683 76.687,79.019 76.687,79.019L77.527,77.325C77.527,77.325 76.715,76.653 75.119,76.653C73.033,76.653 71.143,78.361 71.143,80.475C71.143,82.575 73.047,84.255 75.119,84.255C76.715,84.255 77.527,83.611 77.527,83.611L76.687,81.889C76.687,81.889 76.225,82.225 75.483,82.225C74.545,82.225 73.775,81.441 73.775,80.447C73.775,79.467 74.545,78.683 75.483,78.683ZM78.038,84.045L80.516,84.045L80.516,79.985C80.516,79.271 81.244,78.585 81.986,78.585C82.784,78.585 83.274,79.271 83.274,79.985L83.274,84.045L85.752,84.045L85.752,79.313C85.752,77.311 83.918,76.653 82.602,76.653C81.818,76.653 81.104,77.059 80.544,77.619L80.516,77.619L80.516,72.005L78.038,72.005L78.038,84.045ZM89.688,81.007C89.688,83.569 91.998,84.255 93.706,84.255C95.484,84.255 96.408,83.569 97.416,82.855L98.564,84.045L101.882,84.045L99.39,81.455C100.244,80.769 101.028,79.873 101.028,79.873L99.404,78.277C98.214,79.509 97.71,79.733 97.71,79.733L96.17,78.137C96.17,78.137 98.452,77.031 98.452,75.295C98.452,73.853 97.332,72.285 95.022,72.285C92.628,72.285 91.34,73.503 91.34,75.295C91.34,76.205 91.83,77.017 92.502,77.857C91.144,78.571 89.688,79.565 89.688,81.007ZM95.022,74.147C95.876,74.147 96.142,74.679 96.142,75.295C96.142,75.911 95.442,76.387 94.854,76.709C94.854,76.709 94.014,75.967 94.014,75.295C94.014,74.679 94.308,74.147 95.022,74.147ZM95.708,81.105C95.708,81.105 94.924,81.763 93.972,81.763C93.356,81.763 92.67,81.469 92.67,80.797C92.67,79.733 93.874,79.299 93.874,79.299L95.708,81.105ZM35.334,90.285C33.472,90.285 31.568,91.657 31.568,93.813C31.568,95.017 32.38,96.095 33.766,96.781C35.138,97.467 36.37,97.845 36.37,98.685C36.37,99.763 35.278,99.819 34.704,99.819C33.416,99.819 31.876,98.517 31.876,98.517L30.56,100.729C30.56,100.729 32.198,102.255 34.9,102.255C37.154,102.255 39.254,101.289 39.254,98.531C39.254,97.019 37.84,95.927 36.552,95.381C35.236,94.821 34.144,94.359 34.144,93.715C34.144,93.085 34.62,92.679 35.516,92.679C36.706,92.679 37.854,93.477 37.854,93.477L38.918,91.377C38.918,91.377 37.434,90.285 35.334,90.285ZM45.349,94.863L43.641,98.545L41.639,94.863L38.783,94.863L42.185,100.925L39.707,105.685L42.563,105.685L48.205,94.863L45.349,94.863ZM48.262,102.045L50.74,102.045L50.74,97.985C50.74,97.271 51.468,96.585 52.21,96.585C53.008,96.585 53.498,97.271 53.498,97.985L53.498,102.045L55.976,102.045L55.976,97.313C55.976,95.311 54.142,94.653 52.826,94.653C52.042,94.653 51.328,95.059 50.768,95.619L50.74,95.619L50.74,94.863L48.262,94.863L48.262,102.045ZM57.356,94.863L56.32,94.863L56.32,96.753L57.356,96.753L57.356,99.511C57.356,100.785 57.832,102.255 59.806,102.255C60.828,102.255 61.626,101.807 61.626,101.807L61.01,99.805C61.01,99.805 60.716,100.029 60.394,100.029C60.002,100.029 59.834,99.707 59.834,99.035L59.834,96.753L61.346,96.753L61.346,94.863L59.834,94.863L59.834,92.189L57.356,92.189L57.356,94.863ZM61.959,102.045L64.437,102.045L64.437,97.985C64.437,97.271 65.165,96.585 65.907,96.585C66.705,96.585 67.195,97.271 67.195,97.985L67.195,102.045L69.673,102.045L69.673,97.313C69.673,95.311 67.839,94.653 66.523,94.653C65.739,94.653 65.025,95.059 64.465,95.619L64.437,95.619L64.437,90.005L61.959,90.005L61.959,102.045ZM77.981,98.797C77.995,98.713 77.995,98.559 77.995,98.461C77.995,95.941 76.329,94.653 74.145,94.653C71.975,94.653 70.197,96.361 70.197,98.461C70.197,100.547 71.975,102.255 74.145,102.255C75.741,102.255 77.057,101.737 77.869,100.379L76.077,99.483C75.475,100.127 75.125,100.281 74.327,100.281C73.697,100.281 72.773,99.903 72.773,98.797L77.981,98.797ZM72.843,97.425C72.885,96.767 73.361,96.263 74.215,96.263C74.943,96.263 75.461,96.669 75.573,97.425L72.843,97.425ZM81.718,94.653C79.828,94.653 78.582,95.493 78.582,96.963C78.582,98.041 79.31,98.545 80.038,98.923C80.85,99.343 81.634,99.385 81.634,99.903C81.634,100.379 81.214,100.421 80.864,100.421C80.066,100.421 79.086,99.595 79.086,99.595L78.078,101.289C78.078,101.289 79.114,102.255 80.85,102.255C82.32,102.255 84.252,101.919 84.252,99.805C84.252,98.335 83.02,97.803 82.068,97.509C81.452,97.313 80.948,97.201 80.948,96.823C80.948,96.487 81.172,96.389 81.718,96.389C82.474,96.389 83.314,96.837 83.314,96.837L84.126,95.213C84.126,95.213 83.104,94.653 81.718,94.653ZM86.26,90.425C85.448,90.425 84.79,91.083 84.79,91.895C84.79,92.707 85.448,93.365 86.26,93.365C87.072,93.365 87.73,92.707 87.73,91.895C87.73,91.083 87.072,90.425 86.26,90.425ZM84.986,94.863L87.464,94.863L87.464,102.045L84.986,102.045L84.986,94.863ZM91.833,94.653C89.943,94.653 88.697,95.493 88.697,96.963C88.697,98.041 89.425,98.545 90.153,98.923C90.965,99.343 91.749,99.385 91.749,99.903C91.749,100.379 91.329,100.421 90.979,100.421C90.181,100.421 89.201,99.595 89.201,99.595L88.193,101.289C88.193,101.289 89.229,102.255 90.965,102.255C92.435,102.255 94.367,101.919 94.367,99.805C94.367,98.335 93.135,97.803 92.183,97.509C91.567,97.313 91.063,97.201 91.063,96.823C91.063,96.487 91.287,96.389 91.833,96.389C92.589,96.389 93.429,96.837 93.429,96.837L94.241,95.213C94.241,95.213 93.219,94.653 91.833,94.653Z" style="fill:#fff;fill-rule:nonzero;"/></svg>