<svg class="slice slice-4" xmlns="http://www.w3.org/2000/svg" fill-rule="evenodd" clip-rule="evenodd" viewBox="0 0 155 200">
  <path class="slice-inside" fill="#fff" stroke="#4dd0e1" stroke-width="1.5" d="M34.124 196.389c40.257-6.573 78.548-22.478 111.052-47.41a21.79 21.79 0 008.467-15.86h0a22 22 0 00-6.387-16.987h-.001L38.787 7.666c-4.223-4.223-9.534-6.467-15.346-6.467-5.604 0-11.167 2.193-15.271 6.029-4.398 4.11-6.815 9.776-6.815 15.946v153.399c-.012 11.687 10.225 21.193 21.885 21.193.931 0 1.876-.065 2.807-.187l8.077-1.19z"/>
  <path class="slice-text" fill="#4dd0e1" fill-rule="nonzero" d="M29.816 109.354v11.55h4.382c2.394 0 3.78-1.316 3.78-3.22 0-1.862-1.022-2.66-2.464-2.912.98-.504 1.442-1.414 1.442-2.478 0-2.198-1.568-2.94-3.556-2.94h-3.584zm2.632 4.522v-2.492h.21c1.148 0 1.75.35 1.75 1.176 0 .966-.616 1.316-1.75 1.316h-.21zm0 4.998v-2.73h.826c1.246 0 1.932.378 1.932 1.442 0 .91-.686 1.288-1.932 1.288h-.826zm6.192 2.03h2.478v-3.78c0-.182.182-1.456 1.47-1.456.826 0 1.288.392 1.288.392l1.036-2.1s-.644-.448-1.568-.448c-1.414 0-2.198 1.246-2.198 1.246h-.028v-1.036H38.64v7.182zm5.845-3.584c0 2.1 1.47 3.794 3.57 3.794.98 0 1.82-.434 2.352-1.022h.028v.812h2.45v-7.182h-2.478v.686c-.588-.574-1.386-.896-2.352-.896-2.1 0-3.57 1.708-3.57 3.808zm2.632 0c0-.994.742-1.694 1.68-1.694.924 0 1.666.7 1.666 1.694 0 .98-.7 1.68-1.666 1.68-1.008 0-1.68-.7-1.68-1.68zm6.943 3.584h2.478v-4.06c0-.714.728-1.4 1.47-1.4.798 0 1.288.686 1.288 1.4v4.06h2.478v-4.732c0-2.002-1.834-2.66-3.15-2.66-.784 0-1.498.406-2.058.966h-.028v-.756H54.06v7.182zm8.238-3.584c0 2.1 1.47 3.794 3.57 3.794.98 0 1.82-.434 2.352-1.022h.028v.812h2.45v-12.04H68.22v5.544c-.588-.574-1.386-.896-2.352-.896-2.1 0-3.57 1.708-3.57 3.808zm2.632 0c0-.994.742-1.694 1.68-1.694.924 0 1.666.7 1.666 1.694 0 .98-.7 1.68-1.666 1.68-1.008 0-1.68-.7-1.68-1.68zm8.217-8.036a1.47 1.47 0 100 2.94 1.47 1.47 0 000-2.94zm-1.274 4.438h2.478v7.182h-2.478v-7.182zm3.724 7.182h2.478v-4.06c0-.714.728-1.4 1.47-1.4.798 0 1.288.686 1.288 1.4v4.06h2.478v-4.732c0-2.002-1.834-2.66-3.15-2.66-.784 0-1.498.406-2.058.966h-.028v-.756h-2.478v7.182zm8.434 1.764c.756 1.75 2.478 2.086 3.976 2.086 2.45 0 4.228-1.246 4.228-3.654v-7.378h-2.478v.644h-.042c-.588-.546-1.358-.854-2.31-.854-2.1 0-3.57 1.708-3.57 3.808 0 2.1 1.47 3.794 3.57 3.794.98 0 1.82-.14 2.352-.728v.532c0 1.274-1.064 1.68-1.75 1.68-1.078 0-1.68-.49-1.946-.924l-2.03.994zm2.436-5.348c0-.994.742-1.694 1.68-1.694.924 0 1.666.7 1.666 1.694 0 .98-.7 1.68-1.666 1.68-1.008 0-1.68-.7-1.68-1.68z"/>
</svg>
