<svg class="slice slice-5" xmlns="http://www.w3.org/2000/svg" fill-rule="evenodd" clip-rule="evenodd" viewBox="0 0 155 200">
  <path class="slice-inside" fill="#fff" stroke="#ef7b7b" stroke-width="1.5" d="M121.08 196.814c-40.258-6.573-78.549-22.478-111.053-47.41a21.788 21.788 0 01-8.466-15.86h0a21.997 21.997 0 016.387-16.987h0L116.416 8.091c4.223-4.223 9.534-6.467 15.346-6.467 5.604 0 11.167 2.194 15.271 6.029 4.398 4.111 6.815 9.776 6.815 15.946v153.399c.012 11.687-10.225 21.193-21.885 21.193-.931 0-1.876-.065-2.807-.187l-8.076-1.19z"/>
  <path class="slice-text" fill="#ef7b7b" fill-rule="nonzero" d="M86.121 95.45h-2.632v6.678c0 1.932-.588 2.492-1.876 2.492-1.288 0-1.876-.56-1.876-2.492V95.45h-2.632v7.448c0 2.856 1.568 4.312 4.508 4.312s4.508-1.456 4.508-4.312V95.45zm4.164 4.158c-1.89 0-3.136.84-3.136 2.31 0 1.078.728 1.582 1.456 1.96.812.42 1.596.462 1.596.98 0 .476-.42.518-.77.518-.798 0-1.778-.826-1.778-.826l-1.008 1.694s1.036.966 2.772.966c1.47 0 3.402-.336 3.402-2.45 0-1.47-1.232-2.002-2.184-2.296-.616-.196-1.12-.308-1.12-.686 0-.336.224-.434.77-.434.756 0 1.596.448 1.596.448l.812-1.624s-1.022-.56-2.408-.56zm10.535 4.144c.014-.084.014-.238.014-.336 0-2.52-1.666-3.808-3.85-3.808-2.17 0-3.948 1.708-3.948 3.808 0 2.086 1.778 3.794 3.948 3.794 1.596 0 2.912-.518 3.724-1.876l-1.792-.896c-.602.644-.952.798-1.75.798-.63 0-1.554-.378-1.554-1.484h5.208zm-5.138-1.372c.042-.658.518-1.162 1.372-1.162.728 0 1.246.406 1.358 1.162h-2.73zm5.78 4.62h2.478v-3.78c0-.182.182-1.456 1.47-1.456.826 0 1.288.392 1.288.392l1.036-2.1s-.644-.448-1.568-.448c-1.414 0-2.198 1.246-2.198 1.246h-.028v-1.036h-2.478V107zm-33.327 8.76h2.744V125h2.631v-9.24h2.744v-2.31h-8.119v2.31zm14.74 5.992c.014-.084.014-.238.014-.336 0-2.52-1.666-3.808-3.85-3.808-2.17 0-3.948 1.708-3.948 3.808 0 2.086 1.778 3.794 3.948 3.794 1.596 0 2.912-.518 3.724-1.876l-1.792-.896c-.602.644-.952.798-1.75.798-.63 0-1.554-.378-1.554-1.484h5.208zm-5.138-1.372c.042-.658.518-1.162 1.372-1.162.728 0 1.246.406 1.358 1.162h-2.73zm8.874-2.772c-1.89 0-3.136.84-3.136 2.31 0 1.078.728 1.582 1.456 1.96.812.42 1.596.462 1.596.98 0 .476-.42.518-.77.518-.798 0-1.778-.826-1.778-.826l-1.008 1.694s1.036.966 2.772.966c1.47 0 3.402-.336 3.402-2.45 0-1.47-1.232-2.002-2.184-2.296-.616-.196-1.12-.308-1.12-.686 0-.336.224-.434.77-.434.756 0 1.596.448 1.596.448l.812-1.624s-1.022-.56-2.408-.56zm3.566.21h-1.036v1.89h1.036v2.758c0 1.274.476 2.744 2.45 2.744 1.022 0 1.82-.448 1.82-.448l-.616-2.002s-.294.224-.616.224c-.392 0-.56-.322-.56-.994v-2.282h1.512v-1.89h-1.512v-2.674h-2.478v2.674zm5.877-4.438a1.47 1.47 0 100 2.94 1.47 1.47 0 000-2.94zm-1.274 4.438h2.478V125H94.78v-7.182zM98.505 125h2.478v-4.06c0-.714.728-1.4 1.47-1.4.798 0 1.288.686 1.288 1.4V125h2.478v-4.732c0-2.002-1.834-2.66-3.15-2.66-.784 0-1.498.406-2.058.966h-.028v-.756h-2.478V125zm8.434 1.764c.756 1.75 2.478 2.086 3.976 2.086 2.45 0 4.228-1.246 4.228-3.654v-7.378h-2.478v.644h-.042c-.588-.546-1.358-.854-2.31-.854-2.1 0-3.57 1.708-3.57 3.808 0 2.1 1.47 3.794 3.57 3.794.98 0 1.82-.14 2.352-.728v.532c0 1.274-1.064 1.68-1.75 1.68-1.078 0-1.68-.49-1.946-.924l-2.03.994zm2.436-5.348c0-.994.742-1.694 1.68-1.694.924 0 1.666.7 1.666 1.694 0 .98-.7 1.68-1.666 1.68-1.008 0-1.68-.7-1.68-1.68z"/>
</svg>
