<svg class="slice slice-1" xmlns="http://www.w3.org/2000/svg" fill-rule="evenodd" clip-rule="evenodd" viewBox="0 0 155 200">
  <path class="slice-inside" fill="#fff" stroke="#77bc1f" stroke-width="1.5" d="M34.101 2.672c40.257 6.572 78.549 22.478 111.053 47.41a21.788 21.788 0 018.466 15.86h0a22 22 0 01-6.387 16.987h-.001L38.765 191.395c-4.223 4.223-9.534 6.467-15.346 6.467-5.604 0-11.167-2.194-15.271-6.029-4.398-4.111-6.815-9.776-6.815-15.946V22.488C1.321 10.801 11.558 1.295 23.218 1.295c.931 0 1.876.065 2.807.187l8.076 1.19z"/>
  <path class="slice-text" fill="#77bc1f" fill-rule="nonzero" d="M24.896 72.495v11.55h2.632v-4.564l3.528 4.564h3.346l-3.976-4.774c1.414-.448 2.366-1.61 2.366-3.346 0-2.268-1.624-3.43-3.766-3.43h-4.13zm2.632 5.124v-3.024h.308c.994 0 2.184.07 2.184 1.512s-1.19 1.512-2.184 1.512h-.308zm13.813 3.178c.014-.084.014-.238.014-.336 0-2.52-1.666-3.808-3.85-3.808-2.17 0-3.948 1.708-3.948 3.808 0 2.086 1.778 3.794 3.948 3.794 1.596 0 2.912-.518 3.724-1.876l-1.792-.896c-.602.644-.952.798-1.75.798-.63 0-1.554-.378-1.554-1.484h5.208zm-5.138-1.372c.042-.658.518-1.162 1.372-1.162.728 0 1.246.406 1.358 1.162h-2.73zm8.875-2.772c-1.89 0-3.136.84-3.136 2.31 0 1.078.728 1.582 1.456 1.96.812.42 1.596.462 1.596.98 0 .476-.42.518-.77.518-.798 0-1.778-.826-1.778-.826l-1.008 1.694s1.036.966 2.772.966c1.47 0 3.402-.336 3.402-2.45 0-1.47-1.232-2.002-2.184-2.296-.616-.196-1.12-.308-1.12-.686 0-.336.224-.434.77-.434.756 0 1.596.448 1.596.448l.812-1.624s-1.022-.56-2.408-.56zm10.535 4.144c.014-.084.014-.238.014-.336 0-2.52-1.666-3.808-3.85-3.808-2.17 0-3.948 1.708-3.948 3.808 0 2.086 1.778 3.794 3.948 3.794 1.596 0 2.912-.518 3.724-1.876l-1.792-.896c-.602.644-.952.798-1.75.798-.63 0-1.554-.378-1.554-1.484h5.208zm-5.138-1.372c.042-.658.518-1.162 1.372-1.162.728 0 1.246.406 1.358 1.162h-2.73zm5.221 1.036c0 2.1 1.47 3.794 3.57 3.794.98 0 1.82-.434 2.352-1.022h.028v.812h2.45v-7.182h-2.478v.686c-.588-.574-1.386-.896-2.352-.896-2.1 0-3.57 1.708-3.57 3.808zm2.632 0c0-.994.742-1.694 1.68-1.694.924 0 1.666.7 1.666 1.694 0 .98-.7 1.68-1.666 1.68-1.008 0-1.68-.7-1.68-1.68zm6.943 3.584h2.478v-3.78c0-.182.182-1.456 1.47-1.456.826 0 1.288.392 1.288.392l1.036-2.1s-.644-.448-1.568-.448c-1.414 0-2.198 1.246-2.198 1.246h-.028v-1.036h-2.478v7.182zm10.212-5.362c.742 0 1.204.336 1.204.336l.84-1.694s-.812-.672-2.408-.672c-2.086 0-3.976 1.708-3.976 3.822 0 2.1 1.904 3.78 3.976 3.78 1.596 0 2.408-.644 2.408-.644l-.84-1.722s-.462.336-1.204.336c-.938 0-1.708-.784-1.708-1.778 0-.98.77-1.764 1.708-1.764zm2.555 5.362h2.478v-4.06c0-.714.728-1.4 1.47-1.4.798 0 1.288.686 1.288 1.4v4.06h2.478v-4.732c0-2.002-1.834-2.66-3.15-2.66-.784 0-1.498.406-2.058.966h-.028v-5.614h-2.478v12.04zm11.65-3.038c0 2.562 2.31 3.248 4.018 3.248 1.778 0 2.702-.686 3.71-1.4l1.148 1.19h3.318l-2.492-2.59c.854-.686 1.638-1.582 1.638-1.582l-1.624-1.596c-1.19 1.232-1.694 1.456-1.694 1.456l-1.54-1.596s2.282-1.106 2.282-2.842c0-1.442-1.12-3.01-3.43-3.01-2.394 0-3.682 1.218-3.682 3.01 0 .91.49 1.722 1.162 2.562-1.358.714-2.814 1.708-2.814 3.15zm5.334-6.86c.854 0 1.12.532 1.12 1.148 0 .616-.7 1.092-1.288 1.414 0 0-.84-.742-.84-1.414 0-.616.294-1.148 1.008-1.148zm.686 6.958s-.784.658-1.736.658c-.616 0-1.302-.294-1.302-.966 0-1.064 1.204-1.498 1.204-1.498l1.834 1.806zm-60.374 9.18c-1.862 0-3.766 1.372-3.766 3.528 0 1.204.812 2.282 2.198 2.968 1.372.686 2.604 1.064 2.604 1.904 0 1.078-1.092 1.134-1.666 1.134-1.288 0-2.828-1.302-2.828-1.302l-1.316 2.212s1.638 1.526 4.34 1.526c2.254 0 4.354-.966 4.354-3.724 0-1.512-1.414-2.604-2.702-3.15-1.316-.56-2.408-1.022-2.408-1.666 0-.63.476-1.036 1.372-1.036 1.19 0 2.338.798 2.338.798l1.064-2.1s-1.484-1.092-3.584-1.092zm10.015 4.578l-1.708 3.682-2.002-3.682h-2.856l3.402 6.062-2.478 4.76h2.856l5.642-10.822h-2.856zm2.913 7.182h2.478v-4.06c0-.714.728-1.4 1.47-1.4.798 0 1.288.686 1.288 1.4v4.06h2.478v-4.732c0-2.002-1.834-2.66-3.15-2.66-.784 0-1.498.406-2.058.966h-.028v-.756h-2.478v7.182zm9.094-7.182H56.32v1.89h1.036v2.758c0 1.274.476 2.744 2.45 2.744 1.022 0 1.82-.448 1.82-.448l-.616-2.002s-.294.224-.616.224c-.392 0-.56-.322-.56-.994v-2.282h1.512v-1.89h-1.512v-2.674h-2.478v2.674zm4.603 7.182h2.478v-4.06c0-.714.728-1.4 1.47-1.4.798 0 1.288.686 1.288 1.4v4.06h2.478v-4.732c0-2.002-1.834-2.66-3.15-2.66-.784 0-1.498.406-2.058.966h-.028v-5.614h-2.478v12.04zm16.022-3.248c.014-.084.014-.238.014-.336 0-2.52-1.666-3.808-3.85-3.808-2.17 0-3.948 1.708-3.948 3.808 0 2.086 1.778 3.794 3.948 3.794 1.596 0 2.912-.518 3.724-1.876l-1.792-.896c-.602.644-.952.798-1.75.798-.63 0-1.554-.378-1.554-1.484h5.208zm-5.138-1.372c.042-.658.518-1.162 1.372-1.162.728 0 1.246.406 1.358 1.162h-2.73zm8.875-2.772c-1.89 0-3.136.84-3.136 2.31 0 1.078.728 1.582 1.456 1.96.812.42 1.596.462 1.596.98 0 .476-.42.518-.77.518-.798 0-1.778-.826-1.778-.826l-1.008 1.694s1.036.966 2.772.966c1.47 0 3.402-.336 3.402-2.45 0-1.47-1.232-2.002-2.184-2.296-.616-.196-1.12-.308-1.12-.686 0-.336.224-.434.77-.434.756 0 1.596.448 1.596.448l.812-1.624s-1.022-.56-2.408-.56zm4.542-4.228a1.47 1.47 0 100 2.94 1.47 1.47 0 000-2.94zm-1.274 4.438h2.478v7.182h-2.478v-7.182zm6.847-.21c-1.89 0-3.136.84-3.136 2.31 0 1.078.728 1.582 1.456 1.96.812.42 1.596.462 1.596.98 0 .476-.42.518-.77.518-.798 0-1.778-.826-1.778-.826l-1.008 1.694s1.036.966 2.772.966c1.47 0 3.402-.336 3.402-2.45 0-1.47-1.232-2.002-2.184-2.296-.616-.196-1.12-.308-1.12-.686 0-.336.224-.434.77-.434.756 0 1.596.448 1.596.448l.812-1.624s-1.022-.56-2.408-.56z"/>
</svg>
