<svg class="slice slice-8" xmlns="http://www.w3.org/2000/svg" fill-rule="evenodd" clip-rule="evenodd" viewBox="0 0 155 199">
  <path class="slice-inside" fill="#fff" stroke="#ce93d8" stroke-width="1.5" d="M121.093 2.495C80.836 9.068 42.544 24.973 10.04 49.905a21.788 21.788 0 00-8.466 15.86h0a22 22 0 006.387 16.987h.001l108.467 108.466c4.223 4.223 9.534 6.467 15.346 6.467 5.604 0 11.167-2.193 15.271-6.029 4.398-4.11 6.815-9.776 6.815-15.946V22.311c.012-11.687-10.225-21.193-21.885-21.193-.931 0-1.876.065-2.807.187l-8.076 1.19z"/>
  <path class="slice-text" fill="#ce93d8" fill-rule="nonzero" d="M57.54 83.688h2.632l-1.036-11.55h-2.8l-2.562 6.664-2.562-6.664h-2.8l-1.036 11.55h2.632l.546-6.846h.07l2.366 6.776h1.568l2.366-6.776h.07l.546 6.846zm2.682-3.584c0 2.212 1.736 3.794 4.326 3.794 2.478 0 4.284-1.582 4.284-3.794 0-2.24-1.904-3.808-4.284-3.808-2.422 0-4.326 1.568-4.326 3.808zm2.632 0c0-.994.742-1.694 1.68-1.694.924 0 1.666.7 1.666 1.694 0 .98-.7 1.68-1.666 1.68-1.008 0-1.68-.7-1.68-1.68zm6.615 3.584h2.478v-4.06c0-.714.728-1.4 1.47-1.4.798 0 1.288.686 1.288 1.4v4.06h2.478v-4.732c0-2.002-1.834-2.66-3.15-2.66-.784 0-1.498.406-2.058.966h-.028v-.756h-2.478v7.182zm10.029-11.62a1.47 1.47 0 100 2.94 1.47 1.47 0 000-2.94zm-1.274 4.438h2.478v7.182h-2.478v-7.182zm4.145 0h-1.036v1.89h1.036v2.758c0 1.274.476 2.744 2.45 2.744a4.1 4.1 0 001.82-.448l-.616-2.002s-.294.224-.616.224c-.392 0-.56-.322-.56-.994v-2.282h1.512v-1.89h-1.512v-2.674h-2.478v2.674zm4.086 3.598c0 2.212 1.736 3.794 4.326 3.794 2.478 0 4.284-1.582 4.284-3.794 0-2.24-1.904-3.808-4.284-3.808-2.422 0-4.326 1.568-4.326 3.808zm2.632 0c0-.994.742-1.694 1.68-1.694.924 0 1.666.7 1.666 1.694 0 .98-.7 1.68-1.666 1.68-1.008 0-1.68-.7-1.68-1.68zm6.614 3.584h2.478v-3.78c0-.182.182-1.456 1.47-1.456.826 0 1.288.392 1.288.392l1.036-2.1s-.644-.448-1.568-.448c-1.414 0-2.198 1.246-2.198 1.246h-.028v-1.036h-2.478v7.182zm7.747-11.62a1.47 1.47 0 100 2.94 1.47 1.47 0 000-2.94zm-1.274 4.438h2.478v7.182h-2.478v-7.182zm3.725 7.182h2.478v-4.06c0-.714.728-1.4 1.47-1.4.798 0 1.288.686 1.288 1.4v4.06h2.478v-4.732c0-2.002-1.834-2.66-3.15-2.66-.784 0-1.498.406-2.058.966h-.028v-.756h-2.478v7.182zm8.434 1.764c.756 1.75 2.478 2.086 3.976 2.086 2.45 0 4.228-1.246 4.228-3.654v-7.378h-2.478v.644h-.042c-.588-.546-1.358-.854-2.31-.854-2.1 0-3.57 1.708-3.57 3.808 0 2.1 1.47 3.794 3.57 3.794.98 0 1.82-.14 2.352-.728v.532c0 1.274-1.064 1.68-1.75 1.68-1.078 0-1.68-.49-1.946-.924l-2.03.994zm2.436-5.348c0-.994.742-1.694 1.68-1.694.924 0 1.666.7 1.666 1.694 0 .98-.7 1.68-1.666 1.68-1.008 0-1.68-.7-1.68-1.68zm9.836.546c0 2.562 2.31 3.248 4.018 3.248 1.778 0 2.702-.686 3.71-1.4l1.148 1.19h3.318l-2.492-2.59c.854-.686 1.638-1.582 1.638-1.582l-1.624-1.596c-1.19 1.232-1.694 1.456-1.694 1.456l-1.54-1.596s2.282-1.106 2.282-2.842c0-1.442-1.12-3.01-3.43-3.01-2.394 0-3.682 1.218-3.682 3.01 0 .91.49 1.722 1.162 2.562-1.358.714-2.814 1.708-2.814 3.15zm5.334-6.86c.854 0 1.12.532 1.12 1.148 0 .616-.7 1.092-1.288 1.414 0 0-.84-.742-.84-1.414 0-.616.294-1.148 1.008-1.148zm.686 6.958s-.784.658-1.736.658c-.616 0-1.302-.294-1.302-.966 0-1.064 1.204-1.498 1.204-1.498l1.834 1.806zM48.048 95.906c0 3.374 2.408 5.992 5.824 5.992 3.318 0 5.81-2.618 5.81-5.992s-2.604-5.978-5.81-5.978c-3.178 0-5.824 2.604-5.824 5.978zm2.842 0c0-1.722.952-3.444 2.982-3.444 2.044 0 2.968 1.722 2.968 3.444s-.868 3.444-2.968 3.444c-2.156 0-2.982-1.722-2.982-3.444zm17.854 2.184c0-2.1-1.47-3.794-3.57-3.794-.98 0-1.82.434-2.352 1.022h-.028v-.812h-2.45v10.822h2.478v-4.326c.588.574 1.386.896 2.352.896 2.1 0 3.57-1.708 3.57-3.808zm-2.632 0c0 .994-.742 1.694-1.68 1.694-.924 0-1.666-.7-1.666-1.694 0-.98.7-1.68 1.666-1.68 1.008 0 1.68.7 1.68 1.68zm3.626-3.584h-1.036v1.89h1.036v2.758c0 1.274.476 2.744 2.45 2.744a4.1 4.1 0 001.82-.448l-.616-2.002s-.294.224-.616.224c-.392 0-.56-.322-.56-.994v-2.282h1.512v-1.89h-1.512v-2.674h-2.478v2.674zm5.878-4.438a1.47 1.47 0 100 2.94 1.47 1.47 0 000-2.94zm-1.274 4.438h2.478v7.182h-2.478v-7.182zm3.724 7.182h2.478v-4.2c0-.574.322-1.204 1.148-1.204.882 0 1.26.63 1.26 1.344v4.06h2.478v-4.284c.028-.546.364-1.12 1.148-1.12.882 0 1.26.63 1.26 1.344v4.06h2.478v-4.732c0-2.002-1.484-2.66-2.8-2.66-.784 0-1.624.406-2.38 1.316-.504-.966-1.554-1.316-2.506-1.316-.784 0-1.498.406-2.058.966h-.028v-.756h-2.478v7.182zm14.569-11.62a1.47 1.47 0 100 2.94 1.47 1.47 0 000-2.94zm-1.274 4.438h2.478v7.182h-2.478v-7.182zm10.669 0h-7.126v1.89h2.968l-3.556 5.292h7.434v-1.89h-3.276l3.556-5.292zm-.114 3.598c0 2.1 1.47 3.794 3.57 3.794.98 0 1.82-.434 2.352-1.022h.028v.812h2.45v-7.182h-2.478v.686c-.588-.574-1.386-.896-2.352-.896-2.1 0-3.57 1.708-3.57 3.808zm2.632 0c0-.994.742-1.694 1.68-1.694.924 0 1.666.7 1.666 1.694 0 .98-.7 1.68-1.666 1.68-1.008 0-1.68-.7-1.68-1.68zm7.267-3.598h-1.036v1.89h1.036v2.758c0 1.274.476 2.744 2.45 2.744 1.022 0 1.82-.448 1.82-.448l-.616-2.002s-.294.224-.616.224c-.392 0-.56-.322-.56-.994v-2.282h1.512v-1.89h-1.512v-2.674h-2.478v2.674zm5.877-4.438a1.47 1.47 0 100 2.94 1.47 1.47 0 000-2.94zm-1.274 4.438h2.478v7.182h-2.478v-7.182zm3.207 3.598c0 2.212 1.736 3.794 4.326 3.794 2.478 0 4.284-1.582 4.284-3.794 0-2.24-1.904-3.808-4.284-3.808-2.422 0-4.326 1.568-4.326 3.808zm2.632 0c0-.994.742-1.694 1.68-1.694.924 0 1.666.7 1.666 1.694 0 .98-.7 1.68-1.666 1.68-1.008 0-1.68-.7-1.68-1.68zm6.614 3.584h2.478v-4.06c0-.714.728-1.4 1.47-1.4.798 0 1.288.686 1.288 1.4v4.06h2.478v-4.732c0-2.002-1.834-2.66-3.15-2.66-.784 0-1.498.406-2.058.966h-.028v-.756h-2.478v7.182z"/>
</svg>
