<svg xmlns="http://www.w3.org/2000/svg" fill-rule="evenodd" clip-rule="evenodd" viewBox="0 0 202 155">
  <defs/>
  <path fill="#FBC02D" fill-rule="nonzero" stroke="#FBC02D" stroke-width="1.5" d="M198.666 140.319v-.001c3.453-8.344 1.63-17.514-4.754-23.898L85.444 7.954A21.83 21.83 0 0069.91 1.519c-6.848 0-13.16 3.102-17.306 8.507C26.002 44.69 8.935 85.854 3.253 129.056a21.934 21.934 0 0021.742 24.802h153.408c9.035 0 16.803-5.195 20.263-13.539z"/>
  <path fill="#fff" fill-rule="nonzero" d="M58.744 84.45V96h2.632v-4.284h1.582c2.254 0 3.948-1.33 3.948-3.71 0-2.394-1.694-3.556-3.948-3.556h-4.214zm2.632 5.166V86.55h.742c1.036 0 2.016.35 2.016 1.54 0 1.176-.98 1.526-2.016 1.526h-.742zM67.213 96h2.478v-3.78c0-.182.182-1.456 1.47-1.456.826 0 1.288.392 1.288.392l1.036-2.1s-.644-.448-1.568-.448c-1.414 0-2.198 1.246-2.198 1.246h-.028v-1.036h-2.478V96zm5.873-3.584c0 2.212 1.736 3.794 4.326 3.794 2.478 0 4.284-1.582 4.284-3.794 0-2.24-1.904-3.808-4.284-3.808-2.422 0-4.326 1.568-4.326 3.808zm2.632 0c0-.994.742-1.694 1.68-1.694.924 0 1.666.7 1.666 1.694 0 .98-.7 1.68-1.666 1.68-1.008 0-1.68-.7-1.68-1.68zm6.124 0c0 2.1 1.47 3.794 3.57 3.794.979 0 1.82-.434 2.351-1.022h.029V96h2.45V83.96h-2.479v5.544c-.587-.574-1.385-.896-2.351-.896-2.1 0-3.57 1.708-3.57 3.808zm2.632 0c0-.994.742-1.694 1.679-1.694.925 0 1.667.7 1.667 1.694 0 .98-.7 1.68-1.667 1.68-1.007 0-1.679-.7-1.679-1.68zm9.28-3.598h-2.478v4.018c0 2.408 1.204 3.374 3.892 3.374 2.688 0 3.892-.966 3.892-3.374v-4.018h-2.478v3.416c0 1.414-.378 1.96-1.414 1.96s-1.414-.546-1.414-1.96v-3.416zm10.172 1.82c.742 0 1.204.336 1.204.336l.84-1.694s-.812-.672-2.408-.672c-2.086 0-3.976 1.708-3.976 3.822 0 2.1 1.904 3.78 3.976 3.78 1.596 0 2.408-.644 2.408-.644l-.84-1.722s-.462.336-1.204.336c-.938 0-1.708-.784-1.708-1.778 0-.98.77-1.764 1.708-1.764zm2.906-1.82h-1.036v1.89h1.036v2.758c0 1.274.476 2.744 2.45 2.744 1.022 0 1.82-.448 1.82-.448l-.616-2.002s-.294.224-.616.224c-.392 0-.56-.322-.56-.994v-2.282h1.512v-1.89h-1.512v-2.674h-2.478v2.674zM39.975 102.45V114h3.346c3.178 0 5.824-2.408 5.824-5.782 0-3.36-2.66-5.768-5.824-5.768h-3.346zm2.632 9.198v-6.846h.406c1.96 0 3.29 1.498 3.29 3.43-.014 1.932-1.344 3.416-3.29 3.416h-.406zm14.47-.896c.014-.084.014-.238.014-.336 0-2.52-1.666-3.808-3.85-3.808-2.17 0-3.948 1.708-3.948 3.808 0 2.086 1.778 3.794 3.948 3.794 1.596 0 2.912-.518 3.724-1.876l-1.792-.896c-.602.644-.952.798-1.75.798-.63 0-1.554-.378-1.554-1.484h5.208zm-5.138-1.372c.042-.658.518-1.162 1.372-1.162.728 0 1.246.406 1.358 1.162h-2.73zm7.559-2.562h-2.94l3.85 7.182h1.68l3.85-7.182h-2.94l-1.75 3.906-1.75-3.906zm13.723 3.934c.014-.084.014-.238.014-.336 0-2.52-1.666-3.808-3.85-3.808-2.17 0-3.948 1.708-3.948 3.808 0 2.086 1.778 3.794 3.948 3.794 1.596 0 2.912-.518 3.724-1.876l-1.792-.896c-.602.644-.952.798-1.75.798-.63 0-1.554-.378-1.554-1.484h5.208zm-5.138-1.372c.042-.658.518-1.162 1.372-1.162.728 0 1.246.406 1.358 1.162h-2.73zm5.78 4.62h2.478v-12.04h-2.478V114zm3.139-3.584c0 2.212 1.736 3.794 4.326 3.794 2.478 0 4.284-1.582 4.284-3.794 0-2.24-1.904-3.808-4.284-3.808-2.422 0-4.326 1.568-4.326 3.808zm2.632 0c0-.994.742-1.694 1.68-1.694.924 0 1.666.7 1.666 1.694 0 .98-.7 1.68-1.666 1.68-1.008 0-1.68-.7-1.68-1.68zm15.014-.014c0-2.1-1.47-3.794-3.57-3.794-.98 0-1.82.434-2.352 1.022h-.028v-.812h-2.45v10.822h2.478v-4.326c.588.574 1.386.896 2.352.896 2.1 0 3.57-1.708 3.57-3.808zm-2.632 0c0 .994-.742 1.694-1.68 1.694-.924 0-1.666-.7-1.666-1.694 0-.98.7-1.68 1.666-1.68 1.008 0 1.68.7 1.68 1.68zM95.305 114h2.478v-4.2c0-.574.322-1.204 1.148-1.204.882 0 1.26.63 1.26 1.344V114h2.478v-4.284c.028-.546.364-1.12 1.148-1.12.882 0 1.26.63 1.26 1.344V114h2.478v-4.732c0-2.002-1.484-2.66-2.8-2.66-.784 0-1.624.406-2.38 1.316-.504-.966-1.554-1.316-2.506-1.316-.784 0-1.498.406-2.058.966h-.028v-.756h-2.478V114zm20.561-3.248c.014-.084.014-.238.014-.336 0-2.52-1.666-3.808-3.85-3.808-2.17 0-3.948 1.708-3.948 3.808 0 2.086 1.778 3.794 3.948 3.794 1.596 0 2.912-.518 3.724-1.876l-1.792-.896c-.602.644-.952.798-1.75.798-.63 0-1.554-.378-1.554-1.484h5.208zm-5.138-1.372c.042-.658.518-1.162 1.372-1.162.728 0 1.246.406 1.358 1.162h-2.73zm5.78 4.62h2.478v-4.06c0-.714.728-1.4 1.47-1.4.798 0 1.288.686 1.288 1.4V114h2.478v-4.732c0-2.002-1.834-2.66-3.15-2.66-.784 0-1.498.406-2.058.966h-.028v-.756h-2.478V114zm9.094-7.182h-1.036v1.89h1.036v2.758c0 1.274.476 2.744 2.45 2.744 1.022 0 1.82-.448 1.82-.448l-.616-2.002s-.294.224-.616.224c-.392 0-.56-.322-.56-.994v-2.282h1.512v-1.89h-1.512v-2.674h-2.478v2.674z"/>
</svg>
