<svg xmlns="http://www.w3.org/2000/svg" fill-rule="evenodd" clip-rule="evenodd" viewBox="0 0 200 155">
  <defs/>
  <path fill="#CE93D8" fill-rule="nonzero" stroke="#CE93D8" stroke-width="1.5" d="M3.348 14.682h0c-3.453 8.344-1.63 17.514 4.754 23.898l108.461 108.466a21.828 21.828 0 0015.534 6.435c6.848 0 13.16-3.102 17.313-8.506v-.001c26.595-34.671 43.662-75.828 49.344-119.03a21.945 21.945 0 00-5.256-17.329 21.925 21.925 0 00-16.486-7.473H23.61c-9.034 0-16.802 5.195-20.262 13.54z"/>
  <path fill="#fff" fill-rule="nonzero" d="M78.215 48.62c-2.646 0-3.809-1.848-3.809-3.402 0-1.54 1.163-3.388 3.809-3.388a4.01 4.01 0 012.268.714l1.12-2.24s-1.288-1.064-3.794-1.064c-3.276 0-6.258 2.688-6.258 6.006 0 3.304 2.996 5.964 6.258 5.964 2.506 0 3.794-1.064 3.794-1.064l-1.12-2.24s-.924.714-2.268.714zm3.377-1.204c0 2.1 1.47 3.794 3.57 3.794.979 0 1.82-.434 2.351-1.022h.029V51h2.45v-7.182h-2.479v.686c-.587-.574-1.385-.896-2.351-.896-2.1 0-3.57 1.708-3.57 3.808zm2.632 0c0-.994.742-1.694 1.679-1.694.925 0 1.667.7 1.667 1.694 0 .98-.7 1.68-1.667 1.68-1.007 0-1.679-.7-1.679-1.68zM91.166 51h2.478v-4.2c0-.574.322-1.204 1.148-1.204.882 0 1.26.63 1.26 1.344V51h2.478v-4.284c.028-.546.364-1.12 1.148-1.12.882 0 1.26.63 1.26 1.344V51h2.478v-4.732c0-2.002-1.484-2.66-2.8-2.66-.784 0-1.624.406-2.38 1.316-.504-.966-1.554-1.316-2.506-1.316-.784 0-1.498.406-2.058.966h-.028v-.756h-2.478V51zm21.695-3.598c0-2.1-1.47-3.794-3.57-3.794-.98 0-1.82.434-2.352 1.022h-.028v-.812h-2.45V54.64h2.478v-4.326c.588.574 1.386.896 2.352.896 2.1 0 3.57-1.708 3.57-3.808zm-2.632 0c0 .994-.742 1.694-1.68 1.694-.924 0-1.666-.7-1.666-1.694 0-.98.7-1.68 1.666-1.68 1.008 0 1.68.7 1.68 1.68zm2.771.014c0 2.1 1.47 3.794 3.57 3.794.98 0 1.82-.434 2.352-1.022h.028V51h2.45v-7.182h-2.478v.686c-.588-.574-1.386-.896-2.352-.896-2.1 0-3.57 1.708-3.57 3.808zm2.632 0c0-.994.742-1.694 1.68-1.694.924 0 1.666.7 1.666 1.694 0 .98-.7 1.68-1.666 1.68-1.008 0-1.68-.7-1.68-1.68zm8.216-8.036a1.47 1.47 0 100 2.94 1.47 1.47 0 000-2.94zm-1.274 4.438h2.478V51h-2.478v-7.182zm3.403 8.946c.756 1.75 2.478 2.086 3.976 2.086 2.45 0 4.228-1.246 4.228-3.654v-7.378h-2.478v.644h-.042c-.588-.546-1.358-.854-2.31-.854-2.1 0-3.57 1.708-3.57 3.808 0 2.1 1.47 3.794 3.57 3.794.98 0 1.82-.14 2.352-.728v.532c0 1.274-1.064 1.68-1.75 1.68-1.078 0-1.68-.49-1.946-.924l-2.03.994zm2.436-5.348c0-.994.742-1.694 1.68-1.694.924 0 1.666.7 1.666 1.694 0 .98-.7 1.68-1.666 1.68-1.008 0-1.68-.7-1.68-1.68zM135.356 51h2.478v-4.06c0-.714.728-1.4 1.47-1.4.798 0 1.288.686 1.288 1.4V51h2.478v-4.732c0-2.002-1.834-2.66-3.15-2.66-.784 0-1.498.406-2.058.966h-.028v-.756h-2.478V51zm-50.088 6.45V69h3.346c3.178 0 5.824-2.408 5.824-5.782 0-3.36-2.66-5.768-5.824-5.768h-3.346zm2.632 9.198v-6.846h.406c1.96 0 3.29 1.498 3.29 3.43-.014 1.932-1.344 3.416-3.29 3.416H87.9zm14.47-.896c.014-.084.014-.238.014-.336 0-2.52-1.666-3.808-3.85-3.808-2.17 0-3.948 1.708-3.948 3.808 0 2.086 1.778 3.794 3.948 3.794 1.596 0 2.912-.518 3.724-1.876l-1.792-.896c-.602.644-.952.798-1.75.798-.63 0-1.554-.378-1.554-1.484h5.208zm-5.138-1.372c.042-.658.518-1.162 1.372-1.162.728 0 1.246.406 1.358 1.162h-2.73zm8.875-2.772c-1.89 0-3.136.84-3.136 2.31 0 1.078.728 1.582 1.456 1.96.812.42 1.596.462 1.596.98 0 .476-.42.518-.77.518-.798 0-1.778-.826-1.778-.826l-1.008 1.694s1.036.966 2.772.966c1.47 0 3.402-.336 3.402-2.45 0-1.47-1.232-2.002-2.184-2.296-.616-.196-1.12-.308-1.12-.686 0-.336.224-.434.77-.434.756 0 1.596.448 1.596.448l.812-1.624s-1.022-.56-2.408-.56zm4.542-4.228a1.47 1.47 0 100 2.94 1.47 1.47 0 000-2.94zm-1.274 4.438h2.478V69h-2.478v-7.182zm3.403 8.946c.756 1.75 2.478 2.086 3.976 2.086 2.45 0 4.228-1.246 4.228-3.654v-7.378h-2.478v.644h-.042c-.588-.546-1.358-.854-2.31-.854-2.1 0-3.57 1.708-3.57 3.808 0 2.1 1.47 3.794 3.57 3.794.98 0 1.82-.14 2.352-.728v.532c0 1.274-1.064 1.68-1.75 1.68-1.078 0-1.68-.49-1.946-.924l-2.03.994zm2.436-5.348c0-.994.742-1.694 1.68-1.694.924 0 1.666.7 1.666 1.694 0 .98-.7 1.68-1.666 1.68-1.008 0-1.68-.7-1.68-1.68zM122.156 69h2.478v-4.06c0-.714.728-1.4 1.47-1.4.798 0 1.288.686 1.288 1.4V69h2.478v-4.732c0-2.002-1.834-2.66-3.15-2.66-.784 0-1.498.406-2.058.966h-.028v-.756h-2.478V69z"/>
</svg>
