<svg xmlns="http://www.w3.org/2000/svg" fill-rule="evenodd" clip-rule="evenodd" viewBox="0 0 200 155">
  <defs/>
  <path fill="#FBC02D" fill-rule="nonzero" stroke="#FBC02D" stroke-width="1.5" d="M7.802 116.211l.531.53-.531-.53c-6.384 6.384-8.214 15.553-4.754 23.899 3.364 8.112 10.8 13.248 19.513 13.527v.018h154.15a21.932 21.932 0 0016.486-7.472 21.943 21.943 0 005.257-17.33c-5.682-43.201-22.749-84.359-49.344-119.029-4.146-5.406-10.459-8.507-17.307-8.507a21.831 21.831 0 00-15.534 6.434L7.802 116.211z"/>
  <path fill="#fff" fill-rule="nonzero" d="M78.837 96.411c-2.646 0-3.808-1.848-3.808-3.402 0-1.54 1.162-3.388 3.808-3.388a4.01 4.01 0 012.268.714l1.12-2.24s-1.288-1.064-3.794-1.064c-3.276 0-6.258 2.688-6.258 6.006 0 3.304 2.996 5.964 6.258 5.964 2.506 0 3.794-1.064 3.794-1.064l-1.12-2.24s-.924.714-2.268.714zm3.377-1.204c0 2.212 1.736 3.794 4.326 3.794 2.478 0 4.284-1.582 4.284-3.794 0-2.24-1.904-3.808-4.284-3.808-2.422 0-4.326 1.568-4.326 3.808zm2.632 0c0-.994.742-1.694 1.68-1.694.924 0 1.666.7 1.666 1.694 0 .98-.7 1.68-1.666 1.68-1.008 0-1.68-.7-1.68-1.68zm6.615 3.584h2.478v-4.06c0-.714.728-1.4 1.47-1.4.798 0 1.288.686 1.288 1.4v4.06h2.478v-4.732c0-2.002-1.834-2.66-3.15-2.66-.784 0-1.498.406-2.058.966h-.028v-.756h-2.478v7.182zm11.809-7.392c-1.89 0-3.136.84-3.136 2.31 0 1.078.728 1.582 1.456 1.96.812.42 1.596.462 1.596.98 0 .476-.42.518-.77.518-.798 0-1.778-.826-1.778-.826l-1.008 1.694s1.036.966 2.772.966c1.47 0 3.402-.336 3.402-2.45 0-1.47-1.232-2.002-2.184-2.296-.616-.196-1.12-.308-1.12-.686 0-.336.224-.434.77-.434.756 0 1.596.448 1.596.448l.812-1.624s-1.022-.56-2.408-.56zm5.606.21h-2.478v4.018c0 2.408 1.204 3.374 3.892 3.374 2.688 0 3.892-.966 3.892-3.374v-4.018h-2.478v3.416c0 1.414-.378 1.96-1.414 1.96s-1.414-.546-1.414-1.96v-3.416zm6.35 7.182h2.478v-4.2c0-.574.322-1.204 1.148-1.204.882 0 1.26.63 1.26 1.344v4.06h2.478v-4.284c.028-.546.364-1.12 1.148-1.12.882 0 1.26.63 1.26 1.344v4.06h2.478v-4.732c0-2.002-1.484-2.66-2.8-2.66-.784 0-1.624.406-2.38 1.316-.504-.966-1.554-1.316-2.506-1.316-.784 0-1.498.406-2.058.966h-.028v-.756h-2.478v7.182zm20.561-3.248c.014-.084.014-.238.014-.336 0-2.52-1.666-3.808-3.85-3.808-2.17 0-3.948 1.708-3.948 3.808 0 2.086 1.778 3.794 3.948 3.794 1.596 0 2.912-.518 3.724-1.876l-1.792-.896c-.602.644-.952.798-1.75.798-.63 0-1.554-.378-1.554-1.484h5.208zm-5.138-1.372c.042-.658.518-1.162 1.372-1.162.728 0 1.246.406 1.358 1.162h-2.73zm5.78 4.62h2.478v-3.78c0-.182.182-1.456 1.47-1.456.826 0 1.288.392 1.288.392l1.036-2.1s-.644-.448-1.568-.448c-1.414 0-2.198 1.246-2.198 1.246h-.028v-1.036h-2.478v7.182zm-59.582 6.45v11.55h2.632v-4.564l3.528 4.564h3.346l-3.976-4.774c1.414-.448 2.366-1.61 2.366-3.346 0-2.268-1.624-3.43-3.766-3.43h-4.13zm2.632 5.124v-3.024h.308c.994 0 2.184.07 2.184 1.512s-1.19 1.512-2.184 1.512h-.308zm13.814 3.178c.014-.084.014-.238.014-.336 0-2.52-1.666-3.808-3.85-3.808-2.17 0-3.948 1.708-3.948 3.808 0 2.086 1.778 3.794 3.948 3.794 1.596 0 2.912-.518 3.724-1.876l-1.792-.896c-.602.644-.952.798-1.75.798-.63 0-1.554-.378-1.554-1.484h5.208zm-5.138-1.372c.042-.658.518-1.162 1.372-1.162.728 0 1.246.406 1.358 1.162h-2.73zm8.875-2.772c-1.89 0-3.136.84-3.136 2.31 0 1.078.728 1.582 1.456 1.96.812.42 1.596.462 1.596.98 0 .476-.42.518-.77.518-.798 0-1.778-.826-1.778-.826l-1.008 1.694s1.036.966 2.772.966c1.47 0 3.402-.336 3.402-2.45 0-1.47-1.232-2.002-2.184-2.296-.616-.196-1.12-.308-1.12-.686 0-.336.224-.434.77-.434.756 0 1.596.448 1.596.448l.812-1.624s-1.022-.56-2.408-.56zm10.534 4.144c.014-.084.014-.238.014-.336 0-2.52-1.666-3.808-3.85-3.808-2.17 0-3.948 1.708-3.948 3.808 0 2.086 1.778 3.794 3.948 3.794 1.596 0 2.912-.518 3.724-1.876l-1.792-.896c-.602.644-.952.798-1.75.798-.63 0-1.554-.378-1.554-1.484h5.208zm-5.138-1.372c.042-.658.518-1.162 1.372-1.162.728 0 1.246.406 1.358 1.162h-2.73zm5.221 1.036c0 2.1 1.47 3.794 3.57 3.794.98 0 1.82-.434 2.352-1.022h.028v.812h2.45v-7.182h-2.478v.686c-.588-.574-1.386-.896-2.352-.896-2.1 0-3.57 1.708-3.57 3.808zm2.632 0c0-.994.742-1.694 1.68-1.694.924 0 1.666.7 1.666 1.694 0 .98-.7 1.68-1.666 1.68-1.008 0-1.68-.7-1.68-1.68zm6.943 3.584h2.478v-3.78c0-.182.182-1.456 1.47-1.456.826 0 1.288.392 1.288.392l1.036-2.1s-.644-.448-1.568-.448c-1.414 0-2.198 1.246-2.198 1.246h-.028v-1.036h-2.478v7.182zm10.212-5.362c.742 0 1.204.336 1.204.336l.84-1.694s-.812-.672-2.408-.672c-2.086 0-3.976 1.708-3.976 3.822 0 2.1 1.904 3.78 3.976 3.78 1.596 0 2.408-.644 2.408-.644l-.84-1.722s-.462.336-1.204.336c-.938 0-1.708-.784-1.708-1.778 0-.98.77-1.764 1.708-1.764zm2.555 5.362h2.478v-4.06c0-.714.728-1.4 1.47-1.4.798 0 1.288.686 1.288 1.4v4.06h2.478v-4.732c0-2.002-1.834-2.66-3.15-2.66-.784 0-1.498.406-2.058.966h-.028v-5.614h-2.478v12.04z"/>
</svg>
