<svg xmlns="http://www.w3.org/2000/svg" fill-rule="evenodd" clip-rule="evenodd" viewBox="0 0 200 155">
  <defs/>
  <path fill="#77bc1f" fill-rule="nonzero" stroke="#77bc1f" stroke-width="1.5" d="M1.688 25.968c5.682 43.201 22.749 84.365 49.35 119.029 4.146 5.405 10.459 8.507 17.307 8.507a21.828 21.828 0 0015.534-6.435L192.346 38.604c6.391-6.384 8.214-15.554 4.754-23.899-3.459-8.344-11.228-13.539-20.262-13.539H23.43A21.933 21.933 0 001.688 25.968z"/>
  <path fill="#fff" fill-rule="nonzero" d="M51.65 51.643c-2.646 0-3.808-1.848-3.808-3.402 0-1.54 1.162-3.388 3.808-3.388a4.01 4.01 0 012.268.714l1.12-2.24s-1.288-1.064-3.794-1.064c-3.276 0-6.258 2.688-6.258 6.006 0 3.304 2.996 5.964 6.258 5.964 2.506 0 3.794-1.064 3.794-1.064l-1.12-2.24s-.924.714-2.268.714zm3.377-1.204c0 2.1 1.47 3.794 3.57 3.794.98 0 1.82-.434 2.352-1.022h.028v.812h2.45v-7.182h-2.478v.686c-.588-.574-1.386-.896-2.352-.896-2.1 0-3.57 1.708-3.57 3.808zm2.632 0c0-.994.742-1.694 1.68-1.694.924 0 1.666.7 1.666 1.694 0 .98-.7 1.68-1.666 1.68-1.008 0-1.68-.7-1.68-1.68zm6.942 3.584h2.478v-4.2c0-.574.322-1.204 1.148-1.204.882 0 1.26.63 1.26 1.344v4.06h2.478v-4.284c.028-.546.364-1.12 1.148-1.12.882 0 1.26.63 1.26 1.344v4.06h2.478v-4.732c0-2.002-1.484-2.66-2.8-2.66-.784 0-1.624.406-2.38 1.316-.504-.966-1.554-1.316-2.506-1.316-.784 0-1.498.406-2.058.966h-.028v-.756h-2.478v7.182zm21.695-3.598c0-2.1-1.47-3.794-3.57-3.794-.98 0-1.82.434-2.352 1.022h-.028v-.812h-2.45v10.822h2.478v-4.326c.588.574 1.386.896 2.352.896 2.1 0 3.57-1.708 3.57-3.808zm-2.632 0c0 .994-.742 1.694-1.68 1.694-.924 0-1.666-.7-1.666-1.694 0-.98.7-1.68 1.666-1.68 1.008 0 1.68.7 1.68 1.68zm2.771.014c0 2.1 1.47 3.794 3.57 3.794.98 0 1.82-.434 2.352-1.022h.028v.812h2.45v-7.182h-2.478v.686c-.588-.574-1.386-.896-2.352-.896-2.1 0-3.57 1.708-3.57 3.808zm2.632 0c0-.994.742-1.694 1.68-1.694.924 0 1.666.7 1.666 1.694 0 .98-.7 1.68-1.666 1.68-1.008 0-1.68-.7-1.68-1.68zm8.216-8.036a1.469 1.469 0 100 2.938 1.469 1.469 0 000-2.938zm-1.273 4.438h2.477v7.182H96.01v-7.182zm3.402 8.946c.756 1.75 2.478 2.086 3.976 2.086 2.45 0 4.228-1.246 4.228-3.654v-7.378h-2.478v.644h-.042c-.588-.546-1.358-.854-2.31-.854-2.1 0-3.57 1.708-3.57 3.808 0 2.1 1.47 3.794 3.57 3.794.98 0 1.82-.14 2.352-.728v.532c0 1.274-1.064 1.68-1.75 1.68-1.078 0-1.68-.49-1.946-.924l-2.03.994zm2.436-5.348c0-.994.742-1.694 1.68-1.694.924 0 1.666.7 1.666 1.694 0 .98-.7 1.68-1.666 1.68-1.008 0-1.68-.7-1.68-1.68zm6.943 3.584h2.478v-4.06c0-.714.728-1.4 1.47-1.4.798 0 1.288.686 1.288 1.4v4.06h2.478v-4.732c0-2.002-1.834-2.66-3.15-2.66-.784 0-1.498.406-2.058.966h-.028v-.756h-2.478v7.182zm-53.381 6.45h-6.608v11.55h6.608v-2.31h-3.976v-2.324h3.808v-2.31h-3.808v-2.296h3.976v-2.31zm9.33 11.55l-3.066-3.752 2.632-3.43h-2.898l-1.246 1.666-1.246-1.666h-2.898l2.632 3.43-3.066 3.752h2.996l1.582-2.03 1.582 2.03h2.996zm7.61-3.248c.014-.084.014-.238.014-.336 0-2.52-1.666-3.808-3.85-3.808-2.17 0-3.948 1.708-3.948 3.808 0 2.086 1.778 3.794 3.948 3.794 1.596 0 2.912-.518 3.724-1.876l-1.792-.896c-.602.644-.952.798-1.75.798-.63 0-1.554-.378-1.554-1.484h5.208zm-5.138-1.372c.042-.658.518-1.162 1.372-1.162.728 0 1.246.406 1.358 1.162h-2.73zm9.629-.742c.742 0 1.204.336 1.204.336l.84-1.694s-.812-.672-2.408-.672c-2.086 0-3.976 1.708-3.976 3.822 0 2.1 1.904 3.78 3.976 3.78 1.596 0 2.408-.644 2.408-.644l-.84-1.722s-.462.336-1.204.336c-.938 0-1.708-.784-1.708-1.778 0-.98.77-1.764 1.708-1.764zm4.893-1.82h-2.478v4.018c0 2.408 1.204 3.374 3.892 3.374 2.688 0 3.892-.966 3.892-3.374v-4.018h-2.478v3.416c0 1.414-.378 1.96-1.414 1.96s-1.414-.546-1.414-1.96v-3.416zm6.701 0h-1.036v1.89h1.036v2.758c0 1.274.476 2.744 2.45 2.744 1.022 0 1.82-.448 1.82-.448l-.616-2.002s-.294.224-.616.224c-.392 0-.56-.322-.56-.994v-2.282h1.512v-1.89h-1.512v-2.674h-2.478v2.674zm5.878-4.438a1.47 1.47 0 100 2.94 1.47 1.47 0 000-2.94zm-1.274 4.438h2.478v7.182h-2.478v-7.182zm3.206 3.598c0 2.212 1.736 3.794 4.326 3.794 2.478 0 4.284-1.582 4.284-3.794 0-2.24-1.904-3.808-4.284-3.808-2.422 0-4.326 1.568-4.326 3.808zm2.632 0c0-.994.742-1.694 1.68-1.694.924 0 1.666.7 1.666 1.694 0 .98-.7 1.68-1.666 1.68-1.008 0-1.68-.7-1.68-1.68zm6.615 3.584h2.478v-4.06c0-.714.728-1.4 1.47-1.4.798 0 1.288.686 1.288 1.4v4.06h2.478v-4.732c0-2.002-1.834-2.66-3.15-2.66-.784 0-1.498.406-2.058.966h-.028v-.756h-2.478v7.182z"/>
</svg>
